<svg width="160" height="40" viewBox="0 0 160 40" fill="none" xmlns="http://www.w3.org/2000/svg">
<path d="M119.638 14.2005C120.129 14.0485 120.58 13.8181 121.042 13.7801C123.192 13.602 125.342 13.4643 127.493 13.3384C129.227 13.2363 130.961 13.1722 132.873 13.082C131.778 11.1656 132.349 9.46293 133.06 7.81726C131.833 7.62729 130.679 7.45631 129.526 7.25446C129.442 7.24021 129.382 7.00512 129.221 6.7059C130.08 6.61567 130.817 6.52305 131.555 6.46131C134.232 6.23571 136.842 5.51618 139.468 4.88926C140.306 4.68979 141.18 4.39295 141.999 5.10536C142.277 6.14548 141.903 7.05736 141.525 7.9075C141.37 8.25896 140.954 8.53442 140.614 8.63891C139.608 8.94762 138.58 9.15659 137.592 9.39644V12.7804C138.651 12.7804 139.782 12.8706 140.9 12.759C142.352 12.6142 143.792 12.2769 145.24 12.0798C146.828 11.8638 148.42 11.5859 150.011 11.555C152.76 11.5028 155.508 11.6215 158.256 11.6714C158.394 11.6738 158.547 11.6524 158.67 11.7118C159.993 12.3624 160.212 12.3173 159.834 14.1981C159.826 14.2408 159.815 14.2812 159.803 14.3216C159.36 15.9063 158.454 16.6978 157.086 16.6963C154.648 16.6915 152.207 16.6084 149.772 16.6963C147.724 16.7723 145.673 16.9599 143.639 17.2543C140.958 17.6414 138.284 17.4205 135.607 17.3066C133.557 17.2187 131.507 17.0952 129.457 16.9504C126.751 16.758 124.047 16.5205 121.341 16.3234C120.367 16.2522 119.794 15.6775 119.632 14.2005H119.638ZM135.017 12.8089C136.748 13.177 137.592 11.8044 137.011 9.71227C135.699 9.93312 135.521 10.1516 135.281 11.745C135.231 12.0751 135.122 12.3933 135.017 12.8089Z" fill="#D8B384"/>
<path d="M55.2693 29.1064C55.4131 28.0782 55.5493 27.1141 55.7065 25.9932C55.0794 25.9077 54.5099 25.7747 53.9384 25.7629C52.4751 25.7296 51.0119 25.7581 49.5487 25.7486C48.6473 25.7439 47.9512 24.9958 47.8591 23.9082C47.8419 23.6945 47.9416 23.3003 48.0547 23.2576C48.8659 22.9441 48.9733 22.0678 49.3435 21.2984C49.9399 20.0565 50.2486 18.7053 50.7434 17.4372C50.9985 16.7794 51.2363 16.1026 51.5508 15.4899C52.1069 14.3999 52.9584 13.9677 54.1455 13.887C53.5759 14.7894 52.5729 14.7253 52.2987 15.9744C54.0323 14.9295 55.8101 14.5614 57.6607 14.2812C57.8084 13.4714 57.9484 12.6949 58.0864 11.9279C54.997 11.9279 51.9804 11.935 48.9618 11.9231C47.9895 11.9184 47.9205 11.821 47.7498 10.6099C48.7585 9.99962 49.8862 9.96162 50.9678 9.73603C53.9134 9.12335 56.8687 8.57242 59.8201 7.99775C60.0253 7.95738 60.2343 7.89801 60.4395 7.90751C61.9334 7.974 63.4293 8.01912 64.9213 8.14735C65.8782 8.23047 66.0297 8.63654 65.7651 9.76927C65.5234 10.7999 65.0651 11.4007 64.1561 11.4126C62.8693 11.4292 61.5825 11.4696 60.2976 11.5289C59.7836 11.5527 59.2716 11.6572 58.7289 11.7284C58.6138 12.5192 58.5083 13.2292 58.3818 14.0983C58.9801 14.0983 59.519 14.1078 60.0579 14.0983C61.1011 14.0746 62.1444 14.001 63.1876 14.0129C64.4342 14.0247 64.9251 14.6089 65.1265 16.1382C65.3873 18.1306 65.3719 20.066 64.578 21.9159C64.1542 22.9037 63.5827 23.6565 62.7926 24.1908C61.2296 25.2499 59.5324 25.6346 57.7815 25.7557C57.5418 25.7724 57.3002 25.7557 56.9607 25.7557C56.8629 26.7222 56.7728 27.6341 56.6577 28.7645C57.2081 28.6505 57.63 28.5531 58.0558 28.4748C58.3281 28.4249 58.6119 28.3323 58.8785 28.3727C59.4902 28.4676 59.751 28.926 59.5765 29.6407C59.45 30.1632 59.2179 30.6476 59.0338 31.1511H56.4698C56.2723 32.0273 56.0881 32.8418 55.8753 33.7799C56.6673 33.6516 57.3826 33.4878 58.1037 33.4355C58.8113 33.3856 59.5343 33.3097 60.3513 33.5353C59.8067 34.8318 59.1374 35.7936 58.0366 35.815C55.5665 35.8601 53.0946 35.7793 50.6226 35.7081C50.1067 35.6939 49.5582 35.5466 49.5103 34.5184C51.056 34.3379 52.5959 34.1598 53.9978 33.9959C54.3123 33.0271 54.5961 32.1579 54.9011 31.2199C54.134 30.9373 53.1195 31.3173 52.9488 29.7429C53.2959 29.6241 53.6449 29.4864 53.9997 29.389C54.3718 29.2869 54.7515 29.2228 55.2693 29.1136V29.1064ZM51.1749 20.2726C53.0351 19.9995 54.8071 19.7406 56.6213 19.4723C56.8572 18.2588 57.0777 17.1166 57.3021 15.9649C55.8503 15.7203 53.597 16.1311 52.548 16.8174C52.1146 17.1 51.7061 17.4348 51.5815 18.0855C51.4491 18.7789 51.3245 19.4747 51.1768 20.2726H51.1749ZM57.5897 19.1731C59.6647 19.0876 61.1989 17.3564 63.0917 17.1166C63.0783 16.5324 62.9249 16.1905 62.4224 16.162C61.9392 16.1358 61.4617 15.9625 60.9803 15.9435C60.0253 15.9079 59.0683 15.9316 58.0864 15.9316C57.9215 17.005 57.7681 18.0071 57.5897 19.1707V19.1731ZM50.4481 22.6734C50.4922 22.7921 50.5363 22.9109 50.5804 23.0296C52.1951 23.1222 53.8099 23.2172 55.4227 23.3098C56.0536 23.3454 56.2071 22.9346 56.0479 22.1367C54.3775 22.1367 52.688 22.1201 50.9985 22.1604C50.8105 22.1652 50.6303 22.4953 50.4442 22.6734H50.4481ZM57.1985 23.1721C58.9034 23.0652 60.4568 22.7779 61.9373 21.4623C60.2688 21.7544 58.7692 22.0156 57.2695 22.2792C57.2465 22.3599 57.2062 22.4359 57.2024 22.5143C57.1928 22.6805 57.1985 22.8515 57.1985 23.1721Z" fill="#D8B384"/>
<path d="M75.0354 15.9791C74.7861 18.1876 74.5387 20.3794 74.2703 22.7565C74.6864 22.6686 75.045 22.6093 75.3998 22.5167C77.0663 22.0773 78.7252 21.5929 80.3974 21.1987C81.4714 20.9446 82.5338 20.9945 83.5349 21.7093C84.2118 22.1913 84.5704 22.8539 84.4995 23.8109C84.4554 24.4069 84.3921 25.0148 84.2444 25.5824C83.5157 28.3893 82.3152 30.8329 80.4531 32.7136C80.0005 33.1696 79.4712 33.5376 78.9342 33.8297C77.8277 34.4281 76.7921 34.2548 75.7987 33.3334C74.4601 32.0914 73.7295 30.3484 73.0544 28.5413C72.9969 28.3893 72.9432 28.2349 72.8818 28.0877C72.8703 28.0592 72.8205 28.0521 72.7495 28.0141C72.2835 29.0447 71.8386 30.0991 71.34 31.1131C69.8384 34.1598 67.8746 36.5488 65.2089 38.0804C63.7534 38.9163 62.6104 38.5221 61.4176 37.3846C61.6324 36.0382 62.0811 35.0242 63.2107 34.5018C65.0421 33.6564 66.7911 32.5973 68.2217 30.8803C69.3743 29.5006 70.3753 27.9808 71.2287 26.0265C69.5258 26.0573 67.9571 25.8436 66.3884 26.2046C65.8169 25.1692 65.8667 24.7726 66.7815 24.4805C67.8899 24.1291 69.031 23.9439 70.1586 23.6898C70.8739 23.5283 71.7849 23.647 72.2547 23.1388C72.761 22.5926 72.8837 21.4742 73.1196 20.5813C73.3478 19.724 73.4859 18.8311 73.7045 17.9691C73.8503 17.3992 74.0478 16.8435 74.2664 16.3092C74.416 15.9435 74.6653 15.7226 75.0316 15.9767L75.0354 15.9791ZM75.1543 25.9742C76.2686 28.5531 76.4335 28.8215 77.4077 29.6503C78.6734 28.7312 79.5536 27.3753 80.3668 25.5895C78.5219 25.5776 76.8861 25.7201 75.1543 25.9742Z" fill="#D8B384"/>
<path d="M25.6076 15.5944C28.653 15.1456 31.5411 14.7205 34.4119 14.2954C34.9431 12.4527 36.7899 12.1012 38.5619 13.5308C38.5888 15.1859 38.2838 16.6939 37.0622 17.7245C36.951 17.8195 36.8168 17.9382 36.694 17.9406C35.0083 17.9715 33.3227 17.962 31.6389 18.0071C29.6674 18.0593 27.6941 18.1567 25.6344 18.2374V22.7897C26.0065 22.7897 26.4111 22.7945 26.8138 22.7897C27.8955 22.7731 28.9694 22.7873 30.0069 23.2552C30.8929 23.6565 31.4951 24.3119 31.5603 25.5657C31.6887 28.0354 31.6753 30.46 30.7145 32.7445C30.2447 33.8653 29.5601 34.5231 28.5878 34.8223C26.7985 35.3709 25.0016 35.2711 23.1989 34.9957C22.6466 34.9102 22.0885 34.8389 21.5516 34.6727C21.0031 34.5017 20.5332 34.4946 20.2322 35.1738C19.6626 34.9696 19.5168 34.4186 19.3442 33.9104C19.2369 33.597 19.1947 33.2503 19.0969 32.9321C18.7478 31.8112 18.744 31.8136 19.6166 31.132C19.9924 28.8523 19.8083 26.4349 20.8478 24.3048C20.8075 24.8913 20.7672 25.4779 20.7078 26.3375C21.3118 25.5301 21.7683 24.9222 22.2688 24.2549C22.1269 23.8963 21.9792 23.5283 21.8085 23.0961C22.3973 22.3338 23.1682 22.6187 23.9526 22.5238C24.083 21.2509 24.2134 19.9805 24.363 18.5271C23.8509 18.5271 23.4137 18.501 22.9784 18.5319C21.6609 18.6293 20.3453 18.748 19.0297 18.8643C18.4295 18.9166 18.2895 18.3609 18.1092 17.8195C18.3758 17.1213 18.9473 17.0976 19.4344 16.9836C20.7327 16.6796 22.0406 16.4469 23.3427 16.1809C23.6822 16.1121 24.0216 16.0266 24.3937 15.9387C24.7523 14.2147 24.4416 12.493 24.5183 10.8379C25.0227 10.5339 25.272 10.7785 25.3391 11.2843C25.4561 12.1724 25.5405 13.0677 25.6038 13.9653C25.6402 14.4712 25.6095 14.9865 25.6095 15.5991L25.6076 15.5944ZM20.8919 31.2175C21.8565 31.3434 22.7847 31.5357 23.7167 31.5642C24.7561 31.5975 25.8051 31.5524 26.8407 31.417C27.9453 31.2721 28.5398 30.5835 28.6319 29.294C28.722 28.0592 28.651 26.8077 28.651 25.523C27.627 24.7892 26.484 24.5351 25.3199 24.4805C24.7983 25.595 24.0139 25.7937 22.9669 25.0766C20.7173 26.5987 20.4469 27.57 20.8919 31.2152V31.2175Z" fill="#D8B384"/>
<path d="M129.609 32.0582C128.786 32.7873 128.583 32.6899 128.015 31.6331C127.495 30.6643 127.551 29.7928 128.072 28.8975C129.743 26.0384 131.716 23.5948 134.322 22.0536C134.836 21.7497 135.421 21.6309 136.081 21.3863C136.121 21.8446 136.146 22.1177 136.156 22.2293C137.262 22.7993 138.332 23.2766 139.347 23.894C140.404 24.5399 140.906 25.6442 140.833 27.1521C140.745 28.9592 140.59 30.7331 139.984 32.4168C139.512 33.7324 138.714 34.4258 137.579 34.5445C134.694 34.8485 131.981 34.2999 129.607 32.0558L129.609 32.0582ZM138.848 28.1542C136.091 29.8284 133.728 28.3656 131.285 27.5059C130.953 28.0972 130.642 28.6529 130.31 29.2442C130.982 30.0326 131.666 30.7236 132.518 30.9754C133.757 31.3434 135.019 31.721 136.284 31.8018C137.49 31.8777 138.123 31.5643 138.505 29.7096C138.589 29.3012 138.685 28.8975 138.848 28.1542ZM139.098 26.6938C139.307 26.0621 139.075 25.5302 138.637 25.193C137.935 24.6515 137.224 24.0792 136.453 23.7373C134.796 23.0011 133.557 23.7468 132.664 25.884C134.792 26.15 136.906 26.4159 139.099 26.6914L139.098 26.6938Z" fill="#D8B384"/>
<path d="M99.2776 10.9567C99.4099 11.9042 99.408 12.7899 98.8979 13.5427C97.9179 13.2316 97.496 12.334 97.6264 10.807C95.2254 10.4271 93.5225 8.84079 92.4715 6.15976C92.3354 5.81305 92.1973 5.45685 92.1148 5.08877C91.948 4.32174 92.1148 4.02728 92.7323 3.75182C93.0143 3.62596 93.3441 3.4906 93.5301 3.22701C95.166 0.904552 97.3311 0.177894 99.6937 0.0235385C100.748 -0.0453278 101.798 -0.012082 102.693 0.814313C102.963 1.06366 103.255 1.36287 103.403 1.72382C104.822 5.19563 103.815 10.2442 99.897 10.7548C99.6976 10.7809 99.5058 10.8807 99.2776 10.9567ZM97.239 3.76606C98.4146 4.69457 99.5077 5.55421 100.597 6.41623C101.498 5.68245 101.855 4.78718 101.583 3.76606C101.508 3.48822 101.274 3.11777 101.073 3.07503C99.7609 2.79244 98.4875 2.94679 97.2371 3.76369L97.239 3.76606ZM95.0145 5.6207C95.9983 6.95291 97.6399 7.51334 99.0321 7.03365C98.1596 6.0814 97.3215 5.16476 96.424 4.18401C95.9618 4.65658 95.515 5.11014 95.0164 5.6207H95.0145Z" fill="#D8B384"/>
<path d="M92.8915 31.9229C93.1677 32.0654 93.3844 32.1841 93.6068 32.2886C94.5446 32.7303 94.7862 32.6448 95.3213 31.5809C95.5207 31.1844 95.6991 30.7403 95.7854 30.2891C96.0961 28.6292 96.3645 26.955 96.6676 25.1811C96.1939 25.2191 95.7796 25.2049 95.3807 25.2951C94.7536 25.4376 94.4698 25.0838 94.3471 24.312C94.4871 24.1695 94.6213 23.9487 94.7978 23.8703C96.5697 23.0795 98.3743 22.4479 100.275 22.4027C100.541 22.3956 100.844 22.4502 101.069 22.6117C101.238 22.7328 101.437 23.1151 101.395 23.3027C101.163 24.3191 101.03 25.4637 99.9565 25.7416C99.0129 25.9862 98.5834 26.6891 98.4971 27.9097C98.3705 29.7049 98.1442 31.4955 97.5267 33.1649C97.147 34.1931 96.7366 35.1834 95.9695 35.8625C94.9876 36.7317 94.1956 36.6296 93.3882 35.5324C92.5176 34.3498 92.3315 33.1886 92.8934 31.9229H92.8915Z" fill="#D8B384"/>
<path d="M11.6579 12.2152C10.3155 11.9587 9.01144 11.4458 7.84353 10.4176C6.9326 9.61491 6.26907 8.59141 5.85867 7.33045C5.37732 5.84864 5.81456 5.48531 6.69672 5.30483C7.34492 5.17185 7.96435 5.11486 8.64515 5.24784C9.62319 5.44019 10.6645 5.45681 11.6426 5.26446C12.5497 5.08636 13.1806 5.65154 13.8518 6.09798C14.0819 6.24996 14.2066 6.9315 14.1759 7.34707C14.0704 8.72915 13.614 9.99011 13.079 11.1965C12.7894 11.8495 12.3138 12.1748 11.6598 12.2152H11.6579Z" fill="#D8B384"/>
<path d="M0 38.261C0.73833 37.9428 1.41146 37.6245 2.09801 37.361C4.1615 36.5654 6.13677 35.5728 8.00081 34.1694C8.82161 33.5519 9.89362 33.3596 10.8755 33.1886C11.773 33.0319 12.1124 33.6042 11.8478 34.6633C11.633 35.5206 11.3415 36.3565 11.0136 37.1591C10.6665 38.0069 10.0451 38.4676 9.31638 38.7525C7.41398 39.4911 5.46556 39.871 3.47878 39.9826C2.88812 40.0159 2.29554 39.9921 1.70295 39.9874C0.598335 39.9755 0.487106 39.871 0 38.2657L0 38.261Z" fill="#D8B384"/>
<path d="M116.689 25.3069C118.338 25.9101 118.794 27.741 117.671 29.1183C117.155 29.75 116.562 30.2962 115.977 30.8352C114.581 32.1199 113.193 33.4213 111.756 34.6324C111.043 35.2332 110.251 35.7152 109.457 36.1403C108.18 36.8242 107.37 36.4561 106.638 34.9862C106.582 34.877 106.534 34.7606 106.486 34.6466C105.909 33.2693 106.07 32.8205 107.28 32.4833C107.652 32.3788 108.04 32.2007 108.406 32.2434C110.124 32.4524 111.609 31.5832 113.097 30.7474C114.301 30.0706 115.484 29.3392 116.666 28.6077C118.127 27.703 118.198 26.86 116.944 25.5634C116.877 25.4945 116.808 25.4257 116.689 25.3069Z" fill="#D8B384"/>
<path d="M106.389 13.4952C106.567 14.7015 106.166 15.4495 105.88 16.2166C105.689 16.7319 105.284 16.6583 104.877 16.606C103.219 16.3994 101.558 16.2166 99.8951 16.0622C97.8508 15.8722 95.8045 15.7345 93.7602 15.5398C93.0008 15.4662 92.2471 15.2976 91.4896 15.1646C91.1674 15.1076 90.8874 14.9817 90.8261 14.3999C91.0792 14.3477 91.2998 14.2646 91.5222 14.2622C96.0462 14.2052 100.536 13.5664 105.038 13.139C105.483 13.0962 105.947 13.3717 106.387 13.4952H106.389Z" fill="#D8B384"/>
<path d="M14.385 19.4747C13.9976 20.6074 13.6581 21.7734 13.1902 22.8515C13.0598 23.1507 12.5267 23.3621 12.2064 23.3169C11.1037 23.1578 10.0106 22.8942 8.92131 22.614C8.59529 22.5285 8.25202 22.3267 8.00079 22.056C6.92878 20.9019 7.04768 19.7834 8.36708 19.2206C9.70758 18.6507 11.0903 18.2185 12.473 17.829C13.3187 17.5915 14.2373 18.4915 14.385 19.4747Z" fill="#D8B384"/>
<path d="M117.276 11.9658C116.994 12.6355 116.79 13.3859 116.413 13.9606C115.427 15.459 114.019 16.2759 112.692 17.2021C112.518 17.3255 112.211 17.2899 112.008 17.1949C111.44 16.9266 110.822 15.6276 110.866 14.8867C110.901 14.3097 111.146 13.925 111.593 13.7564C112.222 13.5165 112.861 13.3147 113.484 13.0558C114.175 12.7709 114.867 12.4835 115.527 12.1083C115.818 11.9421 116.037 11.5693 116.278 11.2796C116.409 11.1228 116.518 10.9376 116.637 10.7643C116.788 10.9637 116.965 11.1466 117.084 11.3722C117.153 11.5028 117.13 11.7046 117.149 11.8756C117.191 11.9041 117.235 11.935 117.277 11.9635L117.276 11.9658Z" fill="#D8B384"/>
<path d="M117.207 18.7576C116.898 20.6098 116.094 21.9135 115.059 23.0344C114.719 23.4025 114.336 23.7088 114.006 24.0864C113.737 24.3927 113.482 24.7371 113.289 25.117C112.886 25.9078 112.245 26.4967 111.831 26.3732C111.359 26.2331 110.671 24.965 110.652 24.2289C110.638 23.7278 110.853 23.4167 111.187 23.2173C111.845 22.8254 112.518 22.4763 113.168 22.0703C114.437 21.2771 115.762 20.5695 116.537 18.9523C116.583 18.8549 116.693 18.7766 116.785 18.7433C116.875 18.7101 116.98 18.7457 117.207 18.7576Z" fill="#D8B384"/>
<path d="M27.6059 6.61806C26.5952 7.41121 25.6517 7.84578 24.5969 7.89802C23.454 7.95264 22.3091 7.98114 21.168 8.0595C20.7614 8.088 20.3606 8.23048 19.9483 8.3231C19.3749 7.24023 19.4267 6.77004 20.3894 6.51595C21.9754 6.098 23.5901 5.82016 25.2029 5.59932C25.9317 5.49958 26.7007 5.93415 27.6059 6.62044V6.61806Z" fill="#D8B384"/>
<path d="M60.1096 4.1223C59.5938 4.82759 58.9091 5.15292 58.1862 5.17192C57.047 5.20279 55.906 5.11017 54.7668 5.02706C54.5463 5.01044 54.3008 4.84658 54.1263 4.66373C53.5088 4.01781 53.6354 3.21754 54.46 3.01806C55.6068 2.74022 56.7804 2.60724 57.9464 2.48138C58.8113 2.38639 59.4672 2.94682 60.008 3.7281C60.0675 3.81596 60.0713 3.96319 60.1116 4.12467L60.1096 4.1223Z" fill="#D8B384"/>
<path d="M100.57 21.4219C100.752 20.7736 100.931 20.142 101.136 19.4177C100.016 18.5034 98.8173 18.6079 97.6667 19.1232C96.4106 19.686 95.91 21.0491 95.8084 22.6544C94.9493 22.1747 94.7134 21.5478 95.1449 20.7048C95.5303 19.9543 96.0404 19.2823 96.5659 18.6673C97.1911 17.9359 97.8872 17.2971 98.8423 16.9409C98.8308 17.7459 98.2267 17.9097 97.9793 18.4892C99.0628 18.1496 100.062 17.8314 101.111 18.2089C102.233 18.6103 102.568 19.4272 102.085 20.7333C101.778 21.562 101.562 21.6713 100.568 21.4219H100.57Z" fill="#D8B384"/>
<path d="M95.6051 27.855C95.2503 28.2516 94.9224 28.6956 94.5369 29.0376C93.6893 29.788 92.8282 30.5194 91.9403 31.1938C91.6009 31.4527 91.179 31.5999 90.782 31.6688C90.5998 31.6996 90.2738 31.4669 90.2144 31.2651C90.1588 31.0727 90.3429 30.7426 90.4675 30.5123C90.5365 30.384 90.6938 30.3176 90.8185 30.2487C92.3661 29.389 93.9137 28.5365 95.4613 27.6793C95.5092 27.7363 95.5572 27.7956 95.6051 27.8526V27.855Z" fill="#D8B384"/>
<path d="M103.807 29.7144C102.637 29.7097 99.734 27.9524 99.1165 26.9384C100.194 26.6107 102.651 28.026 103.807 29.7144Z" fill="#D8B384"/>
<path d="M137.527 3.30063C136.99 3.10828 136.549 3.01329 136.154 2.79007C135.703 2.53598 135.697 1.83544 136.161 1.59797C136.482 1.43412 136.938 1.34625 137.232 1.51011C137.786 1.81644 137.632 2.49086 137.529 3.30301L137.527 3.30063Z" fill="#D8B384"/>
</svg>
