<svg width="160" height="40" viewBox="0 0 160 40" fill="none" xmlns="http://www.w3.org/2000/svg">
<path d="M26.9521 17.5283C26.9922 16.9108 27.0324 16.3079 27.0765 15.6142C26.6913 15.6904 26.4124 15.7195 26.1576 15.8006C24.5345 16.3176 22.9134 16.8395 21.3023 17.3776C20.9352 17.5008 20.57 17.6629 20.2751 17.8719C20.0604 18.0227 19.9621 18.282 19.7374 18.5964C19.7174 18.5932 19.5248 18.5559 19.3322 18.5186C19.288 18.5575 19.2138 18.5916 19.2038 18.637C17.9418 23.8445 15.5302 28.655 11.5979 32.9339C9.11807 35.6325 5.94811 37.746 2.6036 39.6991C1.76697 40.1869 1.27342 40.0784 0.699617 39.396C0.659491 39.3474 0.62739 39.2939 0.591277 39.2437C-0.345667 37.9762 -0.223282 37.9 1.34966 37.1269C2.89853 36.3668 4.34908 35.4624 5.75751 34.5353C11.7463 30.5919 15.2112 25.3908 17.1975 19.4571C18.0963 16.7698 18.63 14.0615 18.1725 11.2737C18.1203 10.9512 18.2167 10.7551 18.5818 10.6578C19.0272 10.5395 19.1416 10.794 19.2439 11.0646C19.7896 12.5185 19.8498 14.0112 19.7414 15.5105C19.6953 16.149 19.5629 16.7844 19.4485 17.5575C21.826 16.0291 24.5345 15.2139 27.1648 14.2819C27.3353 13.713 27.5018 13.1571 27.6683 12.6028C27.7466 12.6125 27.8248 12.6222 27.9031 12.6319C27.861 13.0679 27.8188 13.5039 27.7626 14.0712C28.6153 13.8378 29.4058 13.6206 30.2224 13.3969C30.3187 12.6595 30.409 11.9642 30.4992 11.2689C30.5213 11.0938 30.5394 10.9171 30.5715 10.7437C30.6216 10.4649 30.8503 10.2931 31.1714 10.3709C31.3539 10.4147 31.5826 10.6286 31.6007 10.7794C31.6649 11.3337 31.6489 11.8945 31.6669 12.4537C31.6709 12.5995 31.687 12.7438 31.707 12.9982C32.1304 12.9237 32.5096 12.8734 32.8747 12.7875C35.8521 12.0874 38.9097 12.0728 41.9713 12.0906C42.0796 12.0906 42.19 12.0987 42.2983 12.1133C43.5001 12.2673 43.9515 12.7746 43.6144 13.7081C43.3075 14.5591 42.834 15.3257 41.9051 15.9011C39.9389 17.1183 37.7721 17.9789 35.3906 18.4992C32.5055 19.1281 29.5804 19.5835 26.607 19.8363C25.5818 19.9239 24.7612 19.3971 24.5987 18.5608C24.5325 18.2172 24.689 17.9741 25.1003 17.8833C25.658 17.7585 26.2278 17.6677 26.9601 17.53L26.9521 17.5283ZM31.1633 16.9838C33.8779 16.4375 36.3737 15.7909 38.5887 14.3548C36.167 13.9156 33.9541 14.1944 31.6448 14.5558C31.4904 15.3322 31.3399 16.0956 31.1653 16.9838H31.1633ZM27.8971 17.3825C28.4929 16.8525 29.0447 17.7666 29.5703 17.1653C29.6626 16.4602 29.7589 15.7244 29.8693 14.8832C29.1169 15.0615 28.509 15.2074 27.8971 15.3516V17.3825Z" fill="white"/>
<path d="M32.016 28.01C30.0237 26.8706 28.0595 25.7474 26.0954 24.6226C27.7907 24.4508 28.9122 25.4929 30.443 25.8884C30.1862 25.031 29.4981 24.2174 30.3688 23.2481C29.3978 23.3308 28.5872 23.394 27.7787 23.4686C27.0203 23.5399 26.2639 23.6193 25.5075 23.702C24.5044 23.8106 24.3399 23.723 23.9667 22.8446C24.3058 22.3875 24.9418 22.3632 25.4814 22.2611C28.1398 21.7603 30.8042 21.2837 33.4746 20.8283C34.9693 20.5738 36.474 20.3453 37.9847 20.1638C39.1745 20.0212 40.2278 19.6808 41.1447 19.0616C41.7626 18.6451 42.5049 18.496 43.2733 18.4538C44.4771 18.389 45.0128 18.8477 44.7199 19.7748C44.5153 20.4199 44.1541 21.0439 43.7689 21.6371C43.4158 22.1784 42.7698 22.347 42.0094 22.334C39.0982 22.287 36.2232 22.6274 33.3401 22.8851C33.1997 22.898 33.0633 22.9402 32.7904 22.9969C33.1074 23.1606 33.3482 23.2643 33.5628 23.3989C34.1928 23.7927 34.885 24.1428 35.4187 24.6096C36.6305 25.668 36.7067 26.9387 35.7658 28.1818C35.4588 28.5854 35.0294 28.741 34.4737 28.6551C34.0504 28.5903 33.6351 28.4881 33.1295 28.3844C32.9268 28.6518 32.7262 28.916 32.4393 29.2969C33.0934 29.1851 33.5789 29.0781 34.0744 29.0262C34.576 28.9728 35.0957 28.9144 35.5912 28.9647C36.4539 29.0522 36.8231 29.4914 36.5422 30.1576C36.2513 30.848 35.8581 31.5174 35.4387 32.1657C35.0355 32.7897 34.5399 33.3732 34.0223 34.0555C35.4508 34.5288 36.8993 34.7363 38.384 34.759C39.028 34.7687 39.6179 34.8595 40.1415 35.1496C40.922 35.5791 40.928 36.0005 40.2157 36.4802C39.652 36.8595 39.012 36.9049 38.3619 36.725C37.1601 36.3927 35.9664 36.0345 34.7827 35.6618C34.2771 35.5029 33.8016 35.2809 33.2137 35.0475C32.9108 35.3716 32.6259 35.7039 32.3089 36.0135C31.7511 36.5548 31.2215 37.1221 30.5935 37.6067C29.7408 38.2647 29.0487 38.2372 28.2241 37.5646C27.9011 37.3004 27.6763 36.9584 27.3935 36.6375C28.1599 35.4494 29.8732 35.0037 30.5193 33.7541C30.2725 33.6406 30.0277 33.5304 29.7749 33.4137C28.9503 33.9081 28.1739 34.3943 27.3734 34.8514C26.5729 35.3068 26.2278 35.2452 25.6921 34.5839C25.5336 34.3878 25.3932 34.1787 25.2708 33.9664C24.9598 33.4315 25.008 33.2371 25.5838 32.8286C25.7704 32.6957 26.0091 32.6098 26.2258 32.5028C26.1716 32.451 26.1174 32.3991 26.0633 32.3472C25.8225 32.3148 25.5818 32.2824 25.2367 32.237C25.3751 32.1463 25.4614 32.0539 25.5075 32.0652C26.5789 32.3197 27.259 31.733 28.0575 31.3424C29.7609 30.5093 30.8965 29.2613 32.012 28.0084L32.016 28.01ZM30.5955 32.8918C31.4061 33.1576 31.6669 33.002 31.9417 32.1057C31.4743 32.378 31.0509 32.626 30.5955 32.8918Z" fill="white"/>
<path d="M68.1575 6C69.4464 7.90667 68.9648 10.0641 69.5327 11.9785C71.189 12.0527 72.7897 12.1116 74.3876 12.2012C74.7857 12.2242 75.1894 12.3086 75.5707 12.4213C78.0121 13.1302 78.7276 14.2358 78.0984 16.5161C77.7783 17.6755 77.28 18.7913 76.8095 20.071C77.7644 20.071 78.6496 20.117 79.5265 20.0582C80.5315 19.9916 81.5448 19.8995 82.5247 19.6922C83.4573 19.4951 84.1977 19.6947 84.9271 20.2987C85.2138 21.4453 84.6042 22.4357 83.9806 23.3724C83.7551 23.7128 83.19 23.9713 82.7362 24.0532C81.0075 24.3654 79.2509 24.8389 77.5194 24.798C73.391 24.7033 69.3907 25.2382 65.3876 26.0878C60.2738 27.1704 55.0792 27.1858 49.8763 26.6714C48.6124 26.546 48.6152 26.5229 48 25.6937C48.9187 25.0693 50.0155 25.2612 51.0204 25.1409C53.0693 24.8978 55.1293 24.7186 57.181 24.5062C57.4232 24.4806 57.6542 24.391 57.8546 24.3399C57.8964 24.1889 57.9688 24.0711 57.9354 24.0276C56.6298 22.3743 57.3174 20.5547 57.4232 18.7888C57.4538 18.282 57.6403 17.7804 57.6459 17.2762C57.6653 15.2569 58.9598 14.1744 60.8417 13.5115C61.404 13.3144 61.9886 13.166 62.5398 13.0022C63.0604 12.388 62.2503 11.0879 63.8092 10.8575C63.7619 11.5204 63.7285 12.0041 63.6811 12.6849C65.048 12.5287 66.2645 12.388 67.4782 12.2498C67.8568 10.123 67.2305 7.9988 68.1519 6H68.1575ZM60.3851 23.915C62.1194 23.3852 63.8426 22.8759 65.5435 22.3155C65.8219 22.2233 66.1114 21.9213 66.2088 21.6577C66.4176 21.0921 66.5735 20.4958 66.6236 19.9021C66.6626 19.4465 66.2951 19.4158 65.9444 19.5693C65.769 20.2322 65.602 20.8643 65.4238 21.5502C64.2101 21.1894 64.2713 20.1452 63.734 19.6128C62.7068 19.467 62.2475 20.0249 61.9079 20.8234C61.2787 19.3211 61.2982 19.2929 63.6477 18.1873C63.5948 17.934 63.5475 17.6652 63.4779 17.4016C63.4028 17.1124 63.3053 16.8258 63.219 16.5417C60.9252 17.0971 61.2954 17.2993 61.0393 18.7939C60.7609 20.4241 60.6162 22.0723 60.3851 23.9201V23.915ZM75.0112 15.8916C73.0765 15.7842 71.3449 15.6895 69.5104 15.5897V17.4963C70.6963 17.591 70.6991 17.5961 71.8488 17.1047C72.503 16.8258 73.1294 16.8693 73.6945 17.266C74.2512 17.655 73.8531 18.0926 73.7223 18.5149C73.6945 18.6019 73.7557 18.712 73.7752 18.8092C73.8392 18.8144 73.9005 18.822 73.9645 18.8272C74.2735 17.9596 74.5825 17.092 75.0112 15.8916ZM65.3514 18.0517C65.9694 17.9493 66.4789 17.8649 66.9967 17.7778C67.0941 17.1611 67.1776 16.6313 67.2945 15.9019C66.4427 15.9838 65.6938 16.058 64.7724 16.1476C64.9895 16.8591 65.1566 17.4016 65.3542 18.0491L65.3514 18.0517ZM69.0761 21.0742C70.5627 20.8899 71.807 20.7057 72.7396 19.5156H69.2961C69.2237 20.0198 69.1624 20.4523 69.0761 21.0742Z" fill="white"/>
<path d="M28.4749 4.85383C27.251 3.65283 26.0633 2.4729 24.8515 1.30917C24.6007 1.06767 24.2376 0.902353 23.9707 0.667338C23.8463 0.557125 23.73 0.335077 23.7882 0.224864C23.8484 0.108167 24.1312 -0.0133923 24.2998 0.00119481C24.6168 0.0271274 24.9739 0.0903381 25.2207 0.239451C26.587 1.06443 27.9533 1.89427 29.2533 2.78571C29.5563 2.99317 29.6064 3.44213 29.7549 3.74521C31.053 3.32543 32.4474 2.88782 33.8277 2.42265C34.4336 2.21843 34.9934 1.97369 35.186 1.36914C35.2502 1.16816 35.6133 0.975288 35.8942 0.884524C36.3276 0.743516 36.8331 0.743516 37.2605 0.596024C38.0409 0.328594 38.5826 0.751619 39.1705 0.985013C39.3491 1.05633 39.4714 1.39669 39.4434 1.59929C39.2628 2.94617 38.8174 4.18607 37.2123 4.92191C36.0587 5.45028 34.8228 5.76634 33.5328 5.99487C32.9068 6.1067 32.2006 6.2234 31.7231 6.53297C29.3276 8.08731 26.5689 8.90418 23.6056 9.40176C19.9742 10.0112 16.3628 10.6919 12.7354 11.3208C11.9149 11.4634 11.9048 11.4213 11.5136 10.6725C12.0071 10.5169 12.4927 10.3483 12.9922 10.2089C16.8062 9.14244 20.6262 8.09055 24.4362 7.01434C25.7563 6.64156 26.8919 5.99487 27.9713 5.2882C28.1338 5.18123 28.2602 5.0386 28.4709 4.85545L28.4749 4.85383Z" fill="white"/>
<path d="M159.121 25.7555C159.366 25.8884 159.661 26.0489 159.966 26.2142C160.125 26.9549 159.695 27.587 159.372 28.2321C159.194 28.5854 158.834 28.7993 158.341 28.7653C157.514 28.7086 156.656 28.7199 155.869 28.5384C153.588 28.01 151.275 27.6599 148.915 27.493C148.155 27.4395 147.392 27.3682 146.632 27.3763C146.307 27.3795 145.986 27.5675 145.569 27.7021C144.624 27.3163 144.182 26.5837 144.126 25.7425C144.026 24.2401 144.521 22.8348 145.497 21.5512C145.994 20.8948 146.748 20.5155 147.643 20.2724C149.617 19.7375 151.634 19.6808 153.674 19.8964C154.501 19.9839 155.329 20.0844 156.14 20.2383C157.272 20.4523 158.108 20.9774 158.495 21.8996C159.005 23.1088 159.041 24.3649 159.121 25.7571V25.7555ZM156.252 25.3309C156.136 24.7571 155.994 24.2141 155.923 23.6663C155.867 23.2287 155.63 23.005 155.105 22.8608C153.385 22.3875 151.624 22.2384 149.83 22.3599C148.849 22.4264 147.966 22.736 147.487 23.4799C146.927 24.3454 146.805 25.2952 146.73 26.1753C148.783 26.0942 150.735 25.9613 152.687 25.9597C153.913 25.9581 155.061 25.8284 156.256 25.3309H156.252Z" fill="white"/>
<path d="M98.519 16.5915C101.151 16.4716 103.579 16.9043 106.013 17.2399C109.098 17.6645 112.168 17.6564 115.233 17.175C115.908 17.0697 116.503 17.1215 117.121 17.3922C117.665 17.6288 117.89 17.9465 117.733 18.3922C117.547 18.9239 117.302 19.4474 117.019 19.9531C116.8 20.3453 116.449 20.4928 115.867 20.2853C115.418 20.1249 114.878 20.0568 114.381 20.0616C110.786 20.0924 107.413 19.2658 104.048 18.3825C102.802 18.0551 101.555 17.7277 100.291 17.4554C99.6024 17.3079 98.8741 17.2755 98.224 17.1993C97.4476 18.1135 96.7534 18.9368 96.0552 19.7553C95.9308 19.8996 95.7944 20.0373 95.652 20.1702C94.8073 20.9579 94.1071 20.885 93.4852 19.9433C92.9675 19.1621 93.0056 18.8266 93.7881 18.2334C95.1484 17.2026 96.3903 16.094 97.3894 14.8152C97.5038 14.6677 97.6362 14.4618 97.8067 14.4262C98.206 14.3435 98.6574 14.2754 99.0366 14.3549C99.167 14.3824 99.2493 14.8865 99.177 15.1393C99.0506 15.5899 98.7878 16.0145 98.515 16.5915H98.519Z" fill="white"/>
<path d="M138.115 14.9464C138.665 15.1701 139.08 15.3467 139.504 15.5104C140.102 15.7406 140.368 16.115 140.312 16.6466C140.17 18.034 139.403 19.1702 138.151 20.0989C137.618 20.4944 137.036 20.8493 136.382 21.2853C136.785 21.4458 137.126 21.5706 137.455 21.7148C138.095 21.9952 138.216 22.2286 138.021 22.791C137.963 22.9596 137.879 23.1233 137.798 23.2886C137.423 24.0617 137.311 24.1006 136.36 23.8299C136.017 23.7327 135.668 23.6452 135.315 23.5755C134.215 23.3583 133.447 22.838 132.953 22.0147C132.516 21.2837 132.512 20.8331 133.196 20.2448C133.842 19.6905 134.578 19.2042 135.27 18.6856C135.772 18.3095 136.264 17.9287 136.855 17.4781C135.744 17.0729 135.034 16.4813 134.648 15.6515C134.406 15.1279 134.438 14.7746 135.004 14.4845C136.659 13.6352 138.274 12.713 140.196 12.2737C140.409 12.2251 140.651 12.2673 140.96 12.2673C140.816 13.0031 140.025 13.2105 139.598 13.6482C139.171 14.0842 138.667 14.4715 138.117 14.948L138.115 14.9464Z" fill="white"/>
<path d="M143.625 13.5007C143.944 13.4051 144.265 13.2835 144.602 13.2122C147.515 12.5914 150.424 11.9561 153.349 11.3758C154.515 11.1457 155.705 11.0355 156.846 11.5655C157.813 12.0144 158.315 12.6238 158.349 13.5461C158.385 14.5267 158.042 15.3986 157.46 16.2269C156.756 17.2285 156.012 17.4522 154.645 17.1005C152.986 16.6726 152.926 16.5769 153.779 15.3581C154.061 14.9529 154.441 14.5915 154.778 14.2106C154.936 14.0291 155.097 13.8492 155.289 13.6271C154.599 13.3192 153.967 13.2916 153.317 13.3581C151.231 13.572 149.146 13.7941 147.059 13.9999C146.197 14.0858 145.328 14.149 144.461 14.1976C143.954 14.2252 143.635 14.0388 143.627 13.4991L143.625 13.5007Z" fill="white"/>
<path d="M151.586 14.1653C151.473 14.4748 151.469 14.6369 151.369 14.7293C149.73 16.2626 148.335 17.9692 146.395 19.2869C145.699 19.7602 144.997 20.2319 144.245 20.6403C143.458 21.0649 142.365 20.6954 142.21 19.9466C142.154 19.6776 142.375 19.3485 142.549 19.0811C142.636 18.9466 142.894 18.8769 143.089 18.7991C145.306 17.9222 147.2 16.6904 148.996 15.3468C149.421 15.0291 149.876 14.726 150.368 14.4797C150.671 14.3273 151.064 14.2933 151.584 14.1636L151.586 14.1653Z" fill="white"/>
<path d="M125.873 23.7181C125.979 24.3697 125.273 24.5188 124.9 24.911C125.1 25.9564 125.498 26.9516 126.641 27.6032C127.069 27.8463 127.109 28.1234 126.998 28.4298C126.828 28.9014 126.695 29.4881 126.009 29.6081C125.301 29.7313 124.924 29.2321 124.591 28.8123C123.742 27.7409 123.343 26.5724 123.471 25.2952C123.576 24.253 124.499 23.6241 125.871 23.7149L125.873 23.7181Z" fill="white"/>
<path d="M107.154 22.5934C108.191 22.5399 108.448 22.6225 108.669 23.2044C109.12 24.3908 109.122 25.5675 108.328 26.6761C108.175 26.8884 107.918 27.0489 107.632 27.3017C106.085 25.7523 106.783 24.1898 107.154 22.5934Z" fill="white"/>
<path d="M23.8744 24.2886C23.3588 24.5512 23.0679 24.7425 22.7368 24.8575C21.5611 25.266 21.515 26.0148 22.0848 26.8073C22.4319 27.2887 22.7007 27.3552 23.3468 27.1477C23.7019 27.0326 24.047 26.8981 24.6508 26.6793C24.3459 27.4702 24.0249 27.9954 23.4711 28.4152C23.0839 28.7085 22.6305 28.7263 22.163 28.527C21.2281 28.1283 20.4657 26.6761 20.7125 25.7603C20.9312 24.9467 21.9945 24.2659 23.1963 24.1817C23.3247 24.1719 23.4571 24.2206 23.8744 24.2886Z" fill="white"/>
<path d="M68 26.2766C67.0668 28.407 66.1386 30.5429 65.1926 32.6679C65.0367 33.0211 64.8219 33.3524 64.5918 33.6591C64.2108 34.1685 63.794 34.0617 63.4207 33.6372C62.8991 33.043 62.8736 32.3639 63.2827 31.7834C64.1392 30.5648 64.9753 29.3298 65.819 28.1003C66.2026 27.5444 66.5554 26.9612 66.9798 26.4436C67.1588 26.2245 67.4835 26.1451 67.7418 26C67.8261 26.0931 67.9131 26.1862 67.9974 26.2793L68 26.2766Z" fill="white"/>
<path d="M35.3846 24.0034C35.7638 24.0034 36.0607 23.9548 36.3195 24.0115C37.2946 24.2255 38.2696 24.4507 39.2246 24.7182C39.9248 24.9143 40.1355 25.3033 39.9168 25.8073C39.7503 26.1898 39.339 26.407 38.8996 26.2336C37.6698 25.7474 36.4178 25.2692 35.5351 24.3713C35.4749 24.3097 35.4688 24.2125 35.3866 24.0034H35.3846Z" fill="white"/>
<path d="M98.224 23.5317C98.0455 24.7571 97.5198 25.6485 96.8838 26.4864C96.5949 26.8689 96.1636 26.8073 95.8546 26.4103C95.4413 25.8754 95.1504 25.1817 95.991 24.4961C96.296 24.2465 96.5749 23.9531 96.938 23.7797C97.2409 23.6355 97.6502 23.6338 98.224 23.5317Z" fill="white"/>
<path d="M133.533 26.0586C135.262 25.6323 136.721 26.5821 136.408 27.8155C136.251 28.4314 135.758 28.5805 135.162 28.1851C135.024 28.0927 134.883 27.9873 134.795 27.8642C134.382 27.2904 133.984 26.7069 133.535 26.0586H133.533Z" fill="white"/>
<path d="M76.92 32C74.724 31.143 74.0689 29.5079 73.38 27.9054C73.1862 27.451 73.0786 26.9613 73.0017 26.4798C72.9801 26.341 73.1708 26.1043 73.3277 26.0363C73.4845 25.971 73.8321 25.9955 73.9182 26.0962C75.3822 27.8183 77.4397 29.312 76.9169 31.9973L76.92 32Z" fill="white"/>
<path d="M129.067 25.6663C129.209 25.6031 129.276 25.5496 129.336 25.5529C130.477 25.6177 131.677 27.0553 131.294 27.89C131.111 28.2888 130.538 28.399 130.17 28.0051C129.749 27.5529 129.482 26.9986 129.207 26.4702C129.087 26.2368 129.113 25.9548 129.067 25.6679V25.6663Z" fill="white"/>
</svg>
