<svg width="104" height="26" viewBox="0 0 104 26" fill="none" xmlns="http://www.w3.org/2000/svg">
<path d="M17.5189 11.3934C17.5449 10.992 17.571 10.6001 17.5997 10.1492C17.3493 10.1987 17.168 10.2177 17.0024 10.2704C15.9474 10.6065 14.8937 10.9457 13.8465 11.2954C13.6079 11.3755 13.3705 11.4809 13.1788 11.6168C13.0393 11.7147 12.9754 11.8833 12.8293 12.0877C12.8163 12.0856 12.6911 12.0614 12.5659 12.0371C12.5372 12.0624 12.4889 12.0845 12.4824 12.114C11.6622 15.499 10.0946 18.6258 7.5386 21.4071C5.92673 23.1612 3.86626 24.535 1.69233 25.8044C1.14852 26.1215 0.827713 26.051 0.454741 25.6074C0.428659 25.5758 0.407794 25.5411 0.38432 25.5084C-0.224693 24.6846 -0.145143 24.635 0.877269 24.1325C1.88403 23.6384 2.82689 23.0506 3.74237 22.4479C7.6351 19.8847 9.88728 16.504 11.1783 12.6471C11.7626 10.9004 12.1095 9.13996 11.8121 7.32792C11.7782 7.11827 11.8408 6.99079 12.0782 6.92758C12.3677 6.85068 12.442 7.01608 12.5085 7.19201C12.8632 8.13702 12.9023 9.1073 12.8319 10.0818C12.8019 10.4969 12.7159 10.9099 12.6415 11.4124C14.1869 10.4189 15.9474 9.88901 17.6571 9.28324C17.7679 8.91346 17.8762 8.5521 17.9844 8.1918C18.0353 8.19812 18.0861 8.20444 18.137 8.21076C18.1096 8.49416 18.0822 8.77755 18.0457 9.14628C18.5999 8.99458 19.1138 8.85341 19.6445 8.70802C19.7071 8.22867 19.7658 7.77671 19.8245 7.32476C19.8388 7.21098 19.8506 7.09614 19.8714 6.98342C19.904 6.80221 20.0527 6.69054 20.2614 6.74111C20.38 6.76956 20.5287 6.90862 20.5404 7.0066C20.5822 7.3669 20.5717 7.73141 20.5835 8.09487C20.5861 8.18969 20.5965 8.28345 20.6096 8.44886C20.8847 8.40039 21.1312 8.36774 21.3685 8.3119C23.3038 7.85678 25.2913 7.8473 27.2813 7.85889C27.3517 7.85889 27.4235 7.86416 27.4939 7.87364C28.275 7.97372 28.5685 8.30347 28.3494 8.91029C28.1498 9.46339 27.8421 9.9617 27.2383 10.3357C25.9603 11.1269 24.5518 11.6863 23.0039 12.0245C21.1286 12.4332 19.2272 12.7293 17.2945 12.8936C16.6282 12.9505 16.0948 12.6081 15.9891 12.0645C15.9461 11.8412 16.0478 11.6831 16.3152 11.6241C16.6777 11.543 17.0481 11.484 17.5241 11.3945L17.5189 11.3934ZM20.2561 11.0394C22.0206 10.6844 23.6429 10.2641 25.0826 9.33065C23.5086 9.04514 22.0702 9.22635 20.5691 9.46128C20.4687 9.96591 20.3709 10.4621 20.2575 11.0394H20.2561ZM18.1331 11.2986C18.5204 10.9541 18.879 11.5483 19.2207 11.1574C19.2807 10.6992 19.3433 10.2209 19.415 9.67409C18.926 9.78998 18.5308 9.88479 18.1331 9.97856V11.2986Z" fill="#D8B384"/>
<path d="M20.8104 18.2065C19.5154 17.4659 18.2387 16.7358 16.962 16.0047C18.064 15.893 18.793 16.5704 19.788 16.8275C19.6211 16.2702 19.1738 15.7413 19.7397 15.1113C19.1086 15.165 18.5817 15.2061 18.0562 15.2546C17.5632 15.3009 17.0716 15.3526 16.5799 15.4063C15.9279 15.4769 15.8209 15.42 15.5784 14.849C15.7988 14.5519 16.2122 14.5361 16.563 14.4697C18.2909 14.1442 20.0227 13.8344 21.7585 13.5384C22.73 13.373 23.7081 13.2245 24.6901 13.1065C25.4634 13.0138 26.1481 12.7925 26.744 12.3901C27.1457 12.1193 27.6282 12.0224 28.1277 11.995C28.9102 11.9529 29.2583 12.251 29.068 12.8536C28.9349 13.2729 28.7002 13.6785 28.4498 14.0641C28.2203 14.416 27.8004 14.5256 27.3061 14.5171C25.4139 14.4866 23.5451 14.7078 21.6711 14.8753C21.5798 14.8837 21.4911 14.9111 21.3138 14.948C21.5198 15.0544 21.6763 15.1218 21.8159 15.2093C22.2254 15.4653 22.6753 15.6928 23.0222 15.9963C23.8098 16.6842 23.8594 17.5102 23.2478 18.3182C23.0482 18.5805 22.7692 18.6817 22.4079 18.6258C22.1328 18.5837 21.8628 18.5173 21.5342 18.4499C21.4025 18.6237 21.2721 18.7954 21.0856 19.043C21.5107 18.9703 21.8263 18.9008 22.1484 18.8671C22.4744 18.8323 22.8122 18.7944 23.1343 18.827C23.6951 18.8839 23.935 19.1694 23.7524 19.6024C23.5634 20.0512 23.3078 20.4863 23.0352 20.9077C22.7731 21.3133 22.451 21.6926 22.1145 22.1361C23.043 22.4438 23.9846 22.5786 24.9496 22.5934C25.3682 22.5997 25.7516 22.6587 26.092 22.8473C26.5993 23.1264 26.6032 23.4003 26.1403 23.7122C25.7738 23.9587 25.3578 23.9882 24.9353 23.8713C24.1541 23.6553 23.3782 23.4225 22.6088 23.1802C22.2801 23.0769 21.9711 22.9326 21.589 22.7809C21.392 22.9916 21.2069 23.2076 21.0008 23.4088C20.6383 23.7607 20.294 24.1294 19.8858 24.4444C19.3316 24.8721 18.8816 24.8542 18.3457 24.417C18.1357 24.2453 17.9896 24.023 17.8058 23.8144C18.3039 23.0422 19.4176 22.7524 19.8376 21.9402C19.6771 21.8664 19.518 21.7948 19.3537 21.7189C18.8177 22.0403 18.3131 22.3563 17.7927 22.6534C17.2724 22.9494 17.0481 22.9094 16.6999 22.4796C16.5969 22.3521 16.5056 22.2162 16.426 22.0782C16.2239 21.7305 16.2552 21.6041 16.6295 21.3386C16.7508 21.2522 16.9059 21.1964 17.0468 21.1269C17.0116 21.0932 16.9764 21.0594 16.9412 21.0257C16.7847 21.0047 16.6282 20.9836 16.4039 20.9541C16.4938 20.8951 16.5499 20.835 16.5799 20.8424C17.2763 21.0078 17.7184 20.6264 18.2374 20.3726C19.3446 19.831 20.0827 19.0198 20.8078 18.2055L20.8104 18.2065ZM19.8871 21.3797C20.414 21.5525 20.5835 21.4513 20.7622 20.8688C20.4583 21.0457 20.1831 21.2069 19.8871 21.3797Z" fill="#D8B384"/>
<path d="M44.3023 3.89999C45.1401 5.13933 44.8271 6.54169 45.1962 7.78602C46.2728 7.83426 47.3133 7.87253 48.3519 7.93075C48.6107 7.94572 48.873 8.00062 49.1209 8.07381C50.7078 8.53461 51.1729 9.25326 50.7639 10.7355C50.5558 11.4891 50.232 12.2144 49.9261 13.0461C50.5468 13.0461 51.1222 13.0761 51.6922 13.0378C52.3454 12.9946 53.0041 12.9347 53.641 12.7999C54.2472 12.6718 54.7285 12.8016 55.2026 13.1942C55.3889 13.9395 54.9927 14.5832 54.5873 15.1921C54.4408 15.4134 54.0734 15.5814 53.7785 15.6346C52.6548 15.8376 51.5131 16.1453 50.3876 16.1187C47.7041 16.0571 45.1039 16.4048 42.5019 16.9571C39.1779 17.6608 35.8014 17.6708 32.4195 17.3364C31.598 17.2549 31.5998 17.2399 31.2 16.7009C31.7971 16.295 32.51 16.4198 33.1632 16.3416C34.495 16.1836 35.834 16.0671 37.1676 15.929C37.325 15.9124 37.4752 15.8542 37.6055 15.8209C37.6326 15.7228 37.6797 15.6462 37.6579 15.618C36.8093 14.5433 37.2562 13.3605 37.325 12.2127C37.3449 11.8833 37.4661 11.5573 37.4698 11.2295C37.4824 9.91702 38.3238 9.21334 39.547 8.78248C39.9125 8.65439 40.2925 8.5579 40.6508 8.45144C40.9892 8.05219 40.4626 7.20711 41.4759 7.05739C41.4452 7.48825 41.4235 7.80266 41.3927 8.24516C42.2811 8.14368 43.0719 8.05219 43.8608 7.96236C44.1069 6.57996 43.6998 5.19922 44.2987 3.89999H44.3023ZM39.2503 15.5448C40.3776 15.2004 41.4976 14.8694 42.6032 14.5051C42.7842 14.4452 42.9724 14.2489 43.0357 14.0775C43.1714 13.7099 43.2727 13.3223 43.3053 12.9363C43.3306 12.6402 43.0918 12.6203 42.8638 12.7201C42.7498 13.1509 42.6412 13.5618 42.5254 14.0077C41.7365 13.7731 41.7763 13.0944 41.4271 12.7484C40.7594 12.6535 40.4608 13.0162 40.2401 13.5352C39.8311 12.5587 39.8438 12.5404 41.371 11.8218C41.3366 11.6571 41.3058 11.4824 41.2606 11.3111C41.2117 11.1231 41.1484 10.9368 41.0923 10.7521C39.6013 11.1131 39.842 11.2445 39.6755 12.216C39.4946 13.2757 39.4005 14.347 39.2503 15.5481V15.5448ZM48.7572 10.3296C47.4996 10.2597 46.3742 10.1982 45.1817 10.1333V11.3726C45.9526 11.4342 45.9544 11.4375 46.7017 11.1181C47.1269 10.9368 47.534 10.965 47.9014 11.2229C48.2632 11.4758 48.0045 11.7602 47.9194 12.0347C47.9013 12.0913 47.9412 12.1628 47.9538 12.226C47.9954 12.2293 48.0353 12.2343 48.0769 12.2377C48.2777 11.6737 48.4786 11.1098 48.7572 10.3296ZM42.4784 11.7336C42.8801 11.6671 43.2112 11.6122 43.5478 11.5556C43.6111 11.1547 43.6654 10.8103 43.7414 10.3362C43.1877 10.3895 42.7009 10.4377 42.102 10.4959C42.2431 10.9584 42.3517 11.3111 42.4802 11.7319L42.4784 11.7336ZM44.8994 13.6982C45.8657 13.5785 46.6745 13.4587 47.2807 12.6851H45.0424C44.9953 13.0129 44.9555 13.294 44.8994 13.6982Z" fill="#D8B384"/>
<path d="M18.5087 3.155C17.7132 2.37434 16.9412 1.60738 16.1535 0.850962C15.9905 0.693989 15.7545 0.58653 15.581 0.433771C15.5002 0.362132 15.4245 0.2178 15.4624 0.146161C15.5015 0.0703085 15.6854 -0.00870499 15.7949 0.000776629C16.0009 0.0176328 16.2331 0.0587199 16.3935 0.155643C17.2816 0.691882 18.1697 1.23128 19.0147 1.81071C19.2116 1.94556 19.2442 2.23739 19.3407 2.43439C20.1845 2.16153 21.0908 1.87708 21.9881 1.57473C22.3819 1.44198 22.7457 1.2829 22.8709 0.889942C22.9127 0.759306 23.1487 0.633938 23.3313 0.574942C23.613 0.483286 23.9416 0.483286 24.2194 0.387416C24.7267 0.213586 25.0788 0.488553 25.4609 0.640259C25.5769 0.686614 25.6565 0.907852 25.6382 1.03954C25.5209 1.91501 25.2313 2.72095 24.1881 3.19924C23.4382 3.54269 22.6349 3.74812 21.7964 3.89667C21.3895 3.96936 20.9304 4.04522 20.6201 4.24644C19.063 5.25676 17.2698 5.78773 15.3437 6.11116C12.9833 6.50728 10.6359 6.94975 8.27808 7.35852C7.74471 7.45122 7.73819 7.42383 7.48389 6.93711C7.80469 6.83597 8.12029 6.72641 8.44501 6.63581C10.9241 5.94259 13.4071 5.25886 15.8836 4.55933C16.7417 4.31702 17.4798 3.89667 18.1814 3.43734C18.287 3.36781 18.3692 3.2751 18.5061 3.15605L18.5087 3.155Z" fill="#D8B384"/>
<path d="M103.429 16.7411C103.588 16.8275 103.78 16.9318 103.978 17.0393C104.081 17.5207 103.802 17.9316 103.592 18.3509C103.476 18.5806 103.242 18.7196 102.922 18.6975C102.384 18.6606 101.826 18.668 101.315 18.55C99.8322 18.2066 98.3286 17.979 96.795 17.8705C96.3007 17.8357 95.8052 17.7894 95.3109 17.7946C95.0997 17.7967 94.891 17.9189 94.6198 18.0064C94.0055 17.7557 93.7186 17.2795 93.6821 16.7327C93.6169 15.7561 93.939 14.8427 94.5728 14.0083C94.8962 13.5816 95.3866 13.3351 95.9682 13.1771C97.2514 12.8294 98.562 12.7925 99.8883 12.9327C100.426 12.9896 100.964 13.0549 101.491 13.155C102.227 13.294 102.77 13.6354 103.022 14.2348C103.353 15.0207 103.377 15.8372 103.429 16.7422V16.7411ZM101.564 16.4651C101.488 16.0922 101.396 15.7392 101.35 15.3831C101.314 15.0987 101.16 14.9533 100.818 14.8595C99.7005 14.5519 98.5555 14.455 97.3897 14.534C96.752 14.5772 96.1781 14.7784 95.8665 15.262C95.5026 15.8246 95.4231 16.4419 95.3748 17.014C96.7089 16.9613 97.9778 16.8749 99.2467 16.8739C100.043 16.8728 100.789 16.7885 101.567 16.4651H101.564Z" fill="#D8B384"/>
<path d="M64.0374 10.7845C65.7484 10.7066 67.3263 10.9879 68.9082 11.2059C70.9139 11.482 72.9092 11.4767 74.9018 11.1638C75.34 11.0953 75.7273 11.129 76.129 11.305C76.4824 11.4588 76.6285 11.6653 76.5267 11.955C76.4055 12.3005 76.2464 12.6408 76.0625 12.9695C75.9203 13.2245 75.6921 13.3203 75.3139 13.1855C75.0218 13.0812 74.671 13.0369 74.3476 13.0401C72.0107 13.0601 69.8185 12.5228 67.6315 11.9487C66.8217 11.7359 66.0105 11.523 65.1889 11.3461C64.7416 11.2502 64.2682 11.2291 63.8457 11.1796C63.341 11.7738 62.8898 12.309 62.436 12.841C62.3551 12.9348 62.2664 13.0243 62.1739 13.1107C61.6248 13.6227 61.1697 13.5753 60.7654 12.9632C60.429 12.4554 60.4537 12.2373 60.9623 11.8517C61.8465 11.1817 62.6538 10.4611 63.3032 9.62988C63.3775 9.53401 63.4636 9.40022 63.5745 9.37704C63.834 9.32331 64.1274 9.27906 64.3739 9.33068C64.4586 9.34859 64.5121 9.67624 64.4652 9.84059C64.383 10.1335 64.2122 10.4095 64.0348 10.7845H64.0374Z" fill="#D8B384"/>
<path d="M89.775 9.71518C90.1323 9.86057 90.4022 9.9754 90.6774 10.0818C91.066 10.2314 91.2395 10.4748 91.2029 10.8203C91.1104 11.7221 90.6122 12.4606 89.7984 13.0643C89.4515 13.3214 89.0734 13.5521 88.6482 13.8355C88.9103 13.9398 89.132 14.0209 89.3459 14.1147C89.7619 14.2969 89.8402 14.4486 89.7137 14.8142C89.6759 14.9238 89.6211 15.0302 89.5689 15.1376C89.3251 15.6401 89.252 15.6654 88.6339 15.4895C88.4109 15.4263 88.184 15.3694 87.9544 15.3241C87.2398 15.1829 86.7403 14.8447 86.4195 14.3096C86.1352 13.8344 86.1326 13.5415 86.5773 13.1591C86.9972 12.7988 87.4758 12.4828 87.9257 12.1456C88.2518 11.9012 88.5713 11.6536 88.956 11.3608C88.2335 11.0974 87.7719 10.7129 87.5215 10.1735C87.3637 9.83317 87.3845 9.60351 87.7523 9.41493C88.8282 8.86289 89.878 8.26344 91.1273 7.97794C91.2655 7.94633 91.4233 7.97372 91.6242 7.97372C91.5303 8.45202 91.0165 8.58687 90.7387 8.87132C90.4609 9.15471 90.1336 9.4065 89.7763 9.71623L89.775 9.71518Z" fill="#D8B384"/>
<path d="M93.356 8.77547C93.5633 8.71331 93.772 8.63429 93.9911 8.58794C95.8846 8.18444 97.7755 7.77147 99.6769 7.39431C100.435 7.24471 101.208 7.17307 101.95 7.51757C102.579 7.80939 102.905 8.20552 102.927 8.80496C102.95 9.44234 102.727 10.0091 102.349 10.5475C101.891 11.1985 101.407 11.3439 100.519 11.1153C99.4409 10.8372 99.4017 10.775 99.956 9.98279C100.14 9.71941 100.386 9.48448 100.605 9.2369C100.708 9.11891 100.813 9.00197 100.938 8.85764C100.489 8.65747 100.079 8.63956 99.6561 8.68276C98.2998 8.82182 96.9448 8.96615 95.5886 9.09995C95.0278 9.15578 94.4631 9.19687 93.8998 9.22848C93.5698 9.24639 93.3625 9.12523 93.3573 8.77441L93.356 8.77547Z" fill="#D8B384"/>
<path d="M98.5307 9.20741C98.4577 9.40863 98.4551 9.51399 98.3899 9.57404C97.3245 10.5707 96.4181 11.68 95.1571 12.5365C94.7045 12.8441 94.2481 13.1507 93.7591 13.4162C93.2478 13.6922 92.5371 13.452 92.4367 12.9653C92.4002 12.7904 92.5436 12.5766 92.6571 12.4027C92.7132 12.3153 92.8814 12.27 93.0079 12.2194C94.4489 11.6495 95.68 10.8488 96.8472 9.97543C97.1236 9.76894 97.4197 9.57193 97.7392 9.41179C97.9361 9.31276 98.1917 9.29064 98.5294 9.20636L98.5307 9.20741Z" fill="#D8B384"/>
<path d="M81.8173 15.4168C81.8864 15.8403 81.4274 15.9372 81.1848 16.1922C81.3152 16.8717 81.5734 17.5186 82.3168 17.9421C82.5945 18.1001 82.6206 18.2802 82.5489 18.4794C82.438 18.7859 82.352 19.1673 81.906 19.2453C81.4456 19.3253 81.2005 19.0008 80.984 18.728C80.4323 18.0316 80.1728 17.272 80.2563 16.4419C80.3241 15.7645 80.924 15.3557 81.816 15.4147L81.8173 15.4168Z" fill="#D8B384"/>
<path d="M69.6503 14.6857C70.3245 14.6509 70.4914 14.7046 70.6349 15.0829C70.9283 15.854 70.9296 16.6189 70.4132 17.3395C70.3141 17.4775 70.1471 17.5818 69.9606 17.7461C68.9552 16.739 69.409 15.7234 69.6503 14.6857Z" fill="#D8B384"/>
<path d="M15.5184 15.7876C15.1832 15.9583 14.9941 16.0826 14.7789 16.1574C14.0147 16.4229 13.9848 16.9096 14.3551 17.4248C14.5807 17.7377 14.7555 17.7809 15.1754 17.646C15.4062 17.5712 15.6305 17.4838 16.0231 17.3416C15.8248 17.8557 15.6162 18.197 15.2562 18.4699C15.0046 18.6606 14.7098 18.6721 14.406 18.5426C13.7983 18.2834 13.3027 17.3394 13.4631 16.7442C13.6053 16.2153 14.2964 15.7729 15.0776 15.7181C15.161 15.7118 15.2471 15.7434 15.5184 15.7876Z" fill="#D8B384"/>
<path d="M44.2 17.0798C43.5933 18.4646 42.9901 19.8529 42.3752 21.2341C42.2738 21.4637 42.1342 21.6791 41.9846 21.8785C41.737 22.2095 41.4661 22.1401 41.2234 21.8642C40.8844 21.478 40.8678 21.0366 41.1337 20.6592C41.6904 19.8672 42.2339 19.0644 42.7823 18.2652C43.0316 17.9039 43.261 17.5248 43.5368 17.1884C43.6532 17.046 43.8642 16.9944 44.0321 16.9C44.0869 16.9605 44.1434 17.0211 44.1983 17.0816L44.2 17.0798Z" fill="#D8B384"/>
<path d="M23 15.6022C23.2465 15.6022 23.4395 15.5706 23.6077 15.6075C24.2415 15.7465 24.8753 15.893 25.496 16.0668C25.9512 16.1943 26.0881 16.4471 25.946 16.7748C25.8377 17.0234 25.5704 17.1646 25.2848 17.0518C24.4854 16.7358 23.6716 16.425 23.0978 15.8414C23.0587 15.8013 23.0548 15.7381 23.0013 15.6022H23Z" fill="#D8B384"/>
<path d="M63.8456 15.2957C63.7295 16.0921 63.3878 16.6715 62.9744 17.2162C62.7866 17.4648 62.5063 17.4248 62.3054 17.1667C62.0368 16.819 61.8477 16.3681 62.3941 15.9225C62.5923 15.7603 62.7736 15.5696 63.0096 15.4568C63.2065 15.3631 63.4726 15.362 63.8456 15.2957Z" fill="#D8B384"/>
<path d="M86.7964 16.9381C87.9205 16.6611 88.8686 17.2784 88.6652 18.0801C88.5634 18.4805 88.2426 18.5774 87.8553 18.3203C87.7653 18.2603 87.674 18.1918 87.6167 18.1118C87.348 17.7388 87.0898 17.3595 86.7977 16.9381H86.7964Z" fill="#D8B384"/>
<path d="M49.9979 20.8C48.5706 20.243 48.1447 19.1801 47.6969 18.1385C47.571 17.8432 47.501 17.5249 47.451 17.2119C47.437 17.1217 47.561 16.9678 47.663 16.9236C47.7649 16.8812 47.9908 16.8971 48.0468 16.9625C48.9984 18.0819 50.3358 19.0528 49.9959 20.7983L49.9979 20.8Z" fill="#D8B384"/>
<path d="M83.8936 16.6832C83.9861 16.6421 84.0292 16.6073 84.0683 16.6094C84.8103 16.6515 85.5902 17.586 85.3411 18.1286C85.2224 18.3877 84.8495 18.4594 84.6108 18.2034C84.3369 17.9094 84.1635 17.5491 83.9848 17.2057C83.9066 17.054 83.9235 16.8707 83.8936 16.6842V16.6832Z" fill="#D8B384"/>
</svg>
