<svg width="160" height="40" viewBox="0 0 160 40" fill="none" xmlns="http://www.w3.org/2000/svg">
<path d="M78.3941 36.6398C78.6421 36.5639 78.888 36.4512 79.1401 36.4194C80.6405 36.221 82.1513 36.0936 83.6434 35.8316C84.4165 35.6969 85.1833 35.3956 85.9127 35.0528C86.8817 34.5972 87.3839 33.6788 87.3922 32.4469C87.4173 29.0696 87.5381 25.6825 87.4006 22.3125C87.2422 18.4233 86.8609 14.544 86.542 10.6646C86.4503 9.56492 86.267 8.47017 86.069 7.38766C85.8418 6.14842 85.4918 5.82758 84.4081 5.89371C83.6559 5.94024 82.9036 6.07494 82.1617 6.23169C78.417 7.01295 74.7077 6.63579 71.0047 5.83983C70.5233 5.73697 70.0336 5.67574 69.546 5.61941C69.4063 5.60472 69.2605 5.67574 69.0583 5.72227V8.88652C69.5126 8.80325 69.9377 8.68814 70.367 8.6514C71.9862 8.50935 73.6053 8.35996 75.2266 8.27669C77.6064 8.15668 79.9862 8.1077 82.3659 7.99994C84.2789 7.91422 84.5894 8.41629 83.808 10.4246C83.7142 10.6646 83.5996 10.8948 83.4391 11.2524C83.8455 11.1813 84.1852 11.0907 84.529 11.0711C85.3626 11.0197 85.7335 11.5536 85.5063 12.4916C85.3355 13.1945 85.0896 13.7774 84.3352 13.9023C81.4949 14.3725 78.6817 15.1072 75.783 14.9456C73.6554 14.828 71.5798 14.4337 69.5564 13.6304C68.6666 13.2778 67.9706 12.5969 67.3329 11.8548C66.9057 11.3577 66.6786 10.6891 66.7286 9.91269C66.8286 8.36486 66.8786 6.81212 66.9536 5.25939C67.0203 3.8732 67.3558 3.32215 68.5061 3.02581C69.1959 2.84702 69.944 2.70742 70.6317 2.82253C74.5702 3.47644 78.4691 3.22418 82.3639 2.38414C83.0661 2.2323 83.7892 2.15148 84.504 2.13923C86.2753 2.10739 87.7882 3.24623 88.3133 5.24715C88.8114 7.1452 89.1781 9.10449 89.4469 11.0687C90.2784 17.1302 90.5576 23.2383 90.3493 29.3733C90.3013 30.7889 90.2451 32.2142 90.0575 33.6127C89.6012 37.0292 87.659 38.6652 84.9291 39.3167C83.8184 39.5812 82.7452 39.5273 81.7054 39.0154C80.5342 38.4374 79.3735 37.83 78.3399 36.9606C78.3607 36.8553 78.3816 36.7475 78.4024 36.6422L78.3941 36.6398ZM82.9849 11.2499C82.7827 11.1421 82.7181 11.0834 82.6514 11.076C79.6069 10.7993 76.5644 10.5152 73.5178 10.2629C72.4634 10.1772 71.4048 10.1454 70.3483 10.1478C69.523 10.1478 68.8229 10.7552 68.602 11.5438C71.0672 13.5961 78.5316 13.3904 82.9828 11.2475L82.9849 11.2499Z" fill="#D8B384"/>
<path d="M154.712 10.0034C153.584 9.42781 152.39 9.40087 151.19 9.47925C149.231 9.6066 147.272 9.77559 145.311 9.85151C144.572 9.8809 143.823 9.70701 142.99 9.61395C142.8 10.0572 142.559 10.6279 142.292 11.2573C141.462 10.8752 141.142 10.1846 141.046 9.38373C140.839 7.66936 140.766 5.94763 141.06 4.22346C141.317 2.72461 141.863 2.00458 143.165 1.91396C144.061 1.85028 144.98 1.9311 145.872 2.09029C147.52 2.38419 149.1 2.2103 150.673 1.56863C151.886 1.07391 153.128 0.684507 154.364 0.268159C154.724 0.145704 155.101 0.0648834 155.474 0.0207995C156.858 -0.140841 157.681 0.642872 157.667 2.25928C157.646 4.37041 157.998 6.40072 158.409 8.43103C158.732 10.0278 159.1 11.6149 159.342 13.2264C159.55 14.6175 159.673 16.0379 159.717 17.4511C159.832 21.2668 159.892 25.0825 159.955 28.9007C159.982 30.5342 160.057 32.1776 159.921 33.7964C159.834 34.825 159.492 35.8684 159.094 36.8039C158.502 38.1926 157.502 38.4864 156.339 37.7003C155.539 37.159 154.697 36.6496 154.016 35.5745C154.743 35.4838 155.331 35.4079 155.916 35.3393C156.941 35.2169 157.317 34.8789 157.467 33.6372C157.59 32.6331 157.629 31.6045 157.598 30.5905C157.473 26.5079 157.327 22.4277 157.146 18.3475C157.089 17.0739 156.9 15.8102 156.756 14.3848C155.608 14.206 154.533 13.9097 153.455 13.9023C151.417 13.8901 149.379 14.0542 147.341 14.1252C146.433 14.157 145.524 14.1423 144.617 14.1301C144.394 14.1276 144.165 14.0689 143.951 13.9954C142.517 13.5129 142.148 12.1439 143.08 10.6916C143.148 10.7993 143.236 10.8924 143.271 11.005C143.603 12.0214 143.69 12.1169 144.572 11.9479C145.578 11.7545 146.583 11.5389 147.574 11.2646C149.825 10.6426 152.099 10.2458 154.407 10.1209C154.512 10.116 154.612 10.045 154.716 10.0058L154.712 10.0034ZM154.622 4.20142C153.811 4.40715 153.109 4.5492 152.426 4.76472C150.079 5.5019 147.741 5.57292 145.395 4.77941C144.89 4.60797 144.365 4.49776 143.844 4.41205C143.159 4.30184 142.948 4.51001 142.923 5.32066C142.898 6.11907 142.902 6.91748 142.921 7.71589C142.942 8.6441 143.123 8.88411 143.938 8.9037C144.538 8.9184 145.145 8.85227 145.739 8.75186C148.012 8.36245 150.279 7.91672 152.555 7.5469C153.359 7.4171 154.185 7.44159 155.072 7.39261C154.922 6.3248 154.789 5.38189 154.624 4.20387L154.622 4.20142Z" fill="#D8B384"/>
<path d="M16.6677 19.8365C16.8532 17.8038 17.0261 15.9229 17.2012 13.9881C16.1134 13.9881 15.1402 13.9734 14.1692 13.9905C12.7646 14.0175 11.3726 13.9342 10.016 13.4517C9.80761 13.3783 9.56171 13.3415 9.35333 13.393C8.89904 13.5032 8.73233 13.1872 8.6073 12.7905C8.46768 12.3496 8.59271 11.9284 8.93447 11.7741C9.48878 11.5218 10.0785 11.3504 10.6662 11.2181C12.6333 10.7798 14.6026 10.3659 16.5739 9.9642C17.4638 9.78297 17.8868 9.31519 17.9847 8.14942C18.116 6.61873 18.5015 5.11008 18.8391 3.61367C18.9954 2.92303 19.5476 2.50178 19.9998 2.54341C20.502 2.58995 20.9272 3.17039 21.0793 4.11329C20.7459 4.04472 20.4458 3.98349 20.0332 3.90022C19.9227 5.4701 19.8164 6.99589 19.6956 8.71271C20.3395 8.43841 20.8355 8.25718 21.3043 8.00982C21.4877 7.9143 21.7107 7.68899 21.7461 7.48081C21.8857 6.67751 22.3609 6.4277 22.9568 6.30034C23.4736 6.19013 23.9904 6.06278 24.5031 5.92563C25.3075 5.71256 25.8597 6.35667 26.4557 6.77547C26.6411 6.90527 26.7161 7.40979 26.7057 7.73552C26.6515 9.2809 26.1285 10.6671 25.4116 11.9112C25.1824 12.3104 24.5969 12.526 24.1426 12.6337C22.663 12.984 21.1668 13.246 19.5268 13.5742C19.4955 16.18 19.183 18.7957 19.3497 21.5338C20.3499 21.355 21.2356 21.1713 22.1295 21.044C22.6526 20.968 23.1882 20.9093 23.7091 20.9631C24.426 21.0391 24.7781 21.5534 24.7198 22.271C24.6552 23.0571 24.1884 23.5029 23.4528 23.422C22.8527 23.3559 22.2587 23.1747 21.6565 23.1453C21.0584 23.1159 20.4541 23.2114 19.8873 23.2482C19.4101 23.8874 19.2996 24.507 19.3976 25.3446C19.5935 27.0075 19.5893 28.7048 19.6789 30.3873C19.7435 31.5923 19.3622 32.6503 18.8891 33.6666C18.514 34.4724 18.2473 34.5508 17.6409 33.9556C16.8053 33.1327 16.2509 32.0698 16.278 30.7424C16.3364 27.7692 16.4427 24.7984 16.5198 21.8252C16.5281 21.4652 16.4697 21.1027 16.4218 20.4684C15.8112 20.9166 15.3674 21.1542 15.0131 21.5142C11.8769 24.698 8.29055 26.9341 4.41455 28.5848C4.06446 28.7341 3.73729 28.9693 3.41012 29.1848C2.26816 29.9367 2.07436 29.8509 1.1783 28.7097C0.684419 28.0802 0.390593 27.1986 0.115522 26.3806C-0.169969 25.5307 0.078012 24.9797 0.811535 24.7495C1.5013 24.5339 2.22023 24.3013 2.9225 24.3184C4.85425 24.3649 6.69014 23.8359 8.45935 23.062C10.4036 22.2122 12.2874 21.1738 14.1942 20.2039C14.961 19.8121 15.7154 19.3761 16.6677 19.8414V19.8365Z" fill="#D8B384"/>
<path d="M35.4976 26.7086C32.9032 27.0613 30.3983 27.4017 27.6643 27.774C27.8164 27.6467 27.7414 27.6809 27.7018 27.7471C26.9891 28.952 26.514 28.8981 25.8013 27.6614C25.1074 26.4564 25.099 25.1608 25.2595 23.8212C25.4075 22.5917 25.7367 21.3671 25.718 20.1475C25.7034 19.0895 26.0951 18.2274 26.2764 17.2722C26.4556 16.322 26.687 15.3791 26.9641 14.4607C27.4059 12.9912 27.5789 12.9226 28.9542 13.1504C29.2772 13.2043 29.6273 13.1039 29.9586 13.0255C33.6992 12.1463 37.4356 11.2474 41.1782 10.3805C41.5721 10.2898 42.0159 10.258 42.3973 10.3756C43.2225 10.6327 43.4538 11.0687 43.2787 12.0483C43.1558 12.7365 42.9974 13.459 42.6911 14.0492C41.3428 16.6281 40.8031 19.4128 40.851 22.4227C40.8781 24.0857 40.4072 25.6555 39.7382 27.1225C39.5444 27.5487 39.3152 27.9748 39.0276 28.3153C37.8211 29.7431 36.9042 29.6084 35.9206 27.8769C35.7185 27.5193 35.6268 27.0736 35.4976 26.7086ZM37.4898 20.7475C37.0834 22.7044 36.7729 23.1403 35.2538 23.3093C34.0222 23.4464 32.7594 23.4979 31.532 23.3387C30.3192 23.1819 29.1334 22.7166 27.8769 22.3713C27.3142 23.6399 28.2749 24.7298 28.1999 26.1258C29.9128 25.6506 31.509 25.2931 33.0594 24.7518C34.4806 24.2571 35.8706 23.7305 37.3981 24.2204C37.8107 22.7264 37.5752 21.3402 37.5752 19.9712C35.2829 19.6626 28.7375 19.9883 27.8727 20.5026C29.3147 21.159 30.7234 21.3843 32.1467 21.2349C33.3053 21.1149 34.4473 20.7892 35.5934 20.5296C36.2248 20.3875 36.8479 20.2136 37.4898 20.7475ZM28.5791 15.0068C28.427 16.0501 28.2874 17.0224 28.1519 17.9555C28.3582 18.0511 28.4291 18.1196 28.4937 18.1098C31.4549 17.7131 34.4181 17.3237 37.3751 16.8877C37.6127 16.8534 37.9065 16.5498 38.0149 16.2828C38.2004 15.8322 38.2587 15.313 38.4129 14.6444C35.0829 14.7668 31.9196 14.8819 28.5812 15.0044L28.5791 15.0068Z" fill="#D8B384"/>
<path d="M65.3344 5.11247C65.4157 7.53708 65.672 9.78536 64.8384 11.9651C64.28 13.4247 63.4443 14.3334 62.0565 14.5366C60.2643 14.7987 58.4785 15.1293 56.6051 15.4452C56.5717 21.2129 55.7569 26.7503 54.3066 32.2314C53.5397 32.0012 53.3084 31.4991 53.3188 30.8305C53.3334 29.8558 53.3334 28.8712 53.4376 27.9063C53.8252 24.3379 54.1128 20.7574 53.9773 17.1596C53.8877 14.7644 53.6189 12.3912 52.8478 10.1307C52.6103 9.43514 52.3936 8.71021 52.2873 7.97547C52.0893 6.60398 52.5936 5.72964 53.6897 5.38677C54.9901 4.98022 56.2987 4.90919 57.6178 4.85286C59.6163 4.76715 61.6168 4.67653 63.6173 4.67163C64.1862 4.67163 64.7551 4.95573 65.3344 5.11247ZM61.1688 10.7454C60.8812 10.8115 60.5978 10.8997 60.3081 10.9389C59.3349 11.0711 58.3618 11.2303 57.3844 11.294C56.901 11.3234 56.6613 11.5585 56.4946 12.1463C58.1013 11.8304 59.66 11.5634 61.2021 11.1985C61.8543 11.0442 62.3211 10.5323 62.3711 9.54535C60.1727 9.44004 58.0429 9.33718 55.7944 9.22942C55.9257 9.62372 56.0237 9.92006 56.1299 10.2433C57.8679 9.66781 59.4892 9.82455 61.1688 10.7454Z" fill="#D8B384"/>
<path d="M69.4564 40C69.3251 38.4424 69.123 36.8848 69.0813 35.3247C69.0167 32.9294 69.0667 30.5293 69.0626 28.1316C69.0605 26.9904 69.1376 25.8368 68.1227 25.0825C67.8393 24.8719 67.6934 24.3625 67.5351 23.9608C67.1391 22.9591 67.2662 22.462 68.0623 21.8252C68.4624 21.5044 68.8813 21.2154 69.273 20.9264C68.9438 20.3925 68.6499 19.9467 68.3832 19.479C68.0852 18.9549 68.1748 18.443 68.5478 18.0462C69.4564 17.0788 70.4796 16.5547 71.8049 17.0152C71.6111 18.1271 70.4442 17.7254 70.142 18.7589C71.0235 18.7589 71.8612 18.7638 72.701 18.7565C73.0032 18.754 73.3074 18.6659 73.6033 18.705C74.3973 18.8055 74.6348 19.261 74.3848 20.1745C74.2576 20.6374 74.0826 21.0831 73.9096 21.5925C75.0724 21.6881 76.2352 20.4953 77.4168 21.715C77.4293 21.8766 77.5064 22.1509 77.4585 22.3885C77.1042 24.1543 76.7333 25.9152 76.3478 27.6712C76.2832 27.9676 76.1477 28.2468 76.0227 28.5186C75.2579 30.1571 73.9867 30.6199 72.5676 29.7628C72.1759 29.5276 71.8133 29.224 71.2381 28.8076C71.4111 32.8168 71.2277 36.5615 69.4585 40H69.4564ZM73.9867 25.6752C73.5054 25.7144 73.0948 25.7487 72.5843 25.7903C73.3887 26.8287 73.5158 26.8165 73.9867 25.6752Z" fill="#D8B384"/>
<path d="M144.705 30.5905C142.873 30.3799 141.223 30.1839 139.572 30.0051C138.672 29.9072 138.61 29.8655 138.333 28.81C139.179 27.9871 140.314 28.5896 141.344 28.0189C140.318 26.5495 140.406 24.84 140.423 23.155C140.437 21.5631 140.481 19.9736 140.512 18.2935C139.737 17.9898 138.918 17.6004 139.037 16.0942C139.485 16.0183 139.954 15.8665 140.421 15.8714C142.273 15.891 144.126 15.9424 145.978 16.0183C147.172 16.0673 147.474 16.6012 147.051 17.9066C146.818 18.6266 146.722 19.5034 145.857 19.6871C145.857 20.052 145.774 20.4365 145.876 20.7328C146.03 21.1786 145.999 21.541 145.914 21.999C145.778 22.7264 145.741 23.5175 146.52 23.9265C145.862 25.2931 146.276 26.5397 146.555 27.8769C146.989 27.845 147.362 27.823 147.735 27.7887C148.648 27.7054 149.563 28.0655 149.61 28.6263C149.688 29.5349 149.271 30.3137 148.696 30.7938C148.285 31.1342 147.656 31.1097 147.112 31.2517C146.926 32.0624 146.783 33.0102 146.491 33.8919C146.187 34.8103 145.67 34.8348 145.172 34.0143C144.818 33.4314 144.547 32.8118 144.692 32.0281C144.77 31.6167 144.705 31.1685 144.705 30.5905ZM142.848 21.0561C142.892 22.048 142.93 22.9272 142.971 23.9191C143.617 23.8138 144.117 23.733 144.667 23.6448V21.3157C144.097 21.2349 143.553 21.1565 142.848 21.0561ZM144.615 25.7976H143.186C143.007 26.5691 142.842 27.2695 142.688 27.9357H144.707C144.676 27.196 144.649 26.547 144.617 25.7976H144.615ZM142.89 19.8291C142.898 19.9663 142.909 20.1059 142.917 20.243C143.3 20.2063 143.682 20.1597 144.065 20.1377C144.763 20.0961 144.765 20.1034 144.993 19.5916C144.242 19.5156 143.532 19.2291 142.89 19.8291Z" fill="#D8B384"/>
<path d="M58.8536 25.3127C57.397 23.0497 57.099 22.6603 59.3788 20.7206C59.1037 20.2014 58.8182 19.6896 58.5535 19.1655C58.2576 18.5801 58.3452 18.0389 58.7911 17.625C59.8643 16.6208 61.0438 15.8224 62.3691 15.384C62.7755 15.2493 63.2798 15.1538 63.5548 15.9473C62.4796 16.2878 61.5981 16.9466 60.7416 18.1172C61.3084 18.1785 61.7002 18.2226 62.094 18.2642C62.5442 18.3107 63.0089 18.2838 63.4402 18.4136C64.4551 18.7197 64.603 19.0822 64.2925 20.2357C64.2488 20.4023 64.1779 20.559 64.1216 20.7157C64.1883 20.7917 64.23 20.8798 64.2842 20.8921C64.7489 20.9925 65.3115 20.8945 65.4199 21.688C65.5241 22.4669 65.0302 23.7698 64.4134 24.0539C63.4673 24.4923 62.4837 24.8131 61.5168 25.1854C60.8583 25.4376 60.1998 25.6899 59.3996 25.9985C59.558 26.841 59.6413 27.5316 59.8268 28.1831C59.9456 28.5945 60.2727 28.766 60.6666 28.5774C61.5564 28.1537 62.4441 27.6345 62.9338 26.6671C63.2631 26.0156 63.6278 25.685 64.2113 25.5503C64.876 25.396 64.9323 25.4033 65.8513 26.0401C65.9721 29.1088 65.5178 32.0796 64.28 34.8544C63.8653 35.7851 63.3506 35.861 62.7901 35.0308C62.1461 34.0781 61.646 33.0201 62.1045 31.7171C62.1878 31.4796 62.2316 31.2224 62.3274 30.8404C60.9729 31.122 59.7143 31.2934 58.887 29.6746C58.1409 28.2149 58.3514 26.7944 58.8495 25.3176L58.8536 25.3127Z" fill="#D8B384"/>
<path d="M106.854 15.4771C107.372 14.7007 107.889 13.9243 108.481 13.0402C108.635 14.015 108.093 14.7619 107.873 15.6902C108.489 15.6534 109.002 15.6142 109.517 15.5946C109.996 15.5775 110.454 15.6485 110.555 16.3392C110.642 16.9465 110.131 17.8968 109.65 17.9752C109.054 18.0731 108.448 18.0927 107.845 18.1466C107.158 18.2103 106.818 18.5948 106.618 19.6528C106.985 19.5548 107.302 19.4863 107.61 19.3859C108.41 19.1214 109.198 18.7932 110.009 18.585C110.873 18.3646 111.244 18.8789 111.007 19.8561C110.746 20.919 110.525 21.1125 109.569 21.1957C108.712 21.2717 107.86 21.377 106.756 21.497C107.085 21.8423 107.208 22.0799 107.366 22.1191C108.031 22.288 108.71 22.3713 109.375 22.5403C110.063 22.7166 110.771 22.8758 111.351 23.6106C110.663 24.3477 109.959 24.5437 109.158 24.1053C108.55 23.7722 107.96 23.3901 107.202 22.9346C107.285 23.5885 107.347 24.049 107.4 24.5118C107.52 25.5821 107.562 26.6426 107.062 27.6197C106.681 28.3667 106.18 28.5382 105.689 27.9112C105.189 27.2744 104.826 26.476 104.449 25.7192C104.263 25.3494 104.18 24.911 104.011 24.3771C103.561 24.8425 103.19 25.2539 102.792 25.6311C102.379 26.0205 101.963 26.4074 101.515 26.7356C100.6 27.4091 100.127 27.2303 99.635 26.0866C99.2349 25.1584 99.3078 24.8425 100.098 24.4433C101.123 23.9289 101.998 23.1893 102.788 22.2048C102.444 21.9893 102.129 21.7909 101.563 21.4358C103.151 20.9239 104.463 20.5026 105.739 20.0912C105.864 19.4054 105.966 18.8495 106.087 18.1809C105.018 18.1809 103.969 18.1589 102.919 18.1882C102.013 18.2127 102.013 18.2397 101.721 16.9147C102.373 16.7408 103.019 16.5375 103.674 16.4053C104.342 16.2706 105.024 16.2265 105.695 16.1041C106.13 16.0257 106.624 16.0404 106.864 15.455L106.849 15.4722L106.854 15.4771Z" fill="#D8B384"/>
<path d="M111.298 15.869C111.669 15.0412 112.322 14.9089 112.938 14.7889C114.466 14.495 116.004 14.2771 117.533 13.993C119.1 13.7015 120.663 13.3881 122.222 13.0452C123.391 12.788 123.833 13.3121 123.479 14.6028C123.156 15.7784 122.926 15.9963 121.835 16.0037C118.848 16.0233 115.86 16.0257 112.874 16.0404C112.807 16.0404 112.743 16.1066 112.628 16.1702C112.972 16.8952 113.314 17.6152 113.678 18.3818C115.079 18.2814 116.466 18.1834 117.856 18.083C119.703 17.9483 121.549 17.7842 123.395 17.6911C124.446 17.6397 124.827 18.2912 124.531 19.4667C123.948 21.7787 123.91 21.7542 121.868 21.5313C119.321 21.2546 116.769 21.0831 114.241 20.8676C114.024 21.9599 113.835 22.9861 113.614 24.0025C113.539 24.3429 113.405 24.6735 113.257 24.9797C112.884 25.7536 112.518 25.8981 111.98 25.5234C111.417 25.1315 111.33 24.7176 111.765 23.9755C112.313 23.04 112.751 22.0799 112.693 20.9044C112.68 20.6399 112.716 20.3386 112.62 20.1182C112.393 19.5941 112.399 19.092 112.392 18.5067C112.384 17.527 112.019 16.5694 111.298 15.8714V15.869Z" fill="#D8B384"/>
<path d="M133.317 8.29144C133.625 10.236 133.956 12.0876 134.204 13.9562C134.652 17.3433 134.542 20.7598 134.404 24.1641C134.369 25.0654 134.094 25.974 133.821 26.8312C133.602 27.5194 133.256 27.5488 132.773 27.0736C132.098 26.4099 131.96 25.4156 132.137 24.3429C132.439 22.5256 132.7 20.6864 132.819 18.8446C133.023 15.7073 132.898 12.5676 132.491 9.44987C132.423 8.92821 132.387 8.36002 133.315 8.29144H133.317Z" fill="#D8B384"/>
<path d="M106.866 15.46C105.935 15.6976 105.595 15.531 105.211 14.6567C104.74 13.584 104.899 12.8517 105.985 11.588C105.038 11.588 104.232 11.588 103.426 11.588C102.594 11.588 101.763 11.6125 100.931 11.5708C100.371 11.5439 99.8705 11.3504 99.9455 10.4075C100.912 9.90787 101.973 9.86624 103.003 9.73644C105.136 9.46948 107.279 9.26866 109.421 9.09477C110.015 9.04579 110.636 9.10702 111.217 9.26376C111.863 9.43764 112.04 9.92991 111.846 10.6891C111.771 10.9855 111.655 11.2671 111.54 11.5463C111.186 12.4035 111.136 12.3472 110.325 12.1586C109.333 11.9284 108.312 11.7153 107.312 11.7692C106.803 11.7961 106.268 12.3594 105.845 12.8125C105.691 12.9766 105.73 13.584 105.864 13.8779C106.122 14.4559 106.508 14.9555 106.845 15.482C106.849 15.4796 106.864 15.4624 106.864 15.4624L106.866 15.46Z" fill="#D8B384"/>
<path d="M134.834 11.5316C135.28 10.1797 136.578 10.4638 137.103 9.38621C135.899 8.867 134.675 9.09967 133.477 8.37473C134.534 7.47836 135.621 7.88246 136.67 7.6547C136.705 7.45877 136.759 7.25794 136.772 7.05467C136.784 6.83915 136.757 6.61873 136.749 6.41545C135.594 5.90359 135.317 5.90849 134.021 6.47913C133.663 5.89869 133.886 5.4701 134.329 5.19824C135.455 4.5076 136.655 4.43657 137.847 4.87251C138.147 4.98272 138.487 5.41622 138.57 5.77623C138.862 7.05467 139.129 8.35514 139.247 9.66786C139.308 10.3291 139.081 11.0516 138.889 11.7104C138.539 12.9203 137.63 13.2387 136.563 12.7537C135.949 12.4745 135.415 11.9504 134.836 11.5292L134.834 11.5316Z" fill="#D8B384"/>
<path d="M105.751 6.42519C105.751 5.78108 106.233 5.37452 106.956 5.40881C107.479 5.4333 107.693 5.69781 107.689 6.31498C107.685 7.21625 107.17 8.19834 106.712 8.17875C106.266 8.15916 105.749 7.21625 105.751 6.42519Z" fill="#D8B384"/>
<path d="M118.64 22.0235C118.988 23.5248 119.294 24.8743 119.615 26.2188C119.778 26.9021 119.788 26.8972 119.438 27.6393C118.579 27.0075 118.486 26.3756 118.638 22.0235H118.64Z" fill="#D8B384"/>
</svg>
