<svg width="40" height="40" viewBox="0 0 40 40" fill="none" xmlns="http://www.w3.org/2000/svg">
<path fill-rule="evenodd" clip-rule="evenodd" d="M40 19.5499C40 19.5499 38.5177 18.465 38.3829 16.5608C38.2481 14.6566 38.1976 13.6583 37.6586 13.0871C37.1196 12.5158 36.8613 12.3831 36.8613 12.3831C36.8613 12.3831 37.0522 11.5175 36.6311 10.9636C36.21 10.4096 35.4688 10.2942 35.4688 10.2942C35.4688 10.2942 35.5586 9.31904 35.1319 8.80548C34.7108 8.29192 34.3065 8.18228 34.3065 8.18228C34.3065 8.18228 34.1606 8.14189 34.1942 7.89954C34.2223 7.65718 34.1381 7.37444 33.8293 6.99936C33.5205 6.61852 33.4587 6.30115 33.5036 6.07034C33.5429 5.8453 33.5205 5.64333 33.3015 5.62602C33.0825 5.60871 32.7512 5.74143 32.0943 5.31442C31.4374 4.89319 31.1229 4.97975 31.1229 4.97975C31.1229 4.97975 31.0556 5.04322 30.9657 4.92204C30.8759 4.80086 30.5671 4.30462 29.9382 4.02764C29.3037 3.75066 28.8096 3.84299 28.8096 3.84299C28.8096 3.84299 28.7198 3.78528 28.6917 3.62949C28.6693 3.46792 28.4896 3.01206 27.9225 2.75239C27.3498 2.49273 27.0634 2.712 27.0634 2.712C27.0634 2.712 26.8388 2.80433 26.6872 2.59082C26.5356 2.37155 25.699 1.44253 24.5817 1.38482C23.4643 1.33289 22.813 1.43099 21.4879 0.969359C20.1684 0.513502 19.8091 0.0114821 19.8091 0.0114821C19.8091 0.0114821 19.6687 -0.0289103 19.5339 0.0634152C19.4048 0.155741 18.1415 1.33289 16.4907 1.33289C14.8399 1.33289 13.863 1.47715 13.3127 1.92146C12.7681 2.36578 12.7288 2.56774 12.6502 2.64276C12.5716 2.72354 12.4536 2.77548 12.2964 2.68315C12.1392 2.59082 11.3868 2.61391 10.932 3.0813C10.6962 3.32366 10.5783 3.69873 10.5783 3.69873C10.5783 3.69873 10.4885 3.84876 10.2807 3.80837C10.073 3.76797 9.13528 3.99302 8.82647 4.51812C8.51204 5.03745 8.52888 5.10669 8.4222 5.13554C8.31552 5.15863 7.9281 5.07784 7.56313 5.23941C7.19817 5.40098 6.88374 5.61448 6.65353 5.58563C6.41771 5.55678 6.15943 5.52793 6.15943 5.7472C6.15943 5.96647 6.13135 6.41656 5.87307 6.82048C5.61479 7.21864 5.62602 7.31673 5.65409 7.53024C5.68217 7.74374 5.65409 8.06688 5.65409 8.06688C5.65409 8.06688 5.03085 8.34962 4.62658 9.00167C4.22231 9.65949 4.31215 10.0288 4.31215 10.0288C4.31215 10.0288 4.26162 10.2308 4.15494 10.2192C4.04825 10.2077 3.45308 10.4039 3.21726 11.0213C2.98144 11.6387 3.14988 12.0888 3.14988 12.0888C3.14988 12.0888 3.14988 12.1984 3.06005 12.2388C2.97021 12.2792 1.72933 12.8389 1.48228 14.6566C1.39244 15.3375 1.58896 15.5395 1.42052 16.3935C1.25207 17.2475 0.640056 18.6555 0.286322 19.0536C-0.0674118 19.4575 -0.0168784 19.4575 0.0617291 19.5614C0.140337 19.671 1.13978 20.802 1.29699 22.3542C1.34752 22.862 1.19031 24.5354 1.67318 25.3894C2.15606 26.2435 2.35819 26.3358 2.66139 26.6185C2.82984 26.7801 2.72316 26.9532 2.7007 27.0051C2.67262 27.0628 2.53225 27.6745 3.04882 28.3439C3.57099 29.0132 3.82928 28.869 3.82928 28.869C3.82928 28.869 3.78997 29.8961 4.32338 30.5827C4.85679 31.2636 5.15999 31.3329 5.15999 31.3329C5.15999 31.3329 5.30597 31.3444 5.28913 31.506C5.2779 31.6676 5.2386 32.083 5.56426 32.3369C5.88992 32.5908 5.95729 33.0871 5.90115 33.2313C5.85061 33.3756 5.772 33.6179 6.12574 33.6699C6.47386 33.7218 6.65915 33.7103 6.99604 33.9238C7.33854 34.1373 7.52944 34.2988 7.8551 34.27C8.18076 34.2411 8.34921 34.2411 8.41659 34.3912C8.47835 34.5354 9.16897 35.4991 9.9382 35.5106C10.7074 35.5222 10.6176 35.7761 10.6008 35.8857C10.5895 35.9896 10.8085 36.7166 11.4598 36.9417C12.1111 37.1725 12.3189 36.9936 12.3189 36.9936C12.3189 36.9936 12.3863 36.8955 12.5547 36.9474C12.5547 36.9474 13.3464 38.2804 14.7894 38.3785C16.2324 38.4766 17.6474 38.5862 18.4896 39.0825C19.3318 39.5729 19.6912 39.9538 19.6912 39.9538C19.6912 39.9538 19.8203 40.0634 19.9775 39.9307C20.1347 39.798 21.6058 38.6785 23.133 38.54C24.6603 38.4016 25.4407 38.4477 25.8282 38.3323C26.2212 38.2169 26.9006 37.7149 27.1139 37.3167C27.3273 36.9186 27.4284 36.9878 27.6137 37.0571C27.7933 37.1263 28.731 37.1379 29.0511 36.5666C29.1858 36.3935 29.2925 36.18 29.315 36.0357C29.343 35.8915 29.4104 35.8222 29.5676 35.7991C29.7248 35.7761 30.4042 35.7414 30.9657 35.1355C31.3082 34.7374 31.3924 34.5008 31.3924 34.5008C31.3924 34.5008 31.5384 34.3277 31.7293 34.3969C31.9259 34.4662 32.4087 34.3969 32.6951 34.195C32.9871 33.9988 33.3127 33.8545 33.4306 33.843C33.5485 33.8314 33.6103 33.8834 33.6889 33.9007C33.7675 33.9122 33.8967 33.8372 33.9135 33.6468C33.9303 33.4621 33.891 33.2833 33.9584 33.139C34.0258 32.9947 34.3964 32.5562 34.4638 32.2215C34.5311 31.8868 34.4076 31.5002 34.4076 31.5002C34.4076 31.5002 35.2442 31.1078 35.553 30.3519C35.8618 29.596 35.8169 29.019 35.8169 29.019C35.8169 29.019 36.5749 28.869 36.9343 28.1361C37.2936 27.4033 37.1027 27.0051 37.1027 27.0051C37.1027 27.0051 38.2931 26.255 38.5457 24.9624C38.6973 24.1777 38.4952 23.6353 38.6468 22.787C38.804 21.933 38.9388 21.1713 39.4834 20.3635C40.028 19.5556 40 19.5556 40 19.5556" fill="#DB3D0B"/>
</svg>
