<svg width="128" height="24" viewBox="0 0 128 24" fill="none" xmlns="http://www.w3.org/2000/svg">
<ellipse cx="74.8452" cy="12" rx="1.34021" ry="1.36014" fill="white"/>
<path fill-rule="evenodd" clip-rule="evenodd" d="M81.5478 13.2189L80.6642 13.4506C80.9172 14.3111 81.0797 15.1963 81.149 16.0915L82.0873 15.8598C81.9894 14.9643 81.8087 14.0801 81.5478 13.2189Z" fill="white"/>
<path fill-rule="evenodd" clip-rule="evenodd" d="M84.8584 15.8376C85.0867 15.1853 85.3275 14.1981 85.5699 13.357L84.5738 13.0951C84.4478 13.9391 84.2622 14.7729 84.0186 15.59L84.8584 15.8376Z" fill="white"/>
<path fill-rule="evenodd" clip-rule="evenodd" d="M90.0551 8.975H88.6476C88.5185 8.4335 88.3307 7.90815 88.0878 7.40854H87.5326L86.9821 7.56725C87.174 8.02658 87.34 8.49658 87.4794 8.975H85.4699V10.0336H93.2046V8.975H91.2233C91.4203 8.58457 91.6596 8.04972 91.8597 7.61486L91.1545 7.40854H90.6165C90.47 7.94477 90.2823 8.46853 90.0551 8.975Z" fill="white"/>
<path fill-rule="evenodd" clip-rule="evenodd" d="M90.6165 7.46433H91.1541L90.6508 7.26298C90.6415 7.31711 90.6305 7.39072 90.6165 7.46433Z" fill="white"/>
<path fill-rule="evenodd" clip-rule="evenodd" d="M88.0124 7.27265L87.531 7.46101H88.0858C88.0608 7.39606 88.0436 7.33327 88.0124 7.27265Z" fill="white"/>
<path fill-rule="evenodd" clip-rule="evenodd" d="M83.9102 16.3992C84.4985 16.2845 85.0983 16.1675 85.6982 16.0407L85.7967 17.1787C83.9592 17.5786 82.0091 17.9849 80.5422 18.2896L80.2717 17.0565C80.8988 16.9549 81.6682 16.8232 82.508 16.6644V12.5586H80.4437V11.3985H82.508V10.078H81.1412V9.59237L81.1274 9.60542C80.9199 9.80208 80.7253 9.98657 80.5156 10.1574C80.3764 9.68255 80.2012 9.21933 79.9918 8.77184C81.1899 7.84254 82.1678 6.65274 82.8536 5.28976L83.8638 5.73891C83.7637 5.94206 83.6652 6.13092 83.5651 6.31979C84.5191 6.88479 85.4308 7.55296 85.9719 8.10368L85.3166 9.19242L85.1602 9.03371V10.078H83.6652V11.3985H85.6012V12.5586H83.6652V16.447C83.7466 16.4311 83.8283 16.4152 83.9102 16.3992ZM82.9787 7.30062C82.61 7.87382 82.2008 8.4191 81.7542 8.93215H85.0571C84.4155 8.32424 83.7197 7.77806 82.9787 7.30062Z" fill="white"/>
<path fill-rule="evenodd" clip-rule="evenodd" d="M88.0128 7.26887C88.0378 7.31172 88.0612 7.35933 88.0863 7.40695H90.6166C90.6306 7.35298 90.6431 7.30379 90.651 7.25935L91.1545 7.40695H92.9326V6.36423H90.1177C89.9402 5.98054 89.7255 5.61581 89.4765 5.27548L88.338 5.56592C88.4663 5.81192 88.6227 6.08807 88.765 6.35947H85.8547V7.40377H87.5311L88.0128 7.26887Z" fill="white"/>
<path fill-rule="evenodd" clip-rule="evenodd" d="M92.2773 17.2009C92.2351 17.3755 92.1631 17.477 92.0928 17.5056C91.9945 17.5499 91.8874 17.57 91.78 17.5643H91.339C91.2434 17.5706 91.1484 17.5449 91.0685 17.4913C91.0122 17.4485 90.9965 17.3168 90.9965 17.1136V14.8917H92.5791V10.6875H86.2253V14.8948H87.4497C87.2934 16.4899 86.7945 17.231 84.602 17.6802C84.8981 17.9853 85.1347 18.3445 85.2995 18.7388C87.8485 18.0865 88.5038 16.9835 88.6883 14.8948H89.7642V17.0279C89.7642 17.8548 89.8502 18.1166 90.0911 18.3198C90.3319 18.5229 90.7166 18.6245 91.0294 18.6245H91.8832C92.1494 18.6284 92.4141 18.5843 92.6651 18.4944C92.8953 18.4052 93.0769 18.2204 93.164 17.9865C93.2641 17.7548 93.3204 17.1596 93.3626 16.5788C92.9798 16.4583 92.6224 16.2667 92.3086 16.0137C92.3199 16.4097 92.3094 16.8061 92.2773 17.2009ZM87.3496 11.5572H91.4156V12.3508H87.3496V11.5572ZM87.3496 13.1824V14.0235H91.4156V13.1824H87.3496Z" fill="white"/>
<path fill-rule="evenodd" clip-rule="evenodd" d="M99.9808 14.1838L99.0972 14.6774C99.5397 15.3929 99.9226 16.1447 100.242 16.9247L101.168 16.3597C100.845 15.5958 100.447 14.8669 99.9808 14.1838V14.1838Z" fill="white"/>
<path fill-rule="evenodd" clip-rule="evenodd" d="M94.412 16.8962C94.7312 17.0842 95.036 17.2964 95.3237 17.531C95.9187 16.6224 96.4018 15.6433 96.7624 14.6155L95.7225 14.2981C95.4284 15.2309 94.9857 16.1086 94.412 16.8962H94.412Z" fill="white"/>
<path fill-rule="evenodd" clip-rule="evenodd" d="M103.057 9.03688V7.11333L107.215 6.30391L106.175 5.31674L101.818 6.14044V10.6335C101.818 13.2379 101.718 16.1296 100.594 17.8119C100.966 18.0261 101.306 18.2933 101.604 18.6055C102.871 16.7628 103.057 13.422 103.057 11.3334V10.2843" fill="white"/>
<rect x="94.7263" y="6.34836" width="6.26473" height="1.11731" fill="white"/>
<path fill-rule="evenodd" clip-rule="evenodd" d="M117.694 15.736H118.861L118.87 16.7073H117.702V18.2738H116.506V16.7073H111.345V15.736H112.639V12.1095H111.67V11.1366H118.648V12.1095H117.694V15.736ZM113.807 15.736H116.498V15.0536H113.807V15.736ZM116.498 14.241H113.807V13.5744H116.498V14.241ZM113.807 12.7761H116.498V12.1095H113.807V12.7761Z" fill="white"/>
<path fill-rule="evenodd" clip-rule="evenodd" d="M115.714 5.34375V9.97171H119.801V17.2168C119.801 17.4056 119.744 17.4628 119.558 17.4787C119.372 17.4945 118.789 17.4929 118.234 17.4644C118.419 17.8397 118.549 18.2408 118.618 18.6547C119.516 18.6547 120.142 18.6261 120.569 18.423C120.967 18.2198 121.096 17.8865 121.096 17.2184V5.34375H115.714ZM119.801 9.02897H116.975V8.11481H119.79L119.801 9.02897ZM116.975 7.20062H119.801L119.79 6.27218H116.975V7.20062Z" fill="white"/>
<path fill-rule="evenodd" clip-rule="evenodd" d="M114.618 5.34375H109.336V18.6753H110.632V9.97171H114.62L114.618 5.34375ZM113.378 9.02738H110.631V8.11481H113.378V9.02738ZM110.631 7.19904H113.378V6.27218H110.631V7.19904Z" fill="white"/>
<path fill-rule="evenodd" clip-rule="evenodd" d="M96.5075 7.3768L95.4738 7.73866L96.2134 9.33368L97.2737 8.9512L96.5075 7.3768Z" fill="white"/>
<path fill-rule="evenodd" clip-rule="evenodd" d="M101.219 9.19083V10.3224H98.5984V11.6873H101.019V12.8348H98.5984V18.5816H97.3176V12.8348H94.584V11.6873H97.3176V10.3224H94.498V9.19083H101.219Z" fill="white"/>
<path fill-rule="evenodd" clip-rule="evenodd" d="M99.2051 7.31967L98.1714 9.394L99.3083 9.42257L100.314 7.70533L99.2051 7.31967Z" fill="white"/>
<path fill-rule="evenodd" clip-rule="evenodd" d="M97.3755 6.34836C97.2332 6.0722 97.0768 5.79764 96.9485 5.55481L98.087 5.26437C98.336 5.6047 98.5507 5.96943 98.7282 6.35312L97.3755 6.34836Z" fill="white"/>
<rect x="102.458" y="9.01627" width="5.0121" height="1.24111" fill="white"/>
<rect x="104.686" y="9.90027" width="1.33082" height="8.70837" fill="white"/>
<path fill-rule="evenodd" clip-rule="evenodd" d="M0 0V9.28766H1.75775V1.78072H126.244V9.28766H128V0H0Z" fill="white"/>
<path fill-rule="evenodd" clip-rule="evenodd" d="M126.244 22.2193H1.75775V14.7123H0V24H128V14.7123H126.244V22.2193Z" fill="white"/>
<path fill-rule="evenodd" clip-rule="evenodd" d="M30.7685 6.53088H25.1872V17.4707H27.5329V8.84486C27.5329 8.84486 28.4806 8.80519 29.9632 8.80519C31.527 8.80519 32.2948 9.86854 32.2948 11.4715V17.4707H34.6406V10.87C34.6578 8.32271 33.3176 6.55786 30.7685 6.53088Z" fill="white"/>
<path fill-rule="evenodd" clip-rule="evenodd" d="M37.0222 8.05923C38.0304 6.97684 39.295 6.43564 40.8161 6.43564C42.4222 6.43564 43.6826 6.93716 44.5912 7.96083C45.4998 8.98451 45.9549 10.3066 45.9549 11.9714C45.9557 12.2196 45.9427 12.4675 45.9158 12.7142H37.9136C37.9233 13.4914 38.27 14.2247 38.8613 14.7187C39.4554 15.2333 40.2134 15.5113 40.9944 15.5011C42.3174 15.5011 43.2666 14.9393 43.839 13.8362L45.5389 14.979C44.6491 16.6438 42.9304 17.5659 41.0335 17.5659C39.4728 17.5659 38.1294 17.0422 37.0817 15.9788C36.0339 14.9155 35.5006 13.576 35.5006 11.9889C35.474 10.526 36.0214 9.11233 37.0222 8.05923ZM40.8161 8.48142C39.4126 8.44439 38.2105 9.49415 38.0372 10.9081H43.5622C43.484 9.40352 42.3174 8.48142 40.8161 8.48142Z" fill="white"/>
<path fill-rule="evenodd" clip-rule="evenodd" d="M59.5728 6.53088L57.3599 14.2362H57.3193L54.9094 6.53088H52.5386L50.1475 14.2156H50.1288L47.9159 6.53088H45.4451L48.8245 17.4596H51.2344L53.6849 9.84473H53.724L56.1542 17.4596H58.6048L61.9826 6.53088H59.5728Z" fill="white"/>
<path fill-rule="evenodd" clip-rule="evenodd" d="M66.1877 10.8478C64.8241 10.5478 64.2314 10.186 64.2314 9.48446C64.2314 8.90359 64.982 8.44174 65.7139 8.44174C66.721 8.44174 67.4529 8.91787 67.9267 9.886L69.747 8.84169C69.0167 7.23714 67.6922 6.43566 65.7952 6.43566C64.821 6.41521 63.8705 6.74144 63.1086 7.35776C62.3721 7.91216 61.9451 8.79367 61.9623 9.72411C61.9507 10.447 62.2191 11.1457 62.7098 11.6699C63.2821 12.292 64.172 12.7126 65.337 12.9538C66.7789 13.2538 67.5108 13.7363 67.5108 14.3568C67.5108 15.079 66.7398 15.5392 65.8515 15.5392C64.7256 15.5392 63.8952 14.9583 63.3228 13.814L61.4853 14.8568C62.2954 16.6407 63.7575 17.5437 65.8515 17.5437C67.0369 17.5437 68.0049 17.2438 68.7368 16.6216C69.4534 16.0373 69.862 15.1483 69.8424 14.2156C69.8424 12.5523 68.5789 11.389 66.1877 10.8478Z" fill="white"/>
<path fill-rule="evenodd" clip-rule="evenodd" d="M19.2712 6.52136C17.7073 6.52136 16.683 7.08319 15.5962 8.28621C14.944 7.10382 13.8572 6.52136 12.3356 6.52136H6.90436V17.4723H9.25011V11.5144C9.25011 9.89076 10.1399 8.78773 11.5615 8.78773C13.1253 8.78773 13.8337 9.85108 13.8337 11.454V17.4691H16.1701V11.4953C16.1701 9.87171 17.0599 8.78773 18.5018 8.78773C20.0656 8.78773 20.7537 9.80982 20.7537 11.435V17.4659H23.0994V10.8525C23.1041 8.28621 21.8202 6.52136 19.2712 6.52136Z" fill="white"/>
</svg>
