<svg width="80" height="24" viewBox="0 0 80 24" fill="none" xmlns="http://www.w3.org/2000/svg">
<path fill-rule="evenodd" clip-rule="evenodd" d="M32.4371 10.4695C32.4371 10.7152 32.6458 11.8406 32.8138 12.0249C32.9818 12.2092 32.9614 12.1892 33.1277 12.1079C33.2957 12.0249 33.4824 12.1693 33.5876 12.3536C33.6928 12.5378 33.7352 12.5993 33.7352 12.5993C33.7352 12.5993 33.7284 12.5993 33.7267 12.6026C33.8184 12.7536 33.91 12.9246 33.9287 13.0508C33.966 13.1404 33.9999 13.23 34.0288 13.2964C34.1119 13.4807 34.677 13.8492 35.0537 13.4807C35.4304 13.1122 35.242 12.4781 34.8857 12.3137C34.531 12.1511 33.7556 12.0481 33.7556 12.0481C33.7556 12.0481 34.4683 11.7427 35.1368 11.6199C35.8071 11.4954 36.6233 11.5784 36.7064 10.9028C36.7896 10.2288 36.4146 10.2072 35.8699 10.2471C35.3252 10.2886 33.8404 10.7998 33.7352 10.677C33.63 10.5542 33.6928 9.98147 33.9456 9.98147C34.1985 9.98147 34.699 10.0429 35.1792 10.0014C35.6611 9.96155 36.8744 9.98147 36.7692 9.42703C36.664 8.87426 36.2466 8.97718 35.8274 9.0386C35.4083 9.09836 34.1747 9.30419 34.0474 9.16144C33.9219 9.01868 34.0695 8.85434 34.341 8.85434C34.6125 8.85434 36.5808 8.83442 36.8727 8.5074C37.1646 8.18039 36.9558 7.85171 36.6844 7.70895C36.4129 7.56619 36.328 7.64753 36.2024 7.66911C36.0769 7.68903 34.6753 7.91313 34.3189 7.87329C33.9643 7.83179 34.1509 7.77037 34.2562 7.60769C34.3614 7.44336 35.0927 6.19505 35.0927 6.19505C35.0927 6.19505 36.496 7.60769 37.3326 7.50644C38.1691 7.40352 38.5679 7.13792 38.5679 7.13792C38.5679 7.13792 39.0073 6.35939 38.0877 5.97095C37.1663 5.58252 35.8495 5.7452 35.5984 5.62402C35.3472 5.50118 35.3676 5.4796 35.3676 5.4796C35.3676 5.4796 35.7443 4.86541 36.0786 4.70107C36.4146 4.53839 36.5808 4.31263 36.3297 3.94412C36.0786 3.5756 36.121 3.16559 35.3472 3.20708C34.5718 3.24692 34.0916 3.2685 34.0491 3.43284C34.0084 3.59718 34.0288 3.5756 34.0916 3.75986C34.1543 3.94412 34.1968 4.57989 33.966 5.15092C33.7352 5.72528 32.4388 8.48914 31.0779 9.55319C29.7188 10.6172 28.5462 11.1086 28.5462 11.1086C28.5462 11.1086 28.1067 11.4157 28.3579 11.7643C28.609 12.1129 29.1113 12.1942 29.5711 11.99C30.031 11.7842 31.6226 10.7417 31.9773 10.4961C32.3336 10.2504 32.4388 10.2305 32.4388 10.4761M38.1097 15.6769C38.0062 15.8611 38.1318 16.5982 38.7172 16.9451C39.3026 17.2937 39.8897 17.4364 39.9525 17.0878C40.0153 16.7409 39.8049 16.4537 40.0356 16.1466C40.2664 15.8395 40.6838 15.3482 40.6838 15.3482C40.6838 15.3482 39.7845 15.7997 39.3874 15.818C38.9887 15.8379 38.2149 15.4909 38.1097 15.6752M39.0311 8.14055C39.6165 8.44764 40.2444 8.42606 40.5379 8.26339C40.8315 8.09905 41.6052 7.64919 42.4214 7.46494C43.2376 7.28068 44.2218 7.17776 44.4509 7.05492C44.6816 6.93208 44.9531 6.97358 45.0787 6.89058C45.2043 6.80924 45.4147 6.50215 44.9107 6.21497C44.4084 5.92945 44.2405 5.64228 43.9265 5.76512C43.6126 5.88795 42.9644 6.11371 42.5046 6.27639C42.0447 6.44073 40.6007 6.76774 40.4327 6.70632C40.2664 6.64657 40.3903 6.48223 40.6431 5.99087C40.8943 5.49952 40.9774 5.00816 41.3337 5.27376C41.6901 5.53936 43.0068 5.82653 43.5091 5.49952C44.0114 5.1725 44.3474 4.92682 44.0742 4.49689C43.8027 4.06529 43.4667 3.9242 43.112 4.04703C42.7557 4.16987 41.6477 4.14829 41.6477 4.14829C41.6477 4.14829 41.4593 4.16821 41.4169 3.98562C41.3762 3.7997 40.7907 3.08425 40.2868 3.18717C39.7845 3.28842 39.8473 3.45276 39.8049 3.78144C39.7641 4.10845 39.3026 5.58252 39.0532 6.46397C38.802 7.34376 38.4457 7.83511 39.0328 8.14221M41.9836 15.2668C41.9836 15.2668 42.6318 16.3707 42.883 16.9235C43.1341 17.4763 43.7823 17.722 44.1386 17.5377C44.4933 17.3551 44.8717 16.7193 44.3694 16.0836C43.8655 15.4494 41.9836 15.2652 41.9836 15.2652M45.9577 14.1397C45.8338 13.8525 45.2263 13.6284 44.8496 13.6284C44.4729 13.6284 43.7823 13.6484 43.7823 13.6484C43.7823 13.6484 44.2642 12.9927 44.4526 11.7029C44.6409 10.4131 44.7241 9.65611 44.7037 9.18468C44.6833 8.7149 44.2218 8.03929 43.7619 8.05921C43.3004 8.07913 42.8609 8.16213 42.8609 8.16213C42.8609 8.16213 42.2755 8.07913 41.8564 8.28497C41.4389 8.4908 40.8111 8.7149 40.3513 8.7149C39.8914 8.7149 39.3467 8.53064 39.2212 8.89916C39.0956 9.26767 39.2008 9.32909 39.2415 9.41209C39.2839 9.49343 39.4926 10.169 39.4519 10.6405C39.4095 11.1103 39.5571 12.7487 39.7862 13.1786C40.017 13.6085 40.017 13.567 40.3088 13.6284C40.6024 13.6899 41.5645 13.7712 41.8988 13.6085C42.2348 13.4442 42.5266 13.2599 42.715 13.4442C42.9033 13.6284 42.9661 13.6899 43.1545 13.7297C43.3411 13.7712 43.3411 13.7911 43.3411 13.7911C43.3411 13.7911 41.0385 13.9339 40.1392 14.2211C39.2381 14.5082 39.177 14.4867 39.0515 14.4468C38.9259 14.4053 38.8631 14.3041 38.8207 14.0783C38.7783 13.8525 38.7155 11.8058 38.6527 11.4373C38.5899 11.0688 38.2336 10.843 37.8993 10.7417C37.565 10.6388 37.3342 10.5973 37.3122 10.9044C37.2918 11.2115 37.2918 13.0541 37.5005 13.6085C37.7109 14.1613 37.7313 14.2028 37.7313 14.2028C37.7313 14.2028 37.5005 14.3057 37.2494 14.2642C36.9983 14.2227 36.3704 14.1414 36.3297 14.0584C36.2873 13.977 36.686 13.4857 36.8744 13.0143C37.0628 12.5428 37.1459 12.1743 36.8744 12.0116C36.6012 11.8473 35.8274 11.7045 35.8274 11.7045C35.8274 11.7045 35.4083 11.5817 35.4304 11.746C35.4524 11.9104 35.8071 12.4001 35.7019 12.7287C35.5984 13.0558 35.3048 13.8957 34.9264 14.1198C34.5497 14.3439 33.9015 14.3854 33.6911 14.3854C33.4807 14.3854 33.7759 14.0385 33.6504 13.8542C33.6317 13.826 33.6113 13.7961 33.5927 13.7662C33.5774 13.7546 33.5604 13.743 33.5435 13.7297C33.3212 13.5803 33.1447 13.3479 33.0785 13.2566C33.0463 13.235 33.0073 13.1968 32.9614 13.1388C32.7307 12.8516 32.0401 12.6275 31.8313 12.5661C31.6209 12.5046 31.6006 12.5246 31.6006 12.5246C31.6006 12.5246 32.0825 13.0773 32.208 13.5903C32.3336 14.1015 32.69 14.3472 32.69 14.3472C32.69 14.3472 32.4185 14.7572 31.7906 14.7157C31.1628 14.6742 31.3715 14.7772 31.4767 14.9C31.5802 15.0228 32.4609 15.7599 33.1719 15.6984C33.8845 15.637 34.7415 15.1457 35.7256 15.2469C36.7098 15.3498 37.2732 15.4528 37.526 15.3299C37.7771 15.2071 38.0079 14.7971 38.0079 14.7971C38.0079 14.7971 38.259 15.1042 38.5305 15.3498L38.802 15.5955C38.802 15.5955 39.0752 15.637 39.2212 15.5125C39.3671 15.3897 41.125 15.0826 41.8377 14.9597C42.5487 14.8369 44.1386 14.5912 45.0397 14.6726C45.9407 14.7539 46.0866 14.4269 45.9594 14.1397M43.1494 9.50007C43.1273 10.1143 42.7523 12.1411 42.6895 12.4681C42.6267 12.7968 42.4384 12.7752 41.9989 12.5511C41.5594 12.3254 40.974 12.6939 40.7432 12.6325C40.5125 12.571 40.638 12.1411 40.784 12.1411C40.9299 12.1411 41.8106 12.1411 42.228 11.9568C42.6471 11.7726 42.4163 11.3626 42.228 11.2198C42.0396 11.0771 41.1607 11.3626 40.9316 11.3427C40.7008 11.3211 40.9519 10.8098 40.9519 10.8098C40.9519 10.8098 41.685 10.9127 42.1873 10.8513C42.6895 10.7899 42.7744 10.4214 42.7744 10.1342C42.7744 9.84701 42.6692 9.84701 42.3145 9.94993C41.9582 10.0528 41.2896 10.1342 40.9961 10.0927C40.7042 10.0512 40.9553 9.41707 40.9553 9.41707C41.2268 9.02698 42.4621 8.94564 42.7336 8.8643C43.0051 8.78296 43.1731 8.88422 43.1511 9.49841L43.1494 9.50007Z" fill="white"/>
<path fill-rule="evenodd" clip-rule="evenodd" d="M50.2931 8.19203C50.2931 8.19203 50.4085 8.7282 50.4662 8.47422C50.5239 8.21859 50.7835 7.68075 51.0737 7.70897C51.3622 7.73719 51.5946 7.82185 52.0002 7.48321C52.4057 7.14458 52.4634 6.52043 52.1444 6.15357C51.8254 5.78671 51.5946 5.64395 51.4504 5.30532C51.3062 4.96502 51.335 5.0779 51.1314 4.9368C50.9295 4.7957 50.6699 4.65461 50.5256 4.9368C50.3797 5.219 50.0335 6.06891 50.1795 6.80428C50.3237 7.53965 50.2948 8.19203 50.2948 8.19203M48.8763 12.5196C48.7609 13.001 48.5878 13.1703 48.9051 12.9728C49.2241 12.7752 50.5545 10.7384 50.5545 10.7384C50.5545 10.7384 50.9872 9.91675 50.2355 9.09672C49.4837 8.27668 48.9628 7.34212 48.5573 7.90817C48.1517 8.47422 48.5573 8.78464 48.6438 9.46357C48.7303 10.1425 48.99 12.0382 48.8746 12.5196M61.8606 4.7957C61.6875 4.45707 61.4551 4.06033 61.1955 4.06033C60.9358 4.06033 58.36 5.04968 58.0427 5.2771C57.7237 5.50286 57.8985 5.67218 57.9562 6.06891C58.0138 6.46399 58.1292 9.15315 58.1292 9.15315C58.1292 9.15315 58.1869 9.18137 57.9256 9.26603C57.666 9.35069 57.5506 9.40879 57.5218 9.12494C57.4929 8.84274 57.4047 8.64354 57.0297 8.7282C56.6547 8.81286 56.7107 8.50244 56.4799 8.64354C56.2491 8.7863 56.4799 9.54989 56.4799 9.54989C56.4799 9.54989 56.1626 9.74743 55.6993 9.94497C55.2361 10.1425 55.2649 9.97319 55.2649 9.97319C55.2649 9.97319 55.4974 9.43535 55.8147 8.81286C56.1337 8.19037 56.0455 7.56787 56.0455 7.56787C56.0455 7.56787 55.7842 8.10571 55.7842 7.85007C55.7842 7.59443 55.6976 6.94538 55.8707 6.7744C56.0455 6.60508 55.959 6.32289 55.6399 5.89793C55.3209 5.47464 54.8288 5.55764 54.3673 5.75683C53.9041 5.95437 53.0658 5.95437 52.9216 5.95437C52.7773 5.95437 52.6603 6.37767 52.6043 6.68974C52.5466 7.00016 52.8927 6.97194 52.9216 7.14292C52.9504 7.31224 52.5466 7.39689 52.4583 7.59609C52.3718 7.79363 52.6314 8.27502 52.6891 8.72654C52.7468 9.17971 52.516 9.46191 52.516 9.46191C52.516 9.46191 50.8684 11.8373 50.5782 12.2905C50.2898 12.7437 49.4193 13.7347 49.0443 13.7629C48.6676 13.7911 48.7541 13.338 48.7541 13.338C48.7541 13.338 48.3791 13.6783 48.1755 14.1298C47.9735 14.583 48.6387 15.3748 48.8406 15.6287C49.0443 15.8827 49.5075 15.9392 49.7943 15.2602C50.0844 14.5813 52.1088 11.5253 52.2819 11.0173C52.4566 10.5077 52.6874 9.88521 52.7146 10.1392C52.7451 10.3948 52.6009 14.2974 52.6009 14.5249C52.6009 14.7523 52.5432 15.8827 52.6297 16.2496C52.7163 16.6181 53.266 16.7027 53.3814 16.1931C53.4968 15.6835 53.5834 14.2974 53.4391 13.2799C53.2932 12.2606 53.5257 8.72488 53.5257 8.72488C53.5257 8.72488 53.8718 8.64022 54.2774 8.72488C54.6812 8.80954 54.4793 8.98052 54.1908 9.26271C53.9007 9.54657 53.7564 9.54657 53.7564 9.54657C53.7564 9.54657 54.2485 10.3948 54.4504 10.5077C54.6524 10.6206 55.1156 10.2819 55.1156 10.2819C55.1156 10.2819 55.6654 10.7899 55.8673 10.8181C56.0709 10.8463 56.5053 10.7899 56.5053 10.7899C56.5053 10.7899 56.6496 10.9592 56.2746 11.1584C55.8979 11.3559 54.7712 11.4124 54.7712 11.4124C54.7712 11.4124 54.4233 11.2149 54.0483 11.3842C53.6733 11.5551 53.7581 11.7809 54.0194 12.4316C54.2791 13.0823 54.6269 14.2991 54.8577 14.3555C55.0902 14.412 55.869 14.2144 55.7825 14.3555C55.6959 14.4966 55.2615 14.666 54.8288 14.6095C54.3944 14.5547 54.1925 14.6095 54.0771 15.0909C53.9618 15.5723 54.5098 15.5723 55.2055 15.4594C55.8996 15.3465 56.0149 14.583 56.1592 14.3572C56.3034 14.1314 56.4205 14.7805 56.39 15.0643C56.3611 15.3482 56.0709 15.5175 55.7825 15.5175C55.494 15.5175 55.3498 15.5175 55.4635 15.6304C55.5805 15.7433 56.1575 16.2247 56.39 16.5932C56.6207 16.96 56.7938 17.1592 57.1994 16.7625C57.6049 16.3658 57.459 14.7539 57.459 14.7539C57.459 14.7539 57.7474 14.9232 58.0953 15.2635C58.4431 15.6038 59.1066 15.4893 59.2814 15.066C59.4545 14.6411 58.9335 14.3589 58.2395 14.3024C57.5455 14.246 57.4301 13.9356 57.4301 13.9356L57.8068 13.9073C58.1835 13.8791 58.5585 13.738 59.0795 13.3994C59.5987 13.0591 59.86 12.4366 60.0331 12.2108C60.2062 11.9834 60.3504 11.5601 60.3504 11.2481C60.3504 10.936 59.7735 10.6256 59.5987 10.3716C59.4256 10.1176 59.4256 10.0031 59.1932 10.2305C58.9624 10.4579 57.7186 10.8248 57.7186 10.8248L57.6032 10.2023C57.6032 10.2023 58.3838 10.1193 58.5568 9.9765C58.7316 9.83541 58.528 9.41045 58.6451 9.55155C58.7605 9.69265 58.847 9.66443 59.2814 9.52333C59.7158 9.38223 61.0461 8.8444 61.0461 8.8444C61.0461 8.8444 61.2192 15.8877 61.1615 16.1998C61.1038 16.5102 61.0173 16.5683 60.7271 16.5965C60.4387 16.6247 58.7316 15.8894 58.7316 15.8894C58.7316 15.8894 59.0489 16.1151 59.4545 16.7393C59.86 17.3618 60.8714 17.7286 61.4211 17.9843C61.9709 18.2382 62.2899 17.8996 62.4036 17.5029C62.519 17.1061 62.4036 14.7025 62.3748 12.7487C62.3459 10.7965 62.4902 6.35609 62.6055 5.98757C62.7209 5.61906 62.0269 5.13766 61.8538 4.79902M54.6626 7.3471C54.6049 7.60273 54.6914 7.88493 54.5472 7.96959C54.4012 8.05591 54.257 7.68739 53.9397 7.74383C53.6224 7.80027 53.3899 7.62929 53.3899 7.62929C53.3899 7.62929 54.1416 7.17778 54.4012 7.1479C54.6626 7.11968 54.7202 7.09146 54.6626 7.34544M56.4273 13.3429C56.3696 13.655 55.8198 13.8526 55.6179 13.7397C55.4143 13.6268 55.3566 13.089 55.3566 13.089C55.3566 13.089 55.7621 13.5421 56.0217 13.1753C56.2814 12.8068 56.4273 12.7503 56.4273 12.7503C56.4273 12.7503 56.485 13.0342 56.4273 13.3446M56.11 12.2706C55.7044 12.6092 55.0969 12.3254 55.0681 12.1295L56.485 11.6763C56.485 11.6763 56.5138 11.9303 56.11 12.2706ZM58.567 12.0714C58.7113 11.4771 58.4228 11.4489 58.4228 11.4489C58.4228 11.4489 57.9901 11.7593 57.7576 11.6464C57.5252 11.5336 57.7576 11.3344 57.7576 11.3344C57.7576 11.3344 58.9437 10.6837 59.0591 11.1651C59.1745 11.6448 59.0591 12.2108 58.7689 12.6076C58.4805 13.0043 58.4805 13.4857 57.9019 13.089C57.3232 12.6922 57.498 12.7503 57.498 12.7503V12.5528C57.498 12.5528 58.4228 12.6657 58.567 12.0714ZM59.6666 6.13033C59.6666 6.13033 60.1281 5.84813 60.476 5.5925C60.8238 5.33686 61.0258 5.4514 61.0258 5.4514C61.0258 5.4514 61.114 6.5835 60.9969 6.75282C60.8815 6.92214 60.5931 6.5835 60.4183 6.35775C60.2452 6.13199 59.6666 6.61172 59.6666 6.61172V6.13033ZM61.0546 8.13891C61.0546 8.13891 60.6202 8.16713 60.1587 8.28C59.6954 8.39454 59.3781 8.39454 59.3781 8.39454L59.407 7.85671C59.407 7.85671 60.101 7.54463 60.3894 7.51641C60.6796 7.48819 60.8815 7.45997 60.9392 7.289C60.9969 7.11968 61.0835 7.289 61.0835 7.57119C61.0835 7.85339 61.0546 8.13725 61.0546 8.13725V8.13891Z" fill="white"/>
<path fill-rule="evenodd" clip-rule="evenodd" d="M68.5055 14.4153C68.9891 14.7921 69.9563 14.8884 70.3432 14.7921C70.7301 14.6975 71.5038 14.4601 72.4235 14.5564C73.3432 14.651 73.1973 14.5082 73.5367 14.1763C73.876 13.8459 73.876 13.4193 74.2629 13.0408C74.6498 12.6623 75.0859 12.5212 75.2301 11.9519C75.3761 11.3842 74.8433 10.438 74.5531 10.0595C74.2629 9.68102 72.9088 10.1076 72.2318 10.438C71.5531 10.7683 70.199 10.8629 69.3777 10.9575C68.5547 11.0522 67.9761 10.7218 67.9761 10.7218C67.9761 10.7218 68.1695 11.2431 68.3613 11.7162C68.5547 12.1893 68.3613 13.0408 68.3138 13.3712C68.2645 13.7032 68.0236 14.0335 68.5072 14.4136M72.281 11.7626C72.6204 11.6215 72.3302 12.425 72.0876 12.8516C71.8449 13.2782 71.7482 13.089 71.2646 13.3712C70.781 13.655 70.3941 13.5604 70.2974 13.3247C70.2007 13.089 70.2007 12.5212 70.2007 12.5212C70.2007 12.5212 71.9433 11.9071 72.281 11.7643M74.2646 14.7456C73.5859 14.6029 72.8138 15.0295 72.4744 15.3133C72.1351 15.5972 70.2007 15.9292 69.5728 15.8811C68.945 15.8346 68.0728 15.7864 68.0728 15.7864C68.0728 15.7864 68.2187 16.3541 68.2187 16.8272C68.2187 17.3003 68.0728 17.3468 68.4122 18.0108C68.7498 18.6731 69.1859 19.1927 69.3302 19.5247C69.4761 19.855 69.7663 19.4766 70.3466 19.4301C70.9269 19.382 73.2974 19.4782 73.6843 19.6658C74.0712 19.855 74.3614 19.7604 74.7007 19.2873C75.0401 18.8142 74.9909 18.5769 74.7974 18.3411C74.604 18.1038 74.4581 18.0108 74.9909 17.5361C75.522 17.063 75.4745 16.638 75.5712 16.0221C75.6679 15.4063 74.9417 14.8867 74.2646 14.744M73.3449 16.4952C73.2482 16.8256 72.8121 17.7253 72.522 18.0556C72.2318 18.3876 71.3138 18.625 70.9252 18.5769C70.5383 18.5304 70.2974 17.3468 70.2974 17.3468C70.6351 16.8272 72.6662 16.3525 72.958 16.306C73.2482 16.2579 73.4417 16.1649 73.3449 16.4969M79.8761 8.40284C79.6827 8.0725 79.6827 7.97622 79.1499 7.64589C78.6188 7.31555 78.4253 6.51046 77.5548 6.3677C76.6843 6.2266 74.7974 6.3677 74.7974 6.3677C74.7974 6.3677 72.863 4.52346 72.1843 3.95409C71.5072 3.38638 70.7827 2.72405 70.0564 3.05604C69.3302 3.38638 69.4761 3.62375 69.3794 4.14333C69.2827 4.66456 69.0892 5.23228 70.0072 6.22494C70.9269 7.21927 70.9761 7.21927 70.9761 7.21927C70.9761 7.21927 69.4286 7.69237 68.3155 7.87994C67.2023 8.06918 66.9597 8.0227 66.7187 7.87994C66.4778 7.73885 65.9449 7.54961 65.4613 7.73885C64.9777 7.92808 63.7696 7.64423 63.381 8.87427C62.9941 10.1043 62.8974 11.5236 63.7696 12.0448C64.6401 12.5661 65.1712 13.1803 65.6548 12.6125C66.1384 12.0448 66.1384 11.9967 66.1384 11.6664V10.6256C66.1384 10.6256 71.6328 9.22121 73.2974 8.21194C74.3138 7.59609 77.5056 7.78699 77.5056 7.78699C77.5056 7.78699 77.6516 8.02436 77.3122 8.21194C76.9728 8.40118 76.2975 9.11165 75.8614 9.34903C75.4253 9.58474 74.604 9.96322 74.604 9.96322C74.604 9.96322 75.0876 9.96322 75.7171 10.0114C76.3467 10.0595 77.0712 10.4845 77.5073 10.2487C77.9434 10.0114 79.2975 9.68102 79.6844 9.49179C80.0713 9.30255 80.0713 8.73483 79.8778 8.40284H79.8761Z" fill="white"/>
<path fill-rule="evenodd" clip-rule="evenodd" d="M25.2119 11.7294C25.2119 11.7294 24.2752 11.077 24.1921 9.93662C24.1072 8.79621 24.075 8.19364 23.7339 7.85334C23.3946 7.51138 23.2317 7.43004 23.2317 7.43004C23.2317 7.43004 23.3521 6.91047 23.0857 6.57681C22.8193 6.24482 22.3527 6.1751 22.3527 6.1751C22.3527 6.1751 22.4087 5.59079 22.1423 5.28203C21.8759 4.97327 21.623 4.90687 21.623 4.90687C21.623 4.90687 21.5314 4.88197 21.5518 4.73756C21.5704 4.59314 21.5161 4.42382 21.321 4.1964C21.1276 3.96899 21.0885 3.77643 21.114 3.64031C21.1411 3.50419 21.1259 3.38467 20.9867 3.37471C20.8476 3.36475 20.6406 3.44277 20.2265 3.18879C19.8108 2.93648 19.614 2.9896 19.614 2.9896C19.614 2.9896 19.5732 3.02944 19.5155 2.9564C19.4595 2.88336 19.2661 2.58456 18.8656 2.41856C18.4652 2.25256 18.153 2.30568 18.153 2.30568C18.153 2.30568 18.0953 2.27248 18.08 2.17621C18.0647 2.07993 17.9544 1.80603 17.5947 1.64833C17.235 1.49063 17.0534 1.62509 17.0534 1.62509C17.0534 1.62509 16.9126 1.67987 16.8158 1.55205C16.7191 1.42257 16.1931 0.861501 15.4872 0.829961C14.783 0.798422 14.3707 0.856521 13.5375 0.582624C12.7044 0.308727 12.4787 0.00827071 12.4787 0.00827071C12.4787 0.00827071 12.3887 -0.016629 12.3056 0.0381504C12.2225 0.0929297 11.4283 0.801742 10.3865 0.801742C9.34459 0.801742 8.72863 0.88972 8.38417 1.15366C8.0397 1.41925 8.01595 1.54043 7.96674 1.58857C7.91753 1.63671 7.84287 1.66825 7.74445 1.61181C7.64603 1.55537 7.17091 1.57197 6.88414 1.85251C6.73652 1.99693 6.66186 2.22103 6.66186 2.22103C6.66186 2.22103 6.60416 2.309 6.47351 2.28576C6.34285 2.26086 5.75234 2.39864 5.55551 2.71072C5.35867 3.0228 5.36546 3.06264 5.30098 3.0809C5.2348 3.09584 4.99045 3.0477 4.75968 3.14563C4.5306 3.24191 4.33377 3.36973 4.18614 3.35479C4.03852 3.33819 3.87392 3.32159 3.87392 3.45107C3.87392 3.58055 3.85695 3.85279 3.69236 4.09348C3.52946 4.33418 3.53625 4.38896 3.55491 4.51844C3.57188 4.64626 3.55491 4.83882 3.55491 4.83882C3.55491 4.83882 3.16124 5.00647 2.90671 5.39989C2.65218 5.7933 2.70988 6.0174 2.70988 6.0174C2.70988 6.0174 2.67764 6.13692 2.61146 6.13028C2.54528 6.12198 2.16858 6.24316 2.02095 6.61167C1.87333 6.98019 1.98023 7.25409 1.98023 7.25409C1.98023 7.25409 1.98023 7.31883 1.92254 7.34373C1.86484 7.36697 1.08259 7.70394 0.929874 8.79455C0.872181 9.20456 0.996052 9.32408 0.890847 9.83702C0.783945 10.3516 0.397061 11.1932 0.17647 11.4339C-0.0458183 11.6746 -0.0135781 11.6746 0.0373276 11.7377C0.0865365 11.8024 0.71607 12.483 0.816185 13.4143C0.848425 13.7197 0.750007 14.7223 1.05374 15.2353C1.35748 15.7482 1.48644 15.803 1.67649 15.974C1.78339 16.0702 1.71722 16.1748 1.70194 16.2047C1.68498 16.2379 1.59504 16.6064 1.92254 17.0065C2.25003 17.4082 2.41462 17.3202 2.41462 17.3202C2.41462 17.3202 2.38917 17.9377 2.72515 18.3477C3.06282 18.7561 3.25117 18.7959 3.25117 18.7959C3.25117 18.7959 3.3428 18.8042 3.33262 18.9005C3.32414 18.9968 3.30038 19.2458 3.5057 19.3968C3.71102 19.5496 3.75175 19.8467 3.71781 19.9347C3.68557 20.0227 3.63636 20.1671 3.85865 20.1986C4.07924 20.2318 4.19463 20.2235 4.40673 20.3513C4.62054 20.4792 4.74441 20.5771 4.94973 20.5605C5.15505 20.5439 5.26025 20.5439 5.30267 20.6335C5.3434 20.7215 5.77779 21.2992 6.26309 21.3058C6.7467 21.3141 6.68901 21.4668 6.68222 21.5316C6.67373 21.5963 6.81288 22.0296 7.22352 22.164C7.63246 22.3002 7.76481 22.1972 7.76481 22.1972C7.76481 22.1972 7.80723 22.1375 7.91414 22.169C7.91414 22.169 8.41301 22.9691 9.32253 23.0289C10.2337 23.087 11.1263 23.1534 11.6557 23.4505C12.1851 23.746 12.4108 23.9734 12.4108 23.9734C12.4108 23.9734 12.4923 24.0382 12.5907 23.9601C12.6908 23.8805 13.6173 23.2098 14.5794 23.1235C15.5398 23.0388 16.0319 23.0687 16.2796 22.999C16.5257 22.9293 16.9567 22.6305 17.0907 22.3915C17.2248 22.1524 17.2893 22.1923 17.4047 22.2354C17.5183 22.2769 18.1089 22.2836 18.3108 21.9399C18.3939 21.837 18.4618 21.7092 18.4788 21.6212C18.4974 21.5332 18.5382 21.4934 18.6366 21.4785C18.735 21.4635 19.1626 21.4453 19.5189 21.0801C19.7361 20.8427 19.787 20.6983 19.787 20.6983C19.787 20.6983 19.8787 20.5954 20.0008 20.6369C20.123 20.6784 20.4285 20.6335 20.6083 20.5157C20.7899 20.3978 20.9969 20.3115 21.0716 20.3049C21.1445 20.2982 21.1853 20.3298 21.2345 20.3397C21.2837 20.348 21.3668 20.3015 21.377 20.1887C21.3872 20.0774 21.3634 19.9712 21.4058 19.8849C21.4483 19.7969 21.6807 19.5363 21.7249 19.3354C21.769 19.1362 21.6892 18.9022 21.6892 18.9022C21.6892 18.9022 22.2169 18.6681 22.4121 18.2133C22.6055 17.7584 22.5784 17.4132 22.5784 17.4132C22.5784 17.4132 23.0552 17.3235 23.2826 16.8836C23.5099 16.4454 23.3895 16.203 23.3895 16.203C23.3895 16.203 24.1412 15.7549 24.299 14.978C24.3957 14.5065 24.2684 14.1828 24.3635 13.6716C24.4619 13.1586 24.5484 12.7021 24.8912 12.2158C25.234 11.7311 25.217 11.7311 25.217 11.7311M19.7073 3.90093C19.7616 3.72663 19.8312 3.77975 20.0365 3.84781C20.2418 3.91421 20.5693 3.96899 20.5693 3.96899C20.5964 4.15656 20.8561 4.6778 20.8561 4.6778C20.8561 4.6778 20.5421 4.73092 20.2961 4.82554C20.0501 4.91849 19.1202 5.46629 19.4884 6.5237C19.8583 7.57944 20.1858 7.72718 20.1858 7.72718C20.1858 7.72718 20.213 7.68568 20.2825 7.59438C20.3504 7.49976 20.5014 7.36697 20.7339 7.38025C20.9664 7.39353 21.2667 7.60766 21.1836 7.90148C21.1021 8.1953 20.5829 8.46255 19.8176 8.0625C19.0523 7.66078 18.3973 5.92278 18.3973 5.92278C18.3973 5.92278 18.3702 5.92278 18.2191 5.9095C18.0681 5.89622 17.3028 5.72192 16.5528 5.20069C15.8011 4.67946 15.7333 4.02376 16.1015 3.71667C16.4714 3.40957 16.9482 3.70339 16.9906 3.93081C17.0313 4.15822 16.8803 4.29268 16.7446 4.42548C16.6088 4.55994 16.731 4.6529 16.731 4.6529C16.731 4.6529 17.0178 5.08117 18.2208 5.10773C19.4239 5.13429 19.6564 4.07854 19.7107 3.90425M4.2608 4.49686C4.35922 4.40888 4.41522 4.32754 4.41522 4.20802C4.41522 4.0885 4.46443 3.95239 4.56284 3.93413C4.66126 3.91919 4.75968 3.96733 4.86658 3.87935C4.97348 3.79137 5.14487 3.75153 5.1788 3.88599C5.21104 4.0221 5.35019 4.88197 6.22916 5.07453C7.10643 5.26709 8.07364 4.88197 8.24672 4.71432C8.4181 4.54666 8.39435 4.43378 8.2043 4.37734C8.01595 4.3209 7.68845 3.98392 8.07364 3.68679C8.45883 3.38965 9.00012 3.73493 8.94243 4.17648C8.88474 4.61804 8.49955 5.21231 7.65452 5.54929C6.81118 5.88626 6.67882 5.83812 6.67882 5.83812C6.67882 5.83812 6.35133 7.25741 5.45709 7.86828C4.56284 8.47749 3.98082 8.06084 3.98082 7.77864C3.98082 7.49644 4.33377 6.94533 4.86658 7.41013C4.86658 7.41013 4.92427 7.59438 5.05663 7.46656C5.18729 7.33875 5.86942 6.45564 5.52327 5.55759C5.1788 4.65788 4.24383 4.66618 4.24383 4.66618C4.24383 4.66618 4.16239 4.58484 4.2608 4.49852M5.02439 19.6956C4.99045 19.8484 4.89203 19.8733 4.78683 19.8069C4.67993 19.7421 4.45764 19.679 4.38467 19.6956C4.31001 19.7106 4.28626 19.7039 4.2608 19.5429C4.23705 19.3819 4.17087 19.3022 4.1539 19.118C4.13863 18.9337 4.28626 18.942 4.28626 18.942C5.29589 18.7013 5.60641 17.5792 5.47575 16.9368C5.3451 16.2943 4.77835 15.7084 4.68162 15.7001C4.58151 15.6918 4.54078 15.8843 4.50854 15.9723C4.4763 16.0603 4.21329 16.1649 3.96725 15.9474C3.7212 15.7316 3.86883 15.2336 4.27777 15.1207C4.68841 15.0095 5.05663 15.0328 5.67089 15.6735C6.28685 16.3159 6.38527 17.2538 6.40224 17.4148C6.41751 17.5758 6.65846 17.5377 6.78064 17.5592C7.47465 17.6804 8.02613 17.9776 8.53519 18.4988C9.04255 19.0217 9.00182 19.5911 8.83044 19.8218C8.65736 20.0542 8.24842 20.0791 8.00237 19.782C7.75633 19.4848 8.06007 19.196 8.11776 19.1711C8.17545 19.1479 8.35532 19.0117 7.95316 18.786C7.55101 18.5619 6.78912 18.1768 5.95257 18.5137C5.11602 18.8507 5.05833 19.5413 5.02609 19.694M20.9986 19.2823C20.9426 19.4699 20.8476 19.7371 20.8476 19.7371C20.8476 19.7371 20.834 19.777 20.6558 19.777C20.4777 19.777 20.3419 19.8699 20.1909 19.8965C20.0416 19.9231 19.972 19.777 19.972 19.777C19.9448 19.4566 19.8074 18.708 18.7978 18.5469C17.7864 18.3876 17.1298 18.8939 16.938 19.0018C16.7463 19.108 16.8701 19.2557 16.8701 19.2557C16.8701 19.2557 17.0602 19.3487 17.2384 19.6027C17.4165 19.8567 17.1976 20.1505 16.7463 20.1654C16.2949 20.1787 15.7757 19.5496 16.5138 18.6548C17.2519 17.7584 18.6315 17.6904 18.6315 17.6904L18.7554 17.0878C18.8792 16.4869 19.2067 15.8179 19.8074 15.4693C20.4081 15.1224 20.9697 15.2685 21.1055 15.4959C21.2412 15.7233 21.1055 16.0835 20.8866 16.1499C20.6677 16.218 20.4217 16.0968 20.3249 15.9491C20.2299 15.803 20.1061 15.8561 19.9024 16.1765C19.6971 16.4969 19.3832 16.965 19.6292 17.8614C19.8753 18.7561 20.6813 18.8906 20.9002 18.957C21.1191 19.025 21.0495 19.0898 20.9952 19.2773M24.0428 12.0747C23.8222 12.3784 23.6915 12.7154 23.6084 13.2699C23.5252 13.8243 23.6084 14.5381 23.42 15.0112C23.2317 15.4843 22.7633 15.7399 22.6734 15.7963C22.5835 15.8528 22.6479 15.9723 22.6479 15.9723C22.6479 15.9723 22.8855 16.2528 22.7548 16.5417C22.6242 16.8305 22.3612 16.8787 22.222 16.8704C22.0812 16.8621 22.0082 16.8936 22.0082 17.0065C22.0082 17.1194 22.0727 17.1841 22.0727 17.3999C22.0727 17.6157 21.8691 18.3378 21.0071 18.1867C20.1451 18.0357 20.162 17.3285 20.1705 17.1194C20.179 16.9102 20.3182 16.9417 20.3182 16.9417C20.3182 16.9417 20.3589 17.0297 20.8425 16.9899C21.6417 16.9235 21.9505 16.1781 21.9421 15.5291C21.9353 14.88 21.3346 14.3339 20.6881 14.3405C20.0399 14.3488 19.7039 14.47 18.9488 15.2071C18.1937 15.9457 18.1767 16.8372 18.1615 16.9168C18.1445 16.9965 17.9799 17.0198 17.7254 17.0928C17.0602 17.282 16.4867 17.6705 15.8385 18.3112C15.2293 18.9155 15.3532 19.4118 15.3565 19.5894C15.3939 19.7969 15.5211 20.0957 15.5754 20.2252C15.5771 20.2302 15.5788 20.2351 15.5805 20.2385C15.5856 20.2451 15.5907 20.2517 15.5907 20.2617C15.6077 20.3331 15.796 20.5339 15.8792 20.5821C15.9606 20.6302 16.5427 21.1033 17.4216 20.6468C18.2989 20.1887 17.9069 19.2259 17.9069 19.2259L17.9884 19.1943C18.0698 19.1611 18.4805 19.1147 18.6111 19.1528C18.7435 19.1943 19.5631 19.4101 19.334 20.1571C19.1049 20.9025 18.2836 20.9025 18.1275 20.8875C17.9714 20.8726 17.9222 20.9041 17.9137 21.0004C17.9069 21.0967 17.9307 21.2245 17.8475 21.417C17.7661 21.6096 17.4386 21.7474 17.2078 21.6826C16.9787 21.6196 16.9041 21.5299 16.8311 21.5299C16.7582 21.5299 16.7157 21.7142 16.602 21.8818C16.4867 22.0495 16.0438 22.3549 14.9612 22.2919C13.8786 22.2271 12.8367 22.8695 12.7061 22.9575C12.5754 23.0455 12.5262 23.0787 12.4668 23.0787C12.4074 23.0787 12.3854 22.9824 11.7219 22.6853C11.0567 22.3881 9.99788 22.3251 9.41755 22.2205C8.83553 22.1159 8.51482 21.7939 8.40792 21.5847C8.30272 21.3772 8.19412 21.4735 8.14491 21.5366C8.0957 21.6013 7.93959 21.7856 7.53743 21.6328C7.13528 21.4801 7.15225 21.0867 7.16752 20.9904C7.18449 20.8941 7.19976 20.8709 7.15225 20.7896C7.10304 20.7082 7.02159 20.758 6.54477 20.6933C6.06965 20.6302 5.92203 20.3812 5.8304 19.8915C5.74046 19.4018 6.17486 19.1611 6.47011 19.1213C6.76536 19.0798 7.03686 19.0964 7.14376 19.201C7.25067 19.3039 7.16073 19.5064 7.16073 19.5064C7.16073 19.5064 7.06231 20.3248 8.03801 20.6867C8.76426 20.9556 9.18678 20.4775 9.2852 20.3497C9.28689 20.348 9.29029 20.343 9.29198 20.3414C9.30725 20.3215 9.35477 20.2584 9.46676 20.0857C9.6093 19.8633 9.64323 19.5678 9.64323 19.5678H9.65172C9.68565 19.3089 9.70262 18.6631 9.07139 18.0041C8.32138 17.2223 7.10474 16.955 7.10474 16.955C7.10474 16.955 6.70428 15.0394 5.49612 14.5563C4.28795 14.0733 3.33771 14.5281 3.20875 15.3747C3.07979 16.2213 3.67199 16.7525 4.1013 16.794C4.5306 16.8355 4.61714 16.6745 4.72914 16.8156C4.84452 16.955 5.11772 18.1436 3.9367 18.1718C2.70139 18.2017 2.98646 16.9069 2.98646 16.9069C2.98646 16.9069 3.04246 16.7243 2.84902 16.7044C2.65558 16.6828 2.2636 16.6197 2.29245 16.223C2.3213 15.8246 2.45026 15.7681 2.45026 15.7681C2.45026 15.7681 2.49268 15.6901 2.3722 15.627C2.25003 15.564 1.72909 15.3897 1.68498 14.236C1.64255 13.0806 1.64934 12.6274 1.32015 12.2075C0.990961 11.7875 0.977386 11.6696 0.977386 11.6696C0.977386 11.6696 1.68498 10.5425 1.69176 9.60628C1.69855 8.66839 1.84957 8.10898 2.2636 7.88654C2.67764 7.66244 2.7489 7.6973 2.59958 7.50142C2.45026 7.30555 2.45026 7.02501 2.63522 6.82249C2.82187 6.61997 3.10015 6.63325 3.10015 6.63325C3.10015 6.63325 3.27154 6.68969 3.26475 6.52204C3.25796 6.35438 3.28681 5.56257 3.92143 5.42313C4.55775 5.28369 4.909 5.64723 4.909 5.99748C4.909 6.34774 4.84452 6.61997 4.62393 6.57847C4.40164 6.53698 3.43274 6.40916 3.25117 7.68402C3.09506 8.78791 4.30323 9.07509 4.84622 8.94893C5.38921 8.82277 6.0968 8.60863 6.62622 7.6558C7.08268 6.82913 7.11152 6.49548 7.11152 6.49548C7.11152 6.49548 8.86947 6.10372 9.32762 5.26377C9.71111 4.5616 9.7128 4.05198 9.70262 3.90259C9.68565 3.83951 9.6619 3.75153 9.62287 3.64197C9.53633 3.39961 9.45488 3.30831 9.45488 3.30831C9.37852 3.21867 9.20205 3.04438 8.92377 2.9481C8.54197 2.81364 8.04988 2.85348 7.59852 3.20207C7.14716 3.54901 7.18958 4.01712 7.21673 4.2296C7.24388 4.44374 6.90111 4.55164 6.4243 4.4039C5.94578 4.25782 5.63017 3.58885 6.10868 3.14729C6.58719 2.70574 7.2303 2.8651 7.2303 2.8651C7.2303 2.8651 7.20315 2.4916 7.54422 2.27746C7.88529 2.06333 8.22806 2.37208 8.22806 2.37208C8.22806 2.37208 8.28235 2.26418 8.88474 1.84919C9.48543 1.43419 10.2779 1.62177 10.865 1.55537C11.4538 1.48731 12.4363 0.886401 12.4363 0.886401C12.4363 0.886401 12.4634 0.91296 12.8045 1.08726C13.1472 1.26156 13.9804 1.47569 14.2672 1.48897C14.5539 1.50225 14.6761 1.43419 15.1699 1.52881C16.093 1.70477 16.5359 2.35714 16.5359 2.35714C16.5359 2.35714 16.8515 2.10317 17.2197 2.19613C17.5879 2.28908 17.6303 2.83854 17.6303 2.83854C17.6303 2.83854 17.7797 2.82526 18.1072 2.8651C18.4363 2.9066 19.2152 3.11907 18.9827 3.93579C18.7503 4.75084 17.6303 4.24288 17.6303 4.24288L17.6846 3.93579C17.7389 3.62869 17.5743 2.83854 16.6597 2.77214C15.7434 2.70574 15.4702 3.18713 15.3599 3.30665C15.3515 3.31495 15.343 3.32491 15.3345 3.32989C15.231 3.47099 15.0681 3.75153 15.0783 4.1134C15.0783 4.12668 15.0783 4.14162 15.0783 4.15324C15.0783 4.1881 15.0783 4.2213 15.0851 4.2545C15.1088 4.4786 15.1818 4.95169 15.8724 5.57751C16.5613 6.20332 17.873 6.51706 17.873 6.51706C17.873 6.51706 17.873 6.49382 17.9646 6.73285C18.0546 6.97355 18.6858 8.00938 18.8589 8.23514C19.0302 8.45923 19.6886 9.3108 20.8102 9.09335C21.9336 8.87589 22.0405 7.53628 21.623 7.00675C21.2039 6.47722 20.6236 6.60503 20.2859 6.63823C19.9499 6.66977 19.899 6.05226 20.196 5.72192C20.4912 5.39325 21.1479 5.40155 21.5653 5.76342C21.9828 6.1253 21.8759 6.55855 21.8759 6.62993C21.8759 6.70131 21.8691 6.71957 22.0235 6.73451C22.1796 6.75111 22.4019 6.84075 22.5173 6.97521C22.631 7.11299 22.6242 7.31219 22.5987 7.41677C22.575 7.51968 22.541 7.50474 22.4833 7.58608C22.4257 7.66576 22.3595 7.66576 22.8041 8.01934C23.2469 8.37291 23.493 9.04687 23.5575 10.0893C23.6219 11.1318 24.2634 11.7493 24.2634 11.7493C24.2634 11.7493 24.2633 11.7659 24.0411 12.0714M17.6795 13.9671L17.6762 13.9787C17.6762 13.9787 17.6846 13.9571 17.6795 13.9671ZM17.705 9.54486C17.5692 9.48842 17.4691 9.53158 17.4691 9.53158H15.6823C15.6823 9.53158 15.6247 9.48344 15.6535 9.44028C15.6823 9.39878 17.3334 9.44028 17.3334 9.44028C17.3334 9.44028 17.5268 9.3855 17.4912 9.18962C17.4556 8.99541 17.4403 8.89581 17.2689 8.68665C17.0975 8.47749 16.4256 7.79856 16.3102 7.70062L16.1965 7.60268H13.3661C13.3661 7.60268 13.1082 7.54624 13.1014 7.82678C13.0946 8.10566 13.1014 8.88917 13.1014 8.88917C13.1014 8.88917 13.1286 9.01533 12.986 9.01533C12.8435 9.01533 12.8791 8.91075 12.8791 8.91075V7.81848C12.8791 7.81848 12.8723 7.60932 12.6568 7.6226C12.443 7.63588 12.4634 7.81184 12.4634 7.81184V9.27262C12.4634 9.27262 12.477 9.42534 12.6212 9.42534H14.1433C14.1433 9.42534 14.1586 9.44692 14.1586 9.48842C14.1586 9.52992 14.1501 9.53822 14.0941 9.53822H12.6501C12.6501 9.53822 12.494 9.5598 12.4855 9.7341C12.4787 9.9084 12.6653 9.9582 12.6653 9.9582L14.4945 9.88848C14.4945 9.88848 14.6014 9.8669 14.6014 9.74904C14.6014 9.63118 14.5658 9.47016 14.6524 9.43364C14.7389 9.39878 15.1377 9.42036 15.1377 9.42036C15.1377 9.42036 15.231 9.43364 15.2378 9.55482C15.2446 9.67268 15.2157 9.93828 15.6891 9.925C16.1609 9.91172 17.4131 9.925 17.4131 9.925C17.4131 9.925 17.5489 10.0578 17.5489 10.1142C17.5489 10.1707 17.498 10.184 17.442 10.1773C17.3843 10.1707 14.3605 10.1773 14.3605 10.1773C14.3605 10.1773 14.2892 10.0014 14.1178 10.0014C13.9465 10.0014 13.8956 10.0362 13.8888 10.2188C13.882 10.4014 13.8888 11.3244 13.8888 11.3244C13.8888 11.3244 13.938 11.5418 14.0737 11.5352C14.2095 11.5285 14.218 11.5285 14.218 11.5285H17.7203C17.7203 11.5285 17.7983 11.6265 17.7864 11.668C17.7712 11.7095 17.6507 11.6945 17.6066 11.7028C17.5642 11.7095 13.9329 11.7028 13.9329 11.7028C13.9329 11.7028 13.8396 11.4522 13.5748 11.4655C13.3118 11.4787 13.2457 11.6945 13.2457 11.6945H9.63645C9.63645 11.6945 9.56518 11.6315 9.62966 11.59C9.69414 11.5485 9.79425 11.5767 9.79425 11.5767H13.0624C13.0624 11.5767 13.2338 11.5285 13.2338 11.3443C13.2338 11.16 13.2049 10.1574 13.2049 10.1574C13.2049 10.1574 13.1489 10.003 13.0047 10.0163C12.8622 10.0312 12.8333 10.1225 12.7909 10.1358C12.7485 10.1508 12.6467 10.1574 12.6467 10.1574L9.62966 10.1707C9.62966 10.1707 9.52954 10.1076 9.5007 10.0229C9.47355 9.93994 9.40058 9.8835 9.40058 9.8835L12.1597 9.8005C12.1597 9.8005 12.3311 9.76398 12.3243 9.55648C12.3175 9.34566 12.0952 9.38052 12.0952 9.38052H11.8882C11.8882 9.38052 11.7745 9.37388 11.7745 9.27594C11.7745 9.17801 11.7677 8.84269 11.7677 8.84269C11.7677 8.84269 11.7321 8.64681 11.5743 8.66009C11.4181 8.67503 11.3961 8.86261 11.3961 8.86261L11.4097 9.3108C11.4097 9.3108 11.3808 9.40874 11.2519 9.41538C11.1246 9.42368 10.8667 9.42368 10.8667 9.42368V8.48745L11.9747 8.45259C11.9747 8.45259 12.253 8.47417 12.2309 8.24178C12.2106 8.01104 12.0256 8.06084 12.0256 8.06084L10.9023 8.0957C10.9023 8.0957 10.8242 8.07412 10.8242 7.97618C10.8242 7.87824 10.9736 7.88654 10.9736 7.88654L12.0731 7.8716C12.0731 7.8716 12.2309 7.86496 12.2242 7.65414C12.2174 7.44333 12.0392 7.44333 11.9815 7.44333C11.9238 7.44333 10.137 7.49312 10.137 7.49312C10.137 7.49312 10.0216 7.45826 10.0437 7.34041C10.0658 7.22089 10.1506 7.24247 10.3372 7.16611C10.5222 7.08975 11.2519 6.87893 11.2519 6.87893C11.2519 6.87893 11.3452 6.86565 11.5098 6.97687C11.6744 7.08975 12.0307 7.44664 12.6535 7.43834C13.2762 7.4317 15.6705 7.45992 15.6705 7.45992C15.6705 7.45992 15.7638 7.43834 15.7706 7.29227C15.7774 7.14453 15.7553 7.13125 15.6637 7.13125C15.572 7.13125 13.6987 7.12461 13.6987 7.12461L13.7055 6.97189H14.5488C14.5488 6.97189 14.6846 6.97189 14.6778 6.81751C14.671 6.66479 14.5692 6.64985 14.4844 6.65649C14.3995 6.66313 13.7836 6.64321 13.7344 6.62163C13.6834 6.60005 13.6767 6.45398 13.5986 6.39754C13.5205 6.3411 13.3339 6.33446 13.3203 6.51706C13.305 6.69965 13.3203 6.97189 13.3203 6.97189C13.3203 6.97189 13.3203 7.08311 13.1625 7.09141C13.0047 7.09805 12.8757 7.09805 12.8757 6.97189C12.8757 6.84573 12.8486 6.41248 12.8486 6.41248C12.8486 6.41248 12.8418 6.2581 12.6823 6.2581C12.5228 6.2581 12.4973 6.35604 12.4973 6.42576C12.4973 6.49548 12.4821 6.89387 12.4821 6.89387C12.4821 6.89387 12.4753 6.97189 12.3039 6.98517C12.1325 7.00011 11.9883 6.89387 11.9611 6.82415C11.9323 6.75443 11.9832 6.71293 12.0816 6.69135C12.1817 6.66977 12.2547 6.60005 12.2411 6.48054C12.2258 6.36102 12.1699 6.28466 12.0273 6.30458C11.8831 6.3245 11.3401 6.36766 10.5901 6.63989C9.84007 6.91213 9.15963 7.31883 8.96788 7.5147C8.77444 7.71058 8.85419 7.91476 9.02388 7.91476H10.3033C10.3033 7.91476 10.4458 7.89982 10.4391 8.0127C10.4323 8.12558 10.3831 8.12558 10.2117 8.12558C10.0403 8.12558 8.35193 8.13886 8.35193 8.13886C8.35193 8.13886 8.15848 8.1455 8.18054 8.33473C8.2009 8.52397 8.38756 8.52397 8.38756 8.52397H8.85929C8.85929 8.52397 8.92377 8.55883 8.91019 8.62855C8.89492 8.69827 8.86607 8.69827 8.78802 8.70491C8.70827 8.71155 7.90905 8.70491 7.90905 8.70491C7.90905 8.70491 7.7733 8.72649 7.78687 8.90079C7.80214 9.07509 7.87341 9.10331 8.00916 9.10331H9.94527C9.94527 9.10331 10.1234 9.07509 10.1167 8.87921C10.1099 8.68333 9.90964 8.71155 9.86722 8.71155H9.34459C9.34459 8.71155 9.28011 8.71155 9.28011 8.61361C9.28011 8.51567 9.38022 8.52231 9.38022 8.52231H10.3169C10.3169 8.52231 10.4594 8.48745 10.4594 8.64847V9.30582C10.4594 9.30582 10.473 9.42534 10.3169 9.42534H7.57137C7.57137 9.42534 7.48483 9.35562 7.32193 9.67766C7.15734 9.99969 6.93675 10.5873 6.87905 11.175C6.82136 11.7626 6.95711 11.7759 7.05044 11.7825C7.14376 11.7892 7.23539 11.7543 7.25067 11.5534C7.26594 11.3493 7.33551 10.7218 7.49332 10.2935C7.65112 9.8669 7.67149 9.88018 7.75803 9.88848C7.84287 9.89512 7.80723 9.97812 7.7733 10.0628C7.73766 10.1474 7.43053 10.9857 7.47974 11.8041C7.52895 12.6225 7.73766 13.6566 7.89377 13.7064C8.04988 13.7546 8.59967 13.6566 8.98655 13.7413C9.24447 13.7977 9.32253 13.8608 9.43113 13.8459C9.53803 13.8309 9.60251 13.7828 9.59572 13.6434C9.58893 13.5039 9.57366 12.0697 9.57366 12.0697L13.1846 12.0631C13.1846 12.0631 13.3492 12.0415 13.3424 12.1261C13.3339 12.2091 13.2066 12.1809 13.2066 12.1809L10.1336 12.1876C10.1336 12.1876 9.99109 12.1461 9.9843 12.3685C9.97751 12.5926 9.9843 12.8798 9.9843 12.8798C9.9843 12.8798 9.94018 13.0408 10.2066 13.0408H12.2937C12.2937 13.0408 12.494 13.0275 12.4787 13.2234C12.4634 13.4193 12.2852 13.3761 12.2852 13.3761H10.1896C10.1896 13.3761 10.0182 13.3695 10.0318 13.557C10.0471 13.7463 10.2388 13.7247 10.2388 13.7247H12.0816C12.0816 13.7247 12.2818 13.7181 12.2615 13.8641C12.2411 14.0119 12.2055 14.0251 12.0477 14.0251C11.8899 14.0251 7.87171 14.0119 7.87171 14.0119C7.87171 14.0119 7.64434 13.9837 7.49332 13.5222C7.3423 13.0607 7.19976 12.41 7.19297 12.229C7.18449 12.0481 7.15055 11.8788 6.97747 11.8854C6.97747 11.8854 6.80609 11.907 6.80609 12.0813C6.80609 12.2556 6.88414 13.2632 7.52216 14.3472C8.15848 15.4312 8.49446 15.6901 8.64378 15.5839C8.7948 15.4793 8.76596 15.3332 8.60136 15.1722C8.43677 15.0112 8.23654 14.8087 8.15 14.6891C8.06346 14.5713 8.15 14.4518 8.2569 14.4435C8.3638 14.4368 8.58609 14.4435 8.58609 14.4435C8.58609 14.4435 8.73542 14.402 8.72184 14.5846C8.70657 14.7672 8.77784 14.9747 9.10703 15.3183C9.43622 15.6602 9.44979 15.6602 9.50748 15.6685C9.56518 15.6752 12.0731 15.6685 12.0731 15.6685C12.0731 15.6685 12.309 15.6337 12.2954 15.8163C12.2818 15.9989 12.0884 15.9358 11.8865 15.9557C11.6862 15.9773 9.67038 15.9557 9.67038 15.9557C9.67038 15.9557 9.49221 15.9208 9.37004 15.7947C9.24787 15.6685 9.07139 15.6967 9.00691 15.8163C8.94243 15.9358 8.92716 16.0321 9.21393 16.2562C9.499 16.4803 10.8378 17.2638 12.3803 17.2704C13.9244 17.2771 14.9815 16.8305 15.9267 16.1449C16.0777 16.0354 16.02 15.8295 15.9471 15.7814C15.8758 15.7316 15.7892 15.6768 15.6552 15.788C15.5194 15.8993 15.5042 15.9208 15.5042 15.9208L12.7807 15.9623C12.7807 15.9623 12.7027 15.9208 12.7027 15.7947C12.7027 15.6685 12.8316 15.6685 12.925 15.6685H15.606C15.606 15.6685 15.9997 15.222 16.171 14.9896C16.3424 14.7589 16.3492 14.6609 16.3492 14.5646C16.3492 14.4684 16.3356 14.4169 16.485 14.3887C16.636 14.3605 16.9126 14.3887 16.8854 14.5082C16.8566 14.6261 16.4629 15.1091 16.3848 15.1722C16.3068 15.2353 16.2067 15.3897 16.3781 15.5274C16.5511 15.6685 16.5902 15.5391 16.6716 15.4793C16.7565 15.4162 16.8854 15.2618 16.8854 15.2618C16.8854 15.2618 17.3504 14.7721 17.5353 14.3173C17.6405 14.0567 17.6728 13.9853 17.6812 13.9704C17.688 13.9272 17.7016 13.7679 17.4844 13.7861C17.235 13.8077 17.2214 13.9687 17.2214 13.9687L12.9165 14.0102C12.9165 14.0102 12.7451 13.9322 12.7383 13.8409C12.7298 13.7496 12.8028 13.723 12.8605 13.6384C12.9165 13.5537 12.9029 13.1553 12.9029 13.1553C12.9029 13.1553 12.9521 13.0507 13.0675 13.0507C13.1829 13.0507 13.361 13.0092 13.3543 13.1835C13.3475 13.3578 13.361 13.562 13.361 13.562C13.361 13.562 13.3814 13.7928 13.5901 13.7645C13.7971 13.7363 13.7683 13.5404 13.7683 13.5404L13.7751 13.1703C13.7751 13.1703 13.7683 13.059 13.9329 13.059C14.0975 13.059 14.2112 13.0175 14.2197 13.1786C14.2264 13.3396 14.2485 13.6052 14.2485 13.6052C14.2485 13.6052 14.2757 13.7247 14.3978 13.7247C14.52 13.7247 17.2655 13.7529 17.2655 13.7529C17.2655 13.7529 17.4013 13.7247 17.408 13.557C17.4148 13.3894 17.201 13.3827 17.201 13.3827L14.7491 13.3695C14.7491 13.3695 14.6337 13.3479 14.6422 13.2001C14.649 13.0541 14.8424 13.0756 14.8424 13.0756L17.1875 13.0673C17.1875 13.0673 17.3521 13.0756 17.3521 12.8648V12.3403C17.3521 12.3403 17.3385 12.1726 17.0585 12.1793C16.7802 12.1859 13.8277 12.1793 13.8277 12.1793C13.8277 12.1793 13.7632 12.1793 13.7632 12.1029C13.7632 12.0265 13.848 12.0548 13.848 12.0548H17.8C17.8 12.0548 17.7712 12.571 17.6371 13.0408L17.5014 13.5089C17.5014 13.5089 17.4454 13.6965 17.6168 13.7396C17.7881 13.7811 17.8594 13.7048 17.9018 13.5853C17.946 13.4674 18.36 12.3901 18.1665 10.9293C18.1089 10.4993 17.8441 9.60794 17.7084 9.5515M13.6207 7.8384C13.6207 7.8384 15.8028 7.83342 15.8469 7.83342C15.8911 7.83342 15.9504 7.8384 15.9555 7.92472C15.9606 8.00938 15.852 7.98946 15.852 7.98946H13.6105C13.6105 7.98946 13.529 7.96788 13.529 7.89816C13.529 7.82844 13.6224 7.8384 13.6224 7.8384M13.5189 8.24012C13.5239 8.16542 13.6122 8.19198 13.6122 8.19198H16.1218C16.149 8.19198 16.2525 8.187 16.2745 8.25672C16.2949 8.32644 16.2084 8.35299 16.2084 8.35299H13.6003C13.5409 8.35299 13.5121 8.31481 13.5189 8.24012ZM13.5138 8.57211C13.5189 8.48745 13.6682 8.52397 13.6682 8.52397C13.6682 8.52397 16.2966 8.51235 16.3798 8.51899C16.4612 8.52397 16.5002 8.51899 16.5325 8.58373C16.5664 8.64847 16.5104 8.67503 16.5104 8.67503H13.6393C13.5579 8.67503 13.5087 8.65843 13.5138 8.57377M13.6173 9.01865C13.5579 9.01865 13.507 9.00703 13.5138 8.94229C13.5189 8.87921 13.6122 8.87921 13.6122 8.87921C13.6122 8.87921 16.658 8.87423 16.6971 8.87423C16.7361 8.87423 16.7734 8.86427 16.8175 8.91739C16.8617 8.97051 16.8226 9.02031 16.8226 9.02031H13.619M14.3113 10.574C14.3181 10.4778 14.4012 10.4695 14.4012 10.4695C14.4012 10.4695 17.4691 10.4861 17.5268 10.4861C17.5845 10.4861 17.6337 10.4927 17.6337 10.5574C17.6337 10.6222 17.5845 10.6454 17.5845 10.6454L14.4521 10.6537C14.4521 10.6537 14.3045 10.6703 14.313 10.5724M17.7169 11.1899L14.4861 11.1816C14.4861 11.1816 14.3384 11.1982 14.3452 11.1019C14.3537 11.0073 14.4369 10.999 14.4369 10.999C14.4369 10.999 17.6032 11.0305 17.6609 11.0305C17.7186 11.0305 17.7678 11.0388 17.7678 11.1019C17.7678 11.165 17.7186 11.1899 17.7186 11.1899M9.13757 10.1159C9.13757 10.2836 9.17151 13.1736 9.17151 13.1736C9.17151 13.1736 9.17999 13.318 9.02388 13.3263C8.86947 13.3346 8.84401 13.3346 8.77105 13.2217C8.69639 13.1088 8.49276 12.3701 8.46731 12.1942C8.44356 12.0182 8.42659 11.8805 8.22127 11.9137C8.01595 11.9452 8.0414 12.2191 8.06685 12.3303C8.09061 12.4415 8.3129 13.2118 8.36211 13.318C8.41131 13.4226 8.36211 13.4458 8.3129 13.4624C8.26369 13.479 8.18224 13.5272 8.11437 13.391C8.04819 13.2549 7.81063 12.7486 7.81063 11.834C7.81063 10.9193 8.18054 10.0761 8.24502 9.97978C8.3112 9.8835 8.37568 9.89014 8.41641 9.89014C8.45713 9.89014 8.53179 9.89844 8.51482 9.97978C8.51482 9.97978 8.31799 10.2603 8.19581 10.9343C8.07194 11.6099 8.16357 11.7692 8.32647 11.7692C8.48937 11.7692 8.52331 11.673 8.54876 11.5202C8.57252 11.3675 8.67942 10.6703 8.86098 10.2686C9.04085 9.8669 9.04933 9.8835 9.13078 9.8752C9.21223 9.8669 9.24617 9.8752 9.24617 9.8752C9.24617 9.8752 9.13927 9.94658 9.13927 10.1159M9.63305 10.5176C9.63305 10.5176 12.6178 10.5342 12.6755 10.5342C12.7332 10.5342 12.7824 10.5425 12.7824 10.6072C12.7824 10.672 12.7332 10.6952 12.7332 10.6952L9.68226 10.7052C9.68226 10.7052 9.53463 10.7218 9.54312 10.6238C9.5516 10.5276 9.63305 10.5193 9.63305 10.5193M9.54312 11.1384C9.5516 11.0422 9.63305 11.0339 9.63305 11.0339C9.63305 11.0339 12.6178 11.0488 12.6755 11.0488C12.7332 11.0488 12.7824 11.0571 12.7824 11.1218C12.7824 11.1866 12.7332 11.2098 12.7332 11.2098L9.68226 11.2181C9.68226 11.2181 9.53463 11.2347 9.54312 11.1384ZM11.8729 12.6225C11.8644 12.7187 11.7575 12.7104 11.7575 12.7104H10.5188C10.5188 12.7104 10.4289 12.6955 10.4374 12.6059C10.4458 12.5179 10.5443 12.5345 10.5443 12.5345H11.766C11.766 12.5345 11.8814 12.5262 11.8729 12.6225ZM14.1857 16.3292C14.4318 16.3524 14.3011 16.545 14.3011 16.545C14.3011 16.545 13.2847 16.8338 12.6755 16.8504C12.068 16.8654 11.3231 16.7127 11.1433 16.6645C10.9617 16.6164 10.831 16.5931 10.831 16.4803C10.831 16.3674 10.9871 16.3591 10.9871 16.3591L12.4057 16.3358C12.4057 16.3358 13.9397 16.3043 14.1857 16.3275M15.4736 15.1075C15.4651 15.1722 15.3837 15.2452 15.3837 15.2452C15.3837 15.2452 9.76541 15.3249 9.69075 15.3183C9.61778 15.31 9.56009 15.2452 9.54312 15.1324C9.52615 15.0211 9.67378 15.0444 9.67378 15.0444C9.67378 15.0444 15.2513 15.0361 15.3328 15.0278C15.4159 15.0211 15.4804 15.0444 15.4719 15.1075M15.7672 14.402C15.8894 14.4103 15.8978 14.4684 15.8656 14.5231C15.8334 14.5796 15.7333 14.6194 15.7333 14.6194C15.7333 14.6194 9.37683 14.7157 9.31065 14.7157C9.24447 14.7157 9.11381 14.651 9.08836 14.5464C9.06461 14.4418 9.20375 14.4418 9.20375 14.4418C9.20375 14.4418 15.6433 14.3937 15.7672 14.4003M13.3458 12.6274C13.3373 12.7237 13.2389 12.7154 13.2389 12.7154H12.3209C12.3209 12.7154 12.2394 12.6507 12.2394 12.5942C12.2394 12.5378 12.3294 12.5312 12.3294 12.5312H13.2321C13.2321 12.5312 13.356 12.5312 13.3458 12.6274ZM15.2242 12.6191C15.2327 12.5229 15.3311 12.5312 15.3311 12.5312H16.8158C16.8158 12.5312 16.9482 12.5312 16.9482 12.6274C16.9482 12.7237 16.8413 12.7154 16.8413 12.7154H15.3396C15.3396 12.7154 15.2174 12.7154 15.2259 12.6191M13.865 12.5312H14.6931C14.6931 12.5312 14.8085 12.5312 14.8085 12.6274C14.8085 12.7237 14.7355 12.7154 14.7355 12.7154H13.8735C13.8735 12.7154 13.7666 12.7154 13.7666 12.6191C13.7666 12.5229 13.865 12.5312 13.865 12.5312ZM23.1349 13.2798C22.8346 13.1072 22.2458 12.6922 22.1915 12.1427C22.1372 11.5949 22.1508 11.4206 22.1508 11.4206C22.1508 11.4206 22.1236 11.2596 22.3154 11.2729C22.5071 11.2862 22.9449 11.2862 22.9449 11.2862C22.9449 11.2862 23.1909 11.2596 23.1638 11.0189C23.1366 10.7782 22.8889 10.8313 22.8889 10.8313L22.2882 10.8463C22.2882 10.8463 22.1372 10.8313 22.1372 10.6587C22.1372 10.4861 22.1236 9.9499 22.1236 9.9499C22.1236 9.9499 22.1372 9.73576 21.8911 9.72248C21.6451 9.7092 21.6587 10.0047 21.6587 10.0047L21.6722 10.6853C21.6722 10.6853 21.6722 10.8463 21.5077 10.8463C21.3431 10.8463 20.8645 10.8313 20.8645 10.8313C20.8645 10.8313 20.6457 10.7799 20.6321 10.9791C20.6185 11.1799 20.6864 11.2596 20.8102 11.2596C20.9341 11.2596 21.562 11.2862 21.562 11.2862C21.562 11.2862 21.6858 11.2729 21.6858 11.4323C21.6858 11.5916 21.6722 12.5162 21.1106 12.9711C20.5506 13.4259 20.4828 13.5587 20.6592 13.733C20.8374 13.9073 20.946 13.7596 21.1242 13.6118C21.3006 13.4657 21.6027 13.225 21.6977 13.0507C21.7927 12.8764 21.903 12.7968 21.9845 12.9312C22.0659 13.0657 22.5173 13.5604 22.9143 13.7064C23.3114 13.8542 23.2961 13.6782 23.325 13.6118C23.3521 13.5454 23.4336 13.4508 23.1332 13.2765M20.235 11.658C20.33 11.6182 20.4268 11.5252 20.4946 11.3775C20.5625 11.2314 20.5897 11.1102 20.4675 11.0156C20.3436 10.9226 20.2079 10.9226 20.1536 11.0687C20.0976 11.2165 19.9211 11.336 19.7158 11.3493C19.5105 11.3625 19.2933 11.2563 19.2237 10.9077C19.1541 10.5608 19.0184 9.04853 17.4607 7.36365C15.9029 5.67877 13.77 5.39823 13.2507 5.33183C12.7315 5.26377 12.7451 4.99817 12.8418 4.77076C12.9368 4.54334 13.0997 4.55662 13.1964 4.66286C13.2915 4.77076 13.5918 4.98489 14.016 5.14425C14.4402 5.30527 14.8356 5.26377 14.8356 5.26377L14.8492 5.06291C14.8628 4.86205 14.822 4.47528 14.6982 4.26114C14.576 4.047 14.6167 3.98061 14.6846 3.95405C14.7338 3.93413 14.7067 3.86773 14.7711 3.82623C14.7711 3.82291 14.7694 3.82125 14.7694 3.82125C14.7694 3.82125 15.08 3.57889 15.1105 3.23361C15.1105 3.22697 15.1105 3.22199 15.1105 3.21535C15.1122 3.09086 15.0952 2.82194 14.9442 2.60282C14.7389 2.309 14.0822 2.26916 13.8786 2.5497C13.6733 2.83024 13.9465 2.8568 13.9465 3.00454C13.9465 3.15227 13.6733 3.27179 13.6733 3.27179L13.4815 3.13899C13.4815 3.13899 13.4815 2.97798 13.2898 2.56298C13.098 2.14799 12.6891 1.84089 12.4838 1.77449C12.2785 1.70643 12.1139 1.77449 11.7592 2.18949C11.4164 2.58788 11.4453 3.05766 11.4453 3.23195C11.4453 3.40625 11.0635 3.0975 11.0635 3.0975C11.0635 3.0975 11.0907 2.90992 10.9939 2.66922C10.8989 2.42852 10.5426 2.28078 10.1608 2.48164C9.81971 2.65926 9.8791 3.09086 9.89606 3.18547C9.94527 3.37139 10.0522 3.60379 10.0742 3.65193C10.0997 3.68679 10.2049 3.82789 10.3033 3.93081C10.417 4.05032 10.417 4.05696 10.417 4.05696C10.417 4.05696 10.1743 4.45536 10.2253 4.8189C10.2745 5.18243 10.2965 5.18907 10.2965 5.18907C10.2965 5.18907 10.9396 5.30859 11.3248 4.95169C11.7117 4.5948 11.7694 4.52508 11.7694 4.52508C11.7694 4.52508 12.2275 4.6778 12.0697 5.01477C11.9136 5.35009 11.7915 5.33017 11.391 5.37167C10.9905 5.41483 9.70432 5.67877 8.32308 6.70795C7.89208 7.02833 6.70088 7.92472 6.00687 9.91836C5.83549 10.4097 5.73537 11.0305 5.73537 11.0305C5.73537 11.0305 5.59453 11.3991 5.17032 11.3111C4.97009 11.2696 4.8547 11.0106 4.8547 11.0106C4.8547 11.0106 4.7478 10.9276 4.61205 10.9608C4.4763 10.9957 4.33377 10.989 4.34734 10.828C4.36262 10.667 4.35413 9.85694 4.35413 9.85694C4.35413 9.85694 4.36771 9.72912 4.16748 9.72248C3.96725 9.71584 2.07356 9.72912 2.07356 9.72912C2.07356 9.72912 1.97344 9.68098 1.95817 9.82042C1.94459 9.95986 1.95817 11.8904 1.95817 11.8904C1.95817 11.8904 1.95138 12.0597 2.15161 12.0597C2.35184 12.0597 2.93047 12.088 2.93047 12.088L2.90841 13.5703C2.90841 13.5703 2.93047 13.7596 3.10185 13.7662C3.27323 13.7728 3.3445 13.5355 3.3445 13.5355L3.35129 12.0963C3.35129 12.0963 3.39541 12.0398 3.48704 12.0332C3.58036 12.0265 4.29474 11.9701 4.29474 11.9701C4.29474 11.9701 4.36601 11.9419 4.36601 11.8655C4.36601 11.7892 4.3168 11.502 4.43728 11.4538C4.55945 11.404 4.66635 11.4738 4.73762 11.5451C4.80889 11.6149 4.99554 11.6281 4.95312 11.7194C4.909 11.8107 4.61714 11.9435 4.5306 12.1112C4.44406 12.2788 4.5883 12.4183 4.70877 12.3967C4.83095 12.3768 4.94464 12.1942 5.06681 12.1311C5.18898 12.068 5.70313 12.0896 5.75234 12.3901C5.80325 12.6905 5.97463 14.0683 6.78912 15.2369C7.60531 16.4039 8.6336 17.3202 10.1845 17.8796C11.3418 18.2365 11.7779 18.2498 11.9442 18.3129C12.1088 18.376 12.2734 18.6681 12.1512 18.8856C12.029 19.103 11.9866 19.201 11.7439 18.9636C11.5013 18.7246 11.0499 18.3693 10.5494 18.2847C10.0488 18.2 10.0708 18.2631 10.0708 18.2631C10.0708 18.2631 10.042 18.7876 10.2066 19.103C10.3712 19.4168 10.4136 19.5164 10.4136 19.5164C10.4136 19.5164 10.2083 19.7504 10.1133 19.8666C10.1048 19.8766 10.0963 19.8882 10.0861 19.9015C9.78238 20.2484 9.81122 20.9074 9.81122 20.9074L9.80104 20.9008C9.8791 21.1249 10.1082 21.3689 10.4934 21.4004C10.977 21.4403 11.0754 21.0635 11.0991 20.9522C11.1229 20.8394 11.0499 20.8145 11.0499 20.8145L11.0177 20.758C10.9854 20.7016 10.9515 20.6302 11.0737 20.5256C11.1976 20.4211 11.3774 20.3895 11.4504 20.446C11.525 20.5024 11.5335 20.6153 11.5997 21.1199C11.6642 21.6262 11.9917 21.754 12.1563 21.8271C12.3209 21.9001 12.3361 21.915 12.4023 21.9798C12.4668 22.0429 12.5262 22.0512 12.5839 21.9964C12.6416 21.9399 12.7145 21.9233 12.7145 21.9233C12.7145 21.9233 12.7638 22.0047 13.1659 21.7324C13.5681 21.4585 13.6003 20.6086 13.6003 20.4808C13.6003 20.353 13.6495 20.3115 13.7802 20.3928C13.9108 20.4725 13.977 20.602 13.977 20.602C13.977 20.602 13.9448 20.69 13.9193 20.778C13.8939 20.8659 13.8939 21.3872 14.5268 21.3141C15.158 21.2427 15.0596 20.69 15.0511 20.4958C15.0511 20.4725 15.0511 20.4509 15.0511 20.4327C15.0138 20.094 14.7932 19.8318 14.7932 19.8318C14.7932 19.8318 14.7949 19.8284 14.8 19.8235C14.7898 19.8035 14.7762 19.7786 14.7542 19.7471C14.6812 19.6508 14.6065 19.611 14.5743 19.5396C14.5421 19.4666 14.5828 19.4516 14.6965 19.2342C14.8119 19.0167 14.8203 18.6731 14.8034 18.5287C14.7881 18.3843 14.6897 18.3428 14.2214 18.376C13.753 18.4075 13.5647 18.625 13.4832 18.7295C13.4018 18.8341 13.2457 19.0582 13.0811 19.0018C12.9165 18.9453 12.8096 18.688 12.9572 18.439C13.1048 18.19 13.2932 18.2299 13.2932 18.2299C15.4108 17.8033 16.3831 17.2721 17.6948 15.9623C19.0065 14.651 19.2797 12.5527 19.295 12.3784C19.3085 12.2042 19.3628 11.9767 19.7463 12.0714C20.1281 12.1643 20.1145 12.3519 20.2248 12.4863C20.3334 12.6208 20.5252 12.4996 20.5116 12.2722C20.498 12.0465 20.2503 11.8705 20.1824 11.819C20.1128 11.7659 20.1281 11.6979 20.2231 11.658M14.1687 3.36807C14.3316 3.27511 14.2366 3.14231 14.2366 3.14231C14.2366 3.14231 14.1144 2.9813 14.2773 2.86012C14.4419 2.7406 14.5794 2.92818 14.5794 2.92818C14.5794 2.92818 14.839 3.23527 14.6201 3.42285C14.4012 3.61043 14.2519 3.70339 14.1009 3.69011C13.9499 3.67683 14.0042 3.46269 14.1687 3.36973M13.8396 4.17316C13.9499 4.09182 14.072 4.1466 14.072 4.1466C14.072 4.1466 14.4962 4.60144 14.3859 4.70768C14.2773 4.81558 14.0449 4.72096 13.7988 4.55994C13.5528 4.39892 13.731 4.25118 13.8396 4.17316ZM10.3949 3.43779C10.2456 3.24855 10.2846 3.0228 10.4917 2.90162C10.697 2.78044 10.8056 2.96802 10.7224 3.07592C10.641 3.18215 10.7649 3.30333 10.7649 3.30333C11.0788 3.51747 10.9685 3.63865 10.8463 3.70505C10.7224 3.77311 10.546 3.62537 10.3949 3.43945M11.2841 4.54832C11.1738 4.65456 10.8056 4.84214 10.6817 4.77574C10.5578 4.70934 10.6681 4.34746 10.8056 4.17482C10.943 4.00052 11.1059 4.1217 11.1059 4.1217C11.2977 4.1881 11.3927 4.44208 11.2841 4.54998M2.81678 11.6265H2.34845C2.34845 11.6265 2.34166 11.3692 2.34845 11.2331C2.35693 11.0969 2.44686 11.0886 2.44686 11.0886L2.95592 11.1036C2.95592 11.1036 2.94913 11.3609 2.95592 11.5053C2.96441 11.6497 2.81678 11.6265 2.81678 11.6265ZM2.98137 10.5027C2.97289 10.662 2.89992 10.6388 2.89992 10.6388L2.35863 10.6471C2.35863 10.6471 2.35014 10.3251 2.35014 10.2371C2.35014 10.1491 2.44856 10.1491 2.44856 10.1491C2.61316 10.1259 2.97459 10.1657 2.97459 10.1657C2.97459 10.1657 2.99155 10.3417 2.98307 10.5027M3.95876 11.4804C3.95028 11.6182 3.85186 11.6182 3.85186 11.6182L3.37674 11.6248C3.37674 11.6248 3.35977 11.2563 3.36826 11.1667C3.37674 11.0787 3.49043 11.0621 3.49043 11.0621L3.96725 11.0787C3.96725 11.0787 3.96725 11.3443 3.95876 11.4804ZM3.98252 10.5093C3.97403 10.589 3.86713 10.6056 3.86713 10.6056L3.38353 10.6139C3.38353 10.6139 3.39201 10.3168 3.4005 10.2205C3.40728 10.1242 3.51419 10.1408 3.51419 10.1408C3.69405 10.1093 3.98252 10.1574 3.98252 10.1574C3.98252 10.1574 3.98931 10.4296 3.98252 10.5093ZM10.7903 20.2501C10.6919 20.3065 10.5188 20.4742 10.6172 20.6103C10.7156 20.7481 10.6834 20.8842 10.5935 20.9406C10.5035 20.9954 10.3712 20.9888 10.249 20.7796C10.1268 20.5705 10.2168 20.3613 10.3729 20.1687C10.529 19.9762 10.5527 19.8235 10.7835 19.9446C11.0126 20.0642 10.7903 20.2484 10.7903 20.2484M11.1433 19.2209C11.1433 19.2209 11.0448 19.4217 10.9057 19.4616C10.7649 19.5031 10.4951 19.1329 10.5035 18.9321C10.5103 18.7312 10.7326 18.7943 10.7326 18.7943C10.7326 18.7943 10.8548 18.8358 11.0771 18.9636C11.2994 19.0914 11.1433 19.2209 11.1433 19.2209ZM14.5505 20.8195C14.2909 20.8859 14.223 20.6452 14.2773 20.446C14.3333 20.2451 14.1687 20.3248 14.0449 20.0974C13.9227 19.8699 14.2926 19.8965 14.2926 19.8965C14.7016 20.2451 14.8102 20.7514 14.5522 20.8195M13.787 18.9736C13.787 18.9736 13.9923 18.8142 14.1976 18.7727C14.4029 18.7312 14.4708 18.8673 14.4436 18.9868C14.4165 19.108 14.2112 19.362 14.1569 19.4284C14.1026 19.4948 13.8837 19.5894 13.8837 19.4948C13.8837 19.4002 13.6919 19.2408 13.6784 19.1213C13.6648 19.0018 13.787 18.9752 13.787 18.9752M11.8474 2.91656C11.8474 2.91656 12.1325 2.26086 12.4481 2.28742C12.7638 2.31398 12.9826 2.81032 12.9945 2.90328C13.0081 2.99624 13.0234 3.1307 12.8588 3.10414C12.6942 3.07758 12.5313 3.10414 12.421 3.14563C12.3107 3.18547 12.0799 3.10414 11.9153 3.10414C11.7507 3.10414 11.8474 2.91656 11.8474 2.91656ZM11.8882 3.83951C11.8882 4.0138 11.7372 4.13332 11.5607 4.09348C11.3825 4.05364 11.3418 3.73327 11.6693 3.54569C11.9968 3.35811 12.4889 3.50419 12.4889 3.50419C12.4889 3.50419 12.6399 3.46435 12.9402 3.47763C13.2406 3.49091 13.5002 3.66521 13.5002 3.85279C13.5002 4.04036 13.4323 4.1466 13.1998 4.09348C12.9674 4.04036 13.0369 3.96069 13.0081 3.73327C12.981 3.50585 12.667 3.68015 12.611 3.85279C12.5567 4.02708 12.7892 4.26778 12.7213 4.34746C12.6518 4.42714 12.5024 4.60144 12.3938 4.58816C12.2852 4.57488 12.1325 4.25284 12.1325 4.25284C12.1325 4.25284 12.1461 4.22628 12.2021 4.09348C12.2564 3.96069 12.2428 3.78639 12.1189 3.65193C11.9968 3.51913 11.8882 3.66521 11.8882 3.83951ZM13.1455 20.9157C13.1184 21.1431 12.8995 21.4901 12.5567 21.5714C12.2157 21.6528 11.8882 20.9838 11.8882 20.7829C11.8882 20.5821 11.956 20.5688 12.1631 20.5821C12.3667 20.5954 12.4227 20.4742 12.4227 20.4742C12.4227 20.4742 12.5194 20.5007 12.6144 20.5422C12.7111 20.5821 12.8469 20.5422 13.0251 20.5688C13.2015 20.5954 13.1744 20.69 13.1472 20.9157M13.0166 19.8002C13.0166 19.8002 13.0081 19.6641 13.1727 19.5114C13.3356 19.3587 13.5172 19.5446 13.5426 19.6558C13.5664 19.767 13.4595 19.9679 13.1812 20.1206C12.9012 20.2733 12.6568 20.1372 12.5737 20.0559C12.4923 19.9762 12.443 20.0326 12.3938 20.0891C12.3446 20.1438 12.1393 20.2335 11.934 20.2252C11.7287 20.2169 11.4181 20.0559 11.3927 19.8733C11.3672 19.6873 11.4487 19.528 11.598 19.5197C11.7439 19.5114 11.8016 19.6392 11.8016 19.6392C11.7694 19.8002 11.8441 19.9446 11.9425 19.9679C12.0409 19.9928 12.1393 19.9928 12.2038 19.8069C12.27 19.6243 12.2106 19.3736 12.2106 19.3736C12.2106 19.3736 12.2768 19.2939 12.3429 19.2059C12.4091 19.118 12.4906 19.0532 12.572 19.0765C12.6535 19.1014 12.7688 19.284 12.7688 19.284C12.7688 19.284 12.7027 19.4533 12.6874 19.6043C12.6704 19.7571 12.6942 19.8849 12.8418 19.9181C12.9894 19.9496 13.0149 19.7969 13.0149 19.7969M18.8724 12.5278C18.757 13.1454 18.567 14.8717 16.6071 16.4354C14.9171 17.7833 12.9809 17.8481 12.9809 17.8481C12.9809 17.8481 12.7519 17.8481 12.6535 18.0572C12.555 18.2664 12.3904 18.283 12.326 18.1701C12.2598 18.0572 11.9306 17.8647 11.5861 17.8331C11.2417 17.8016 8.96619 17.4314 7.38811 15.4594C6.50235 14.3505 6.2054 12.986 6.17316 12.6656C6.14092 12.3436 5.99329 12.0548 5.8287 11.9269C5.6641 11.7991 5.6641 11.8622 5.6641 11.8622C5.6641 11.8622 5.50121 11.7825 5.73028 11.653C5.95936 11.5252 6.05778 11.4123 6.10698 11.1384C6.15619 10.8662 6.40224 9.11658 7.82929 7.73548C9.25635 6.35604 10.7615 5.9344 11.7507 5.7767C12.2598 5.69702 12.4227 5.18409 12.4227 5.18409C12.4227 5.18409 12.5381 5.68209 13.3254 5.7933C14.1128 5.90618 16.3441 6.48386 17.5251 8.02432C18.7061 9.56478 18.8368 10.8645 18.8538 11.0737C18.8707 11.2812 18.9199 11.4588 19.1151 11.5717L19.3119 11.6829C19.3119 11.6829 18.9827 11.907 18.869 12.5262L18.8724 12.5278Z" fill="white"/>
<path d="M29.9716 20.7597V18.874H29.2776V18.4673H31.1441V18.874H30.4535V20.7597H29.9716Z" fill="white"/>
<path d="M32.3709 20.5489C32.2505 20.7282 32.0655 20.8178 31.8127 20.8178C31.6447 20.8178 31.5157 20.7713 31.4258 20.6784C31.3359 20.5854 31.29 20.4526 31.29 20.28C31.29 20.1206 31.3359 19.9978 31.4258 19.9148C31.5157 19.8318 31.665 19.7737 31.8738 19.7421C31.9128 19.7355 31.9739 19.7272 32.0604 19.7172C32.2572 19.6923 32.354 19.6376 32.354 19.5512C32.354 19.4234 32.2606 19.3604 32.0723 19.3604C31.8839 19.3604 31.7838 19.4317 31.7838 19.5728V19.5977H31.3511V19.5662C31.3511 19.3919 31.4139 19.2558 31.5378 19.1562C31.6633 19.0566 31.8347 19.0068 32.0553 19.0068C32.5542 19.0068 32.8036 19.1661 32.8036 19.4848V20.446C32.8036 20.5721 32.8376 20.6502 32.9021 20.6834V20.7597H32.4201C32.3879 20.7016 32.3709 20.6319 32.3692 20.5489M32.3625 19.9264C32.2861 19.9613 32.1996 19.9878 32.1011 20.0077L31.9484 20.0409C31.8008 20.0824 31.7278 20.1571 31.7278 20.2667C31.7278 20.4012 31.8042 20.4692 31.9586 20.4692C32.0842 20.4692 32.1826 20.4344 32.2556 20.3663C32.3268 20.2982 32.3641 20.2053 32.3641 20.0858V19.9264H32.3625Z" fill="white"/>
<path d="M36.2143 19.9729C36.1957 20.2335 36.0939 20.4393 35.9072 20.5937C35.7205 20.7464 35.4762 20.8245 35.1759 20.8245C34.8297 20.8245 34.5599 20.7182 34.3681 20.5074C34.1764 20.2949 34.0797 19.9994 34.0797 19.6176C34.0797 19.2358 34.1781 18.9288 34.3732 18.7213C34.5684 18.5138 34.8518 18.4092 35.2183 18.4092C35.5169 18.4092 35.7528 18.4806 35.9259 18.6233C36.0989 18.7661 36.194 18.9686 36.2109 19.2292H35.7358C35.6934 18.9636 35.522 18.8308 35.2166 18.8308C34.7839 18.8308 34.5684 19.0931 34.5684 19.6176C34.5684 19.8666 34.6227 20.0575 34.733 20.1937C34.8433 20.3298 34.9994 20.3978 35.2013 20.3978C35.505 20.3978 35.6849 20.2567 35.7426 19.9729H36.2143Z" fill="white"/>
<path d="M36.5655 20.7597V18.4673H37.0237V19.2558C37.1493 19.1014 37.3206 19.025 37.5361 19.025C37.6753 19.025 37.7941 19.0549 37.8942 19.1163C37.9943 19.1778 38.0588 19.2608 38.0859 19.3687C38.0995 19.4234 38.1063 19.5114 38.1063 19.6326V20.7597H37.6481V19.8749C37.6481 19.6741 37.6278 19.543 37.5887 19.4815C37.5548 19.4284 37.4852 19.4002 37.3766 19.4002C37.268 19.4002 37.1798 19.4317 37.117 19.4965C37.0525 19.5596 37.022 19.6475 37.022 19.7571V20.7597H36.5638H36.5655Z" fill="white"/>
<path d="M38.9887 18.879V18.4673H38.5254V18.879H38.9887ZM38.9887 20.7597V19.0699H38.5254V20.7597H38.9887Z" fill="white"/>
<path d="M40.3937 20.5489C40.2749 20.7282 40.0882 20.8178 39.8354 20.8178C39.6674 20.8178 39.5385 20.7713 39.4485 20.6784C39.3586 20.5854 39.3128 20.4526 39.3128 20.28C39.3128 20.1206 39.3586 19.9978 39.4485 19.9148C39.5385 19.8318 39.6878 19.7737 39.8965 19.7421C39.9338 19.7355 39.9966 19.7272 40.0831 19.7172C40.2783 19.6923 40.3767 19.6376 40.3767 19.5512C40.3767 19.4234 40.2834 19.3604 40.095 19.3604C39.9067 19.3604 39.8066 19.4317 39.8066 19.5728V19.5977H39.3739V19.5662C39.3739 19.3919 39.4366 19.2558 39.5605 19.1562C39.6861 19.0566 39.8575 19.0068 40.0781 19.0068C40.5769 19.0068 40.8247 19.1661 40.8247 19.4848V20.446C40.8247 20.5721 40.8586 20.6502 40.9248 20.6834V20.7597H40.4429C40.4106 20.7016 40.3937 20.6319 40.392 20.5489M40.3852 19.9264C40.3105 19.9613 40.2223 19.9878 40.1239 20.0077L39.9712 20.0409C39.8235 20.0824 39.7506 20.1571 39.7506 20.2667C39.7506 20.4012 39.8269 20.4692 39.9813 20.4692C40.1069 20.4692 40.2053 20.4344 40.2783 20.3663C40.3496 20.2982 40.3852 20.2053 40.3852 20.0858V19.9264Z" fill="white"/>
<path d="M42.0396 19.9048H42.5079V20.182C42.5079 20.3464 42.6013 20.4277 42.7896 20.4277C42.8897 20.4277 42.9593 20.4028 42.9983 20.3514C43.0374 20.2999 43.056 20.2053 43.056 20.0658V18.4673H43.5379V20.0858C43.5379 20.3231 43.5006 20.4908 43.4259 20.5854C43.3004 20.7431 43.0917 20.8228 42.7964 20.8228C42.5283 20.8228 42.3264 20.7531 42.1923 20.612C42.1363 20.5539 42.0973 20.4925 42.0769 20.4261C42.0549 20.3497 42.043 20.2368 42.043 20.0841V19.9048H42.0396Z" fill="white"/>
<path d="M45.021 20.2468H45.4826C45.435 20.4261 45.3417 20.5655 45.2009 20.6668C45.06 20.768 44.887 20.8178 44.6833 20.8178C44.4339 20.8178 44.2354 20.7365 44.0894 20.5705C43.9435 20.4062 43.8705 20.1821 43.8705 19.9015C43.8705 19.621 43.9418 19.4052 44.086 19.2458C44.2303 19.0865 44.4271 19.0051 44.6782 19.0051C44.943 19.0051 45.1483 19.0831 45.2925 19.2408C45.4367 19.3985 45.508 19.6226 45.508 19.9148C45.508 19.9712 45.5063 20.0111 45.5029 20.0327H44.3474C44.3592 20.3016 44.4797 20.436 44.7054 20.436C44.8581 20.436 44.9633 20.373 45.0227 20.2451M44.3474 19.7339H45.0295C45.021 19.4981 44.9073 19.3803 44.6867 19.3803C44.4814 19.3803 44.3677 19.4981 44.3474 19.7339Z" fill="white"/>
<path d="M45.8117 20.7597V19.0699H46.2648V19.2707C46.3938 19.1064 46.5685 19.0251 46.7874 19.0251C47.1675 19.0251 47.3576 19.2193 47.3576 19.6077V20.7597H46.8943V19.7388C46.8943 19.6193 46.874 19.533 46.8315 19.4799C46.7891 19.4268 46.7213 19.4002 46.6279 19.4002C46.5193 19.4002 46.4328 19.4317 46.37 19.4965C46.3055 19.5596 46.275 19.6475 46.275 19.7571V20.7597H45.8117Z" fill="white"/>
<path d="M48.2179 20.7597V19.7571C48.2179 19.6475 48.2501 19.5612 48.3129 19.4965C48.3757 19.4317 48.4622 19.4002 48.5708 19.4002C48.6659 19.4002 48.7337 19.4268 48.7761 19.4799C48.8186 19.5313 48.8389 19.6193 48.8389 19.7388V20.7597H49.3022V19.6077C49.3022 19.2193 49.1121 19.0251 48.732 19.0251C48.5131 19.0251 48.3384 19.1064 48.2094 19.2707V19.0699H47.7546V20.7597H48.2179Z" fill="white"/>
<path d="M50.6664 20.7597V18.4673H51.1483V20.3381H52.2903V20.7597H50.6664Z" fill="white"/>
<path d="M53.5053 20.5489C53.3848 20.7282 53.1998 20.8178 52.947 20.8178C52.779 20.8178 52.6501 20.7713 52.5601 20.6784C52.4685 20.5854 52.4244 20.4526 52.4244 20.28C52.4244 20.1206 52.4685 19.9978 52.5601 19.9148C52.6518 19.8318 52.7994 19.7737 53.0081 19.7421C53.0454 19.7355 53.1082 19.7272 53.1947 19.7172C53.3899 19.6923 53.4883 19.6376 53.4883 19.5512C53.4883 19.4234 53.3933 19.3604 53.2066 19.3604C53.02 19.3604 52.9182 19.4317 52.9182 19.5728V19.5977H52.4855V19.5662C52.4855 19.3919 52.5482 19.2558 52.6721 19.1562C52.796 19.0566 52.9691 19.0068 53.1897 19.0068C53.6885 19.0068 53.938 19.1661 53.938 19.4848V20.446C53.938 20.5721 53.9702 20.6502 54.0364 20.6834V20.7597H53.5545C53.5222 20.7016 53.5053 20.6319 53.5036 20.5489M53.4968 19.9264C53.4204 19.9613 53.3339 19.9878 53.2372 20.0077L53.0828 20.0409C52.9351 20.0824 52.8622 20.1571 52.8622 20.2667C52.8622 20.4012 52.9385 20.4692 53.0912 20.4692C53.2168 20.4692 53.3152 20.4344 53.3882 20.3663C53.4595 20.2982 53.4951 20.2053 53.4951 20.0858V19.9264H53.4968Z" fill="white"/>
<path d="M54.3418 20.7597V19.0699H54.7966V19.2707C54.9255 19.1064 55.1003 19.0251 55.3192 19.0251C55.6993 19.0251 55.8894 19.2193 55.8894 19.6077V20.7597H55.4261V19.7388C55.4261 19.6193 55.4058 19.533 55.3633 19.4799C55.3209 19.4268 55.2547 19.4002 55.1597 19.4002C55.0511 19.4002 54.9646 19.4317 54.9018 19.4965C54.8373 19.5596 54.8068 19.6475 54.8068 19.7571V20.7597H54.3435H54.3418Z" fill="white"/>
<path d="M56.2864 20.7597V19.0699H56.7412V19.2707C56.8701 19.1064 57.0449 19.0251 57.2638 19.0251C57.6439 19.0251 57.8339 19.2193 57.8339 19.6077V20.7597H57.3707V19.7388C57.3707 19.6193 57.3503 19.533 57.3079 19.4799C57.2655 19.4268 57.1976 19.4002 57.1043 19.4002C56.9957 19.4002 56.9092 19.4317 56.8464 19.4965C56.7819 19.5596 56.7513 19.6475 56.7513 19.7571V20.7597H56.2881H56.2864Z" fill="white"/>
<path d="M60.9443 20.7597H61.2667V19.523H60.2995V19.9131H60.8289C60.8035 20.0658 60.7407 20.187 60.6372 20.275C60.5337 20.363 60.4064 20.4078 60.2537 20.4078C60.0501 20.4078 59.8889 20.3381 59.7735 20.1953C59.6564 20.0542 59.5987 19.86 59.5987 19.611C59.5987 19.362 59.6547 19.1694 59.7667 19.0284C59.8787 18.8873 60.0331 18.8175 60.2282 18.8175C60.5286 18.8175 60.7084 18.9404 60.7695 19.1844H61.2616C61.226 18.9437 61.1157 18.7545 60.9307 18.6167C60.7458 18.4789 60.5065 18.4092 60.213 18.4092C59.8753 18.4092 59.6055 18.5187 59.4036 18.7379C59.2016 18.957 59.0998 19.2491 59.0998 19.6127C59.0998 19.9762 59.2016 20.2667 59.4036 20.4891C59.6072 20.7116 59.8719 20.8228 60.1994 20.8228C60.4895 20.8228 60.7169 20.7116 60.8866 20.4891L60.946 20.7597H60.9443Z" fill="white"/>
<path d="M61.5959 19.9115C61.5959 19.6293 61.6739 19.4085 61.8284 19.2475C61.9845 19.0865 62.1983 19.0068 62.4698 19.0068C62.7413 19.0068 62.9551 19.0865 63.1095 19.2475C63.2656 19.4085 63.3436 19.6309 63.3436 19.9115C63.3436 20.192 63.2656 20.4161 63.1095 20.5771C62.9534 20.7381 62.7396 20.8178 62.4698 20.8178C62.2 20.8178 61.9828 20.7381 61.8284 20.5771C61.6722 20.4161 61.5959 20.1953 61.5959 19.9115ZM62.0676 19.9115C62.0676 20.0808 62.1032 20.2103 62.1728 20.3016C62.2424 20.3929 62.3425 20.4377 62.4732 20.4377C62.6038 20.4377 62.6988 20.3912 62.7684 20.3016C62.838 20.2103 62.8736 20.0808 62.8736 19.9115C62.8736 19.7421 62.8397 19.616 62.7701 19.5247C62.7005 19.4334 62.6021 19.3886 62.4732 19.3886C62.3442 19.3886 62.2424 19.4334 62.1728 19.5247C62.1032 19.616 62.0676 19.7455 62.0676 19.9115Z" fill="white"/>
<path d="M63.6627 20.7597V19.0699H64.1174V19.2707C64.2464 19.1064 64.4212 19.0251 64.64 19.0251C65.0201 19.0251 65.2102 19.2193 65.2102 19.6077V20.7597H64.747V19.7388C64.747 19.6193 64.7266 19.533 64.6842 19.4799C64.6417 19.4268 64.5756 19.4002 64.4805 19.4002C64.3719 19.4002 64.2854 19.4317 64.2209 19.4965C64.1581 19.5596 64.1259 19.6475 64.1259 19.7571V20.7597H63.6627Z" fill="white"/>
<path d="M65.575 20.9224H66.079C66.1078 21.0336 66.1995 21.0901 66.3556 21.0901C66.4998 21.0901 66.6016 21.0602 66.6576 21.0004C66.7136 20.9407 66.7425 20.8311 66.7425 20.6701V20.519C66.6474 20.6784 66.4879 20.7581 66.2622 20.7581C66.0366 20.7581 65.8601 20.68 65.726 20.524C65.592 20.368 65.5241 20.1605 65.5241 19.8999C65.5241 19.626 65.5903 19.4085 65.7209 19.2475C65.8533 19.0865 66.0298 19.0051 66.2521 19.0051C66.4744 19.0051 66.6474 19.0948 66.7492 19.2724V19.0682H67.1887V20.6452C67.1887 20.8211 67.1718 20.9573 67.1395 21.0502C67.1056 21.1448 67.0479 21.2229 66.9647 21.2859C66.8239 21.3938 66.6135 21.447 66.3318 21.447C66.101 21.447 65.9195 21.4005 65.7871 21.3092C65.6548 21.2179 65.5835 21.0884 65.5733 20.9224M65.9941 19.8866C65.9941 20.2153 66.118 20.3779 66.3674 20.3779C66.6169 20.3779 66.7391 20.2119 66.7391 19.8799C66.7391 19.7256 66.7068 19.606 66.6406 19.5214C66.5745 19.4367 66.4811 19.3952 66.3607 19.3952C66.2402 19.3952 66.1536 19.4384 66.0892 19.5247C66.0264 19.611 65.9924 19.7305 65.9924 19.8866H65.9941Z" fill="white"/>
</svg>
